#N canvas 261 23 1162 855 10;
#X obj 155 732 adc~;
#X obj 79 186 line~;
#X obj 78 809 delwrite~ one 10000;
#X obj 178 776 delwrite~ two 10000;
#X obj 80 257 vd~ one 10000;
#X obj 92 212 vd~ two 10000;
#X obj -46 734 timer;
#X msg 9 576 bang;
#X msg 52 577 bang;
#X msg 18 604 0;
#X obj 78 769 *~;
#X obj 42 804 dac~;
#X obj 100 770 *~;
#X msg 58 604 1;
#X obj 156 755 *~;
#X obj 178 755 *~;
#X msg 189 731 1;
#X msg 220 731 0;
#X msg 80 142 10000;
#X obj 312 36 del;
#X obj 312 76 t f f;
#X obj 279 144 random;
#X obj 279 123 t b f;
#X obj 280 200 +;
#X obj 312 55 f, f 9;
#X floatatom 406 143 5 0 0 0 - - -;
#X msg 406 185 \$1 \$1;
#X obj 106 352 vd~ three 1000;
#X obj 93 238 delwrite~ three 1000;
#X obj 106 330 line~;
#X obj 99 568 *~;
#X obj 153 519 +~ 1;
#X obj 153 495 *~;
#X obj 224 486 line~;
#X obj 122 568 *~;
#X msg 296 470 0;
#X obj 405 120 spigot;
#X obj 437 103 tgl 15 0 empty empty empty 17 7 0 10 -262144 -1 -1 0
1;
#X obj 502 236 f;
#X msg 503 182 bang;
#X obj 621 291 f;
#X obj 543 235 f;
#X obj 483 259 - 1000;
#X obj 547 260 + 1000;
#X obj 536 209 del 1000;
#X obj 600 235 del 1000;
#X obj 666 162 random 400;
#X obj 667 183 + 200;
#X obj 610 138 t b b;
#X obj 607 83 metro 8000;
#X obj 296 448 r res;
#X obj 166 290 r res;
#X msg 166 311 0;
#X obj 106 287 r pgo;
#X msg 224 466 1 100000;
#X obj 224 445 r ogo;
#X obj -46 755 s len;
#X obj 312 13 r len;
#X obj 39 165 r len;
#X obj 741 25 r len;
#X obj 647 255 r len;
#X obj 79 114 r res;
#X obj 699 802 s ogo;
#X obj 665 802 s pgo;
#X obj 152 475 osc~ 500;
#X obj 412 45 r res;
#X msg 412 66 0;
#X obj 458 52 r fgo;
#X msg 458 75 1;
#X obj 631 802 s fgo;
#X obj 607 61 tgl 15 0 empty empty empty 17 7 0 10 -262144 -1 -1 0
1;
#X obj 588 13 r res;
#X msg 588 34 0;
#X msg 628 33 1;
#X obj 628 10 r jgo;
#X obj 597 802 s jgo;
#X obj 140 597 * -1;
#X obj 736 79 t f f;
#X obj 716 120 / 7;
#X obj 716 141 / 3.5;
#X obj 693 53 * 3;
#X obj 707 99 * 2.5;
#X floatatom 211 595 5 0 0 0 - - -;
#X obj 100 618 clip~ -0.3 0.3;
#X obj 123 646 clip~ -0.3 0.3;
#X obj 233 532 r res;
#X obj 361 432 r dgo;
#X obj 361 453 del 5000;
#X obj 404 474 del 5000;
#X obj 440 496 del 5000;
#X obj 477 518 del 5000;
#X obj 517 540 del 5000;
#X obj 555 563 del 5000;
#X obj 600 596 del 5000;
#X obj 737 801 s dgo;
#X obj 650 626 del 5000;
#X msg 651 646 0.02;
#X obj 689 648 del 5000;
#X msg 690 668 0.01;
#X obj 735 677 del 5000;
#X msg 736 697 0.005;
#X msg 228 635 1;
#X obj 186 677 line~;
#X obj 157 704 *~;
#X obj 134 697 *~;
#X obj 294 167 * 0.95;
#X obj 279 102 * 0.13;
#X obj 502 75 random 2;
#X obj 502 96 sel 1 0;
#X msg 476 122 0.13;
#X obj 522 127 0.08;
#X obj 216 288 r res;
#X obj 774 799 s lgo;
#X obj 568 382 r res;
#X msg 568 403 stop;
#X msg 211 569 0.7;
#X msg 361 474 0.6;
#X msg 405 494 0.5;
#X msg 441 517 0.4;
#X msg 477 539 0.3;
#X msg 517 561 0.2;
#X msg 555 585 0.1;
#X msg 601 617 0.05;
#X obj 68 417 bp~, f 5;
#X obj 116 419 bp~, f 8;
#X msg 16 369 320;
#X msg 217 316 0;
#X obj 14 338 loadbang;
#X obj 806 170 del 5000;
#X obj 849 191 del 5000;
#X obj 885 213 del 5000;
#X obj 922 235 del 5000;
#X obj 962 257 del 5000;
#X obj 1000 280 del 5000;
#X obj 1045 313 del 5000;
#X obj 1095 343 del 5000;
#X obj 1134 365 del 5000;
#X obj 1180 394 del 5000;
#X msg 1013 120 stop;
#X floatatom 684 348 5 0 0 0 - - -;
#X obj 806 149 r lgo;
#X obj 1024 90 r res;
#X msg 806 191 0.3;
#X msg 850 211 0.7;
#X msg 886 234 1.2;
#X msg 923 256 1.8;
#X msg 962 278 2.5;
#X msg 1000 302 3.4;
#X msg 1046 334 4.7;
#X msg 1096 363 6.6;
#X msg 1135 385 9;
#X msg 1181 414 11;
#X obj 833 660 t b b b;
#X obj 833 681 random 6;
#X obj 833 702 sel 0 1 2 3 4 5;
#X msg 106 309 10;
#X obj -18 526 r gob;
#X obj 25 525 r stopb;
#X obj 612 111 del;
#X obj -42 492 loadbang;
#X obj 278 714 loadbang;
#X msg 278 735 1;
#X obj 272 422 loadbang;
#X msg 2 796 bang;
#X obj 2 817 s res;
#X msg 410 664 2;
#X msg 374 655 1.8;
#X msg 340 657 1.6;
#X msg 300 649 1.4;
#X msg 266 636 1.2;
#X connect 0 0 14 0;
#X connect 0 1 15 0;
#X connect 1 0 4 0;
#X connect 1 0 5 0;
#X connect 4 0 123 0;
#X connect 5 0 28 0;
#X connect 6 0 56 0;
#X connect 7 0 6 0;
#X connect 7 0 9 0;
#X connect 7 0 16 0;
#X connect 7 0 163 0;
#X connect 8 0 6 1;
#X connect 8 0 13 0;
#X connect 8 0 17 0;
#X connect 8 0 152 0;
#X connect 9 0 10 1;
#X connect 9 0 12 1;
#X connect 10 0 11 0;
#X connect 10 0 2 0;
#X connect 12 0 11 1;
#X connect 12 0 3 0;
#X connect 13 0 10 1;
#X connect 13 0 12 1;
#X connect 14 0 2 0;
#X connect 15 0 3 0;
#X connect 16 0 14 1;
#X connect 16 0 15 1;
#X connect 17 0 14 1;
#X connect 17 0 15 1;
#X connect 18 0 1 0;
#X connect 19 0 24 0;
#X connect 20 0 106 0;
#X connect 20 1 105 0;
#X connect 21 0 23 0;
#X connect 22 0 21 0;
#X connect 22 1 21 1;
#X connect 23 0 19 0;
#X connect 23 0 24 1;
#X connect 23 0 36 0;
#X connect 24 0 20 0;
#X connect 25 0 26 0;
#X connect 25 0 38 1;
#X connect 25 0 41 1;
#X connect 25 0 40 1;
#X connect 25 0 78 0;
#X connect 26 0 1 0;
#X connect 27 0 124 0;
#X connect 29 0 27 0;
#X connect 30 0 83 0;
#X connect 31 0 30 1;
#X connect 31 0 34 1;
#X connect 32 0 31 0;
#X connect 33 0 32 1;
#X connect 34 0 84 0;
#X connect 35 0 33 0;
#X connect 36 0 25 0;
#X connect 37 0 36 1;
#X connect 38 0 42 0;
#X connect 39 0 38 0;
#X connect 39 0 44 0;
#X connect 40 0 1 0;
#X connect 41 0 43 0;
#X connect 42 0 1 0;
#X connect 43 0 1 0;
#X connect 44 0 41 0;
#X connect 44 0 45 0;
#X connect 45 0 40 0;
#X connect 46 0 47 0;
#X connect 47 0 44 1;
#X connect 47 0 45 1;
#X connect 47 0 42 1;
#X connect 47 0 43 1;
#X connect 48 0 39 0;
#X connect 48 1 46 0;
#X connect 49 0 158 0;
#X connect 50 0 35 0;
#X connect 51 0 52 0;
#X connect 52 0 29 0;
#X connect 53 0 155 0;
#X connect 54 0 33 0;
#X connect 55 0 54 0;
#X connect 57 0 19 0;
#X connect 57 0 24 1;
#X connect 58 0 1 0;
#X connect 59 0 77 0;
#X connect 59 0 78 0;
#X connect 60 0 38 1;
#X connect 60 0 41 1;
#X connect 60 0 40 1;
#X connect 61 0 18 0;
#X connect 64 0 32 0;
#X connect 65 0 66 0;
#X connect 66 0 37 0;
#X connect 67 0 68 0;
#X connect 67 0 107 0;
#X connect 68 0 37 0;
#X connect 70 0 49 0;
#X connect 71 0 72 0;
#X connect 72 0 70 0;
#X connect 73 0 70 0;
#X connect 74 0 73 0;
#X connect 76 0 83 1;
#X connect 76 0 84 1;
#X connect 77 0 80 0;
#X connect 77 1 81 0;
#X connect 78 0 46 1;
#X connect 78 0 79 0;
#X connect 79 0 47 1;
#X connect 80 0 49 1;
#X connect 81 0 158 1;
#X connect 82 0 76 0;
#X connect 82 0 83 2;
#X connect 82 0 84 2;
#X connect 83 0 104 0;
#X connect 84 0 103 0;
#X connect 85 0 115 0;
#X connect 85 0 101 0;
#X connect 86 0 87 0;
#X connect 87 0 116 0;
#X connect 87 0 88 0;
#X connect 88 0 117 0;
#X connect 88 0 89 0;
#X connect 89 0 118 0;
#X connect 89 0 90 0;
#X connect 90 0 119 0;
#X connect 90 0 91 0;
#X connect 91 0 120 0;
#X connect 91 0 92 0;
#X connect 92 0 121 0;
#X connect 92 0 93 0;
#X connect 93 0 122 0;
#X connect 93 0 95 0;
#X connect 95 0 96 0;
#X connect 95 0 97 0;
#X connect 96 0 82 0;
#X connect 96 0 167 0;
#X connect 97 0 98 0;
#X connect 97 0 99 0;
#X connect 98 0 82 0;
#X connect 98 0 166 0;
#X connect 99 0 100 0;
#X connect 100 0 82 0;
#X connect 100 0 165 0;
#X connect 101 0 102 0;
#X connect 102 0 103 1;
#X connect 102 0 104 1;
#X connect 103 0 12 0;
#X connect 104 0 10 0;
#X connect 105 0 23 1;
#X connect 106 0 22 0;
#X connect 107 0 108 0;
#X connect 108 0 109 0;
#X connect 108 1 110 0;
#X connect 109 0 106 1;
#X connect 110 0 106 1;
#X connect 111 0 126 0;
#X connect 113 0 114 0;
#X connect 114 0 87 0;
#X connect 114 0 99 0;
#X connect 114 0 97 0;
#X connect 114 0 95 0;
#X connect 114 0 93 0;
#X connect 114 0 92 0;
#X connect 114 0 91 0;
#X connect 114 0 90 0;
#X connect 114 0 89 0;
#X connect 114 0 88 0;
#X connect 115 0 82 0;
#X connect 116 0 82 0;
#X connect 117 0 82 0;
#X connect 118 0 82 0;
#X connect 119 0 82 0;
#X connect 120 0 82 0;
#X connect 121 0 82 0;
#X connect 121 0 169 0;
#X connect 122 0 82 0;
#X connect 122 0 168 0;
#X connect 123 0 30 0;
#X connect 124 0 34 0;
#X connect 125 0 123 1;
#X connect 125 0 124 1;
#X connect 126 0 124 2;
#X connect 126 0 123 2;
#X connect 127 0 125 0;
#X connect 128 0 142 0;
#X connect 128 0 129 0;
#X connect 129 0 143 0;
#X connect 129 0 130 0;
#X connect 130 0 144 0;
#X connect 130 0 131 0;
#X connect 131 0 145 0;
#X connect 131 0 132 0;
#X connect 132 0 146 0;
#X connect 132 0 133 0;
#X connect 133 0 147 0;
#X connect 133 0 134 0;
#X connect 134 0 148 0;
#X connect 134 0 135 0;
#X connect 135 0 149 0;
#X connect 135 0 136 0;
#X connect 136 0 150 0;
#X connect 136 0 137 0;
#X connect 137 0 151 0;
#X connect 138 0 128 0;
#X connect 138 0 137 0;
#X connect 138 0 136 0;
#X connect 138 0 135 0;
#X connect 138 0 134 0;
#X connect 138 0 133 0;
#X connect 138 0 132 0;
#X connect 138 0 131 0;
#X connect 138 0 130 0;
#X connect 138 0 129 0;
#X connect 139 0 124 2;
#X connect 139 0 123 2;
#X connect 140 0 128 0;
#X connect 141 0 138 0;
#X connect 142 0 139 0;
#X connect 143 0 139 0;
#X connect 144 0 139 0;
#X connect 145 0 139 0;
#X connect 146 0 139 0;
#X connect 147 0 139 0;
#X connect 148 0 139 0;
#X connect 149 0 139 0;
#X connect 150 0 139 0;
#X connect 151 0 139 0;
#X connect 152 0 153 0;
#X connect 152 1 153 0;
#X connect 152 2 153 0;
#X connect 153 0 154 0;
#X connect 154 0 75 0;
#X connect 154 1 69 0;
#X connect 154 2 63 0;
#X connect 154 3 62 0;
#X connect 154 4 94 0;
#X connect 154 5 112 0;
#X connect 155 0 29 0;
#X connect 156 0 7 0;
#X connect 157 0 8 0;
#X connect 158 0 48 0;
#X connect 159 0 163 0;
#X connect 160 0 161 0;
#X connect 161 0 102 0;
#X connect 162 0 35 0;
#X connect 163 0 164 0;
#X connect 165 0 102 0;
#X connect 166 0 102 0;
#X connect 167 0 102 0;
#X connect 168 0 102 0;
#X connect 169 0 102 0;
