#N canvas 389 113 994 644 12;
#X obj 139 164 catch~ allsum;
#X obj 149 436 dac~;
#N canvas 0 22 450 278 (subpatch) 0;
#X array array1 8 float 3;
#A 0 54 54 59 79 56 54 77 78;
#X coords 0 100 8 20 200 140 1 0 0;
#X restore 587 153 graph;
#X obj 178 218 catch~ allsum2;
#N canvas 812 210 1108 765 ri 0;
#X obj 422 316 line~;
#X obj 518 203 random 8;
#X obj 518 227 tabread array1;
#X obj 511 139 metro 60;
#X obj 479 110 tgl 15 0 empty empty empty 17 7 0 10 -262144 -1 -1 1
1;
#X obj 151 91 loadbang;
#X obj 614 154 random 100;
#X obj 627 202 + 30;
#X obj 518 251 mtof;
#X msg 518 275 \$1 10;
#N canvas 0 25 1127 738 r 0;
#X obj 219 397 osc~;
#X obj 219 438 *~;
#X obj 275 354 *;
#X obj 323 330 mod 4;
#X obj 284 210 loadbang;
#X obj 234 313 + 1;
#X obj 219 352 *~;
#X obj 135 261 r~ 0-riv;
#X obj 223 487 throw~ 0-sum;
#X obj 370 138 0;
#X obj 323 297 + 0;
#X text 413 109 \$2;
#X obj 323 273 0;
#X text 382 111 \$1;
#X text 267 507 \$2;
#X obj 276 301 f;
#X obj 284 234 t b b b;
#X msg 439 375 set \$1-sum;
#X msg 179 211 set \$1-riv;
#X obj 493 71 inlet;
#X msg 410 143 \$1;
#X obj 275 378 t b f;
#X msg 275 402 1;
#X obj 275 426 /;
#X connect 0 0 1 0;
#X connect 1 0 8 0;
#X connect 2 0 21 0;
#X connect 3 0 2 1;
#X connect 4 0 16 0;
#X connect 5 0 6 1;
#X connect 6 0 0 0;
#X connect 7 0 6 0;
#X connect 9 0 5 0;
#X connect 9 0 15 1;
#X connect 9 0 10 1;
#X connect 10 0 3 0;
#X connect 12 0 10 0;
#X connect 15 0 2 0;
#X connect 16 0 15 0;
#X connect 16 1 12 0;
#X connect 16 2 9 0;
#X connect 17 0 8 0;
#X connect 18 0 7 0;
#X connect 19 0 20 0;
#X connect 20 0 17 0;
#X connect 20 0 18 0;
#X connect 21 0 22 0;
#X connect 21 1 23 1;
#X connect 22 0 23 0;
#X connect 23 0 1 1;
#X restore 151 279 pd r;
#N canvas 0 25 1127 738 r 0;
#X obj 219 397 osc~;
#X obj 219 438 *~;
#X obj 275 354 *;
#X obj 323 330 mod 4;
#X obj 284 210 loadbang;
#X obj 234 313 + 1;
#X obj 219 352 *~;
#X obj 135 261 r~ 0-riv;
#X obj 223 487 throw~ 0-sum;
#X obj 323 297 + 0;
#X text 413 109 \$2;
#X obj 323 273 0;
#X text 382 111 \$1;
#X text 267 507 \$2;
#X obj 276 301 f;
#X obj 284 234 t b b b;
#X msg 439 375 set \$1-sum;
#X msg 179 211 set \$1-riv;
#X obj 369 139 1;
#X msg 410 143 \$1;
#X obj 493 71 inlet;
#X obj 285 388 t b f;
#X msg 285 412 1;
#X obj 285 436 /;
#X connect 0 0 1 0;
#X connect 1 0 8 0;
#X connect 2 0 21 0;
#X connect 3 0 2 1;
#X connect 4 0 15 0;
#X connect 5 0 6 1;
#X connect 6 0 0 0;
#X connect 7 0 6 0;
#X connect 9 0 3 0;
#X connect 11 0 9 0;
#X connect 14 0 2 0;
#X connect 15 0 14 0;
#X connect 15 1 11 0;
#X connect 15 2 18 0;
#X connect 16 0 8 0;
#X connect 17 0 7 0;
#X connect 18 0 5 0;
#X connect 18 0 14 1;
#X connect 18 0 9 1;
#X connect 19 0 16 0;
#X connect 19 0 17 0;
#X connect 20 0 19 0;
#X connect 21 0 22 0;
#X connect 21 1 23 1;
#X connect 22 0 23 0;
#X connect 23 0 1 1;
#X restore 151 298 pd r;
#N canvas 0 25 1127 738 r 0;
#X obj 219 397 osc~;
#X obj 219 438 *~;
#X obj 275 354 *;
#X obj 323 330 mod 4;
#X obj 284 210 loadbang;
#X obj 234 313 + 1;
#X obj 219 352 *~;
#X obj 135 261 r~ 0-riv;
#X obj 223 487 throw~ 0-sum;
#X obj 323 297 + 0;
#X text 413 109 \$2;
#X obj 323 273 0;
#X text 382 111 \$1;
#X text 267 507 \$2;
#X obj 276 301 f;
#X obj 284 234 t b b b;
#X msg 439 375 set \$1-sum;
#X msg 179 211 set \$1-riv;
#X obj 370 138 2;
#X obj 493 71 inlet;
#X msg 410 143 \$1;
#X obj 285 388 t b f;
#X msg 285 412 1;
#X obj 285 436 /;
#X connect 0 0 1 0;
#X connect 1 0 8 0;
#X connect 2 0 21 0;
#X connect 3 0 2 1;
#X connect 4 0 15 0;
#X connect 5 0 6 1;
#X connect 6 0 0 0;
#X connect 7 0 6 0;
#X connect 9 0 3 0;
#X connect 11 0 9 0;
#X connect 14 0 2 0;
#X connect 15 0 14 0;
#X connect 15 1 11 0;
#X connect 15 2 18 0;
#X connect 16 0 8 0;
#X connect 17 0 7 0;
#X connect 18 0 5 0;
#X connect 18 0 14 1;
#X connect 18 0 9 1;
#X connect 19 0 20 0;
#X connect 20 0 16 0;
#X connect 20 0 17 0;
#X connect 21 0 22 0;
#X connect 21 1 23 1;
#X connect 22 0 23 0;
#X connect 23 0 1 1;
#X restore 151 317 pd r;
#N canvas 0 25 1127 738 r 0;
#X obj 219 397 osc~;
#X obj 219 438 *~;
#X obj 275 354 *;
#X obj 323 330 mod 4;
#X obj 284 210 loadbang;
#X obj 234 313 + 1;
#X obj 219 352 *~;
#X obj 135 261 r~ 0-riv;
#X obj 223 487 throw~ 0-sum;
#X obj 323 297 + 0;
#X text 413 109 \$2;
#X obj 323 273 0;
#X text 382 111 \$1;
#X text 267 507 \$2;
#X obj 276 301 f;
#X obj 284 234 t b b b;
#X msg 439 375 set \$1-sum;
#X msg 179 211 set \$1-riv;
#X obj 370 138 3;
#X msg 410 143 \$1;
#X obj 493 71 inlet;
#X obj 275 378 t b f;
#X msg 275 402 1;
#X obj 275 426 /;
#X connect 0 0 1 0;
#X connect 1 0 8 0;
#X connect 2 0 21 0;
#X connect 3 0 2 1;
#X connect 4 0 15 0;
#X connect 5 0 6 1;
#X connect 6 0 0 0;
#X connect 7 0 6 0;
#X connect 9 0 3 0;
#X connect 11 0 9 0;
#X connect 14 0 2 0;
#X connect 15 0 14 0;
#X connect 15 1 11 0;
#X connect 15 2 18 0;
#X connect 16 0 8 0;
#X connect 17 0 7 0;
#X connect 18 0 5 0;
#X connect 18 0 14 1;
#X connect 18 0 9 1;
#X connect 19 0 16 0;
#X connect 19 0 17 0;
#X connect 20 0 19 0;
#X connect 21 0 22 0;
#X connect 21 1 23 1;
#X connect 22 0 23 0;
#X connect 23 0 1 1;
#X restore 151 336 pd r;
#N canvas 0 25 1127 738 r 0;
#X obj 219 397 osc~;
#X obj 219 438 *~;
#X obj 275 354 *;
#X obj 323 330 mod 4;
#X obj 284 210 loadbang;
#X obj 234 313 + 1;
#X obj 219 352 *~;
#X obj 135 261 r~ 0-riv;
#X obj 223 487 throw~ 0-sum;
#X obj 323 297 + 0;
#X text 413 109 \$2;
#X obj 323 273 0;
#X text 382 111 \$1;
#X text 267 507 \$2;
#X obj 276 301 f;
#X obj 284 234 t b b b;
#X msg 439 375 set \$1-sum;
#X msg 179 211 set \$1-riv;
#X msg 410 143 \$1;
#X obj 493 71 inlet;
#X obj 370 138 4;
#X obj 275 378 t b f;
#X msg 275 402 1;
#X obj 275 426 /;
#X connect 0 0 1 0;
#X connect 1 0 8 0;
#X connect 2 0 21 0;
#X connect 3 0 2 1;
#X connect 4 0 15 0;
#X connect 5 0 6 1;
#X connect 6 0 0 0;
#X connect 7 0 6 0;
#X connect 9 0 3 0;
#X connect 11 0 9 0;
#X connect 14 0 2 0;
#X connect 15 0 14 0;
#X connect 15 1 11 0;
#X connect 15 2 20 0;
#X connect 16 0 8 0;
#X connect 17 0 7 0;
#X connect 18 0 16 0;
#X connect 18 0 17 0;
#X connect 19 0 18 0;
#X connect 20 0 5 0;
#X connect 20 0 14 1;
#X connect 20 0 9 1;
#X connect 21 0 22 0;
#X connect 21 1 23 1;
#X connect 22 0 23 0;
#X connect 23 0 1 1;
#X restore 151 355 pd r;
#N canvas 0 25 1127 738 r 0;
#X obj 219 397 osc~;
#X obj 219 438 *~;
#X obj 275 354 *;
#X obj 323 330 mod 4;
#X obj 284 210 loadbang;
#X obj 234 313 + 1;
#X obj 219 352 *~;
#X obj 135 261 r~ 0-riv;
#X obj 223 487 throw~ 0-sum;
#X obj 323 297 + 0;
#X text 413 109 \$2;
#X obj 323 273 0;
#X text 382 111 \$1;
#X text 267 507 \$2;
#X obj 276 301 f;
#X obj 284 234 t b b b;
#X msg 439 375 set \$1-sum;
#X msg 179 211 set \$1-riv;
#X msg 410 143 \$1;
#X obj 493 71 inlet;
#X obj 370 138 5;
#X obj 275 378 t b f;
#X msg 275 402 1;
#X obj 275 426 /;
#X connect 0 0 1 0;
#X connect 1 0 8 0;
#X connect 2 0 21 0;
#X connect 3 0 2 1;
#X connect 4 0 15 0;
#X connect 5 0 6 1;
#X connect 6 0 0 0;
#X connect 7 0 6 0;
#X connect 9 0 3 0;
#X connect 11 0 9 0;
#X connect 14 0 2 0;
#X connect 15 0 14 0;
#X connect 15 1 11 0;
#X connect 15 2 20 0;
#X connect 16 0 8 0;
#X connect 17 0 7 0;
#X connect 18 0 16 0;
#X connect 18 0 17 0;
#X connect 19 0 18 0;
#X connect 20 0 5 0;
#X connect 20 0 14 1;
#X connect 20 0 9 1;
#X connect 21 0 22 0;
#X connect 21 1 23 1;
#X connect 22 0 23 0;
#X connect 23 0 1 1;
#X restore 151 374 pd r;
#N canvas 178 146 1127 738 r 0;
#X obj 219 397 osc~;
#X obj 219 438 *~;
#X obj 275 354 *;
#X obj 323 330 mod 4;
#X obj 284 210 loadbang;
#X obj 234 313 + 1;
#X obj 219 352 *~;
#X obj 135 261 r~ 0-riv;
#X obj 223 487 throw~ 0-sum;
#X obj 323 297 + 0;
#X text 413 109 \$2;
#X obj 323 273 0;
#X text 382 111 \$1;
#X text 267 507 \$2;
#X obj 276 301 f;
#X obj 284 234 t b b b;
#X msg 439 375 set \$1-sum;
#X msg 179 211 set \$1-riv;
#X msg 410 143 \$1;
#X obj 493 71 inlet;
#X obj 369 138 6;
#X obj 275 378 t b f;
#X msg 275 402 1;
#X obj 275 426 /;
#X connect 0 0 1 0;
#X connect 1 0 8 0;
#X connect 2 0 21 0;
#X connect 3 0 2 1;
#X connect 4 0 15 0;
#X connect 5 0 6 1;
#X connect 6 0 0 0;
#X connect 7 0 6 0;
#X connect 9 0 3 0;
#X connect 11 0 9 0;
#X connect 14 0 2 0;
#X connect 15 0 14 0;
#X connect 15 1 11 0;
#X connect 15 2 20 0;
#X connect 16 0 8 0;
#X connect 17 0 7 0;
#X connect 18 0 16 0;
#X connect 18 0 17 0;
#X connect 19 0 18 0;
#X connect 20 0 5 0;
#X connect 20 0 14 1;
#X connect 20 0 9 1;
#X connect 21 0 22 0;
#X connect 21 1 23 1;
#X connect 22 0 23 0;
#X connect 23 0 1 1;
#X restore 151 393 pd r;
#N canvas 152 314 1127 738 r 0;
#X obj 219 397 osc~;
#X obj 219 438 *~;
#X obj 275 354 *;
#X obj 323 330 mod 4;
#X obj 284 210 loadbang;
#X obj 234 313 + 1;
#X obj 219 352 *~;
#X obj 135 261 r~ 0-riv;
#X obj 223 487 throw~ 0-sum;
#X obj 323 297 + 0;
#X text 413 109 \$2;
#X obj 323 273 0;
#X text 382 111 \$1;
#X text 267 507 \$2;
#X obj 276 301 f;
#X obj 284 234 t b b b;
#X msg 439 375 set \$1-sum;
#X msg 179 211 set \$1-riv;
#X obj 370 138 7;
#X obj 493 71 inlet;
#X msg 436 143 \$1;
#X obj 275 378 t b f;
#X msg 275 402 1;
#X obj 275 426 /;
#X connect 0 0 1 0;
#X connect 1 0 8 0;
#X connect 2 0 21 0;
#X connect 3 0 2 1;
#X connect 4 0 15 0;
#X connect 5 0 6 1;
#X connect 6 0 0 0;
#X connect 7 0 6 0;
#X connect 9 0 3 0;
#X connect 11 0 9 0;
#X connect 14 0 2 0;
#X connect 15 0 14 0;
#X connect 15 1 11 0;
#X connect 15 2 18 0;
#X connect 16 0 8 0;
#X connect 17 0 7 0;
#X connect 18 0 5 0;
#X connect 18 0 14 1;
#X connect 18 0 9 1;
#X connect 19 0 20 0;
#X connect 20 0 16 0;
#X connect 20 0 17 0;
#X connect 21 0 22 0;
#X connect 21 1 23 1;
#X connect 22 0 23 0;
#X connect 23 0 1 1;
#X restore 151 412 pd r;
#X msg 151 131 0;
#X obj 56 133 catch~ 0-sum;
#X obj 190 133 s~ 0-riv;
#X obj 56 193 throw~ allsum2;
#X obj 56 157 *~ 0.05;
#X obj 692 89 r metro;
#X obj 692 113 unpack f f;
#X connect 0 0 20 0;
#X connect 1 0 2 0;
#X connect 2 0 8 0;
#X connect 3 0 1 0;
#X connect 3 0 6 0;
#X connect 4 0 3 0;
#X connect 5 0 4 0;
#X connect 5 0 18 0;
#X connect 6 0 7 0;
#X connect 7 0 3 1;
#X connect 8 0 9 0;
#X connect 9 0 0 0;
#X connect 18 0 10 0;
#X connect 18 0 17 0;
#X connect 18 0 16 0;
#X connect 18 0 15 0;
#X connect 18 0 14 0;
#X connect 18 0 13 0;
#X connect 18 0 12 0;
#X connect 18 0 11 0;
#X connect 19 0 22 0;
#X connect 22 0 21 0;
#X connect 23 0 24 0;
#X connect 24 0 6 1;
#X connect 24 1 7 1;
#X restore 280 41 pd ri;
#N canvas 812 210 1108 765 ri 0;
#X obj 422 316 line~;
#X obj 518 203 random 8;
#X obj 518 227 tabread array1;
#X obj 511 139 metro 60;
#X obj 479 110 tgl 15 0 empty empty empty 17 7 0 10 -262144 -1 -1 1
1;
#X obj 151 91 loadbang;
#X obj 614 154 random 100;
#X obj 627 202 + 30;
#X obj 518 251 mtof;
#X msg 518 275 \$1 10;
#N canvas 0 25 1127 738 r 0;
#X obj 219 397 osc~;
#X obj 219 438 *~;
#X obj 275 354 *;
#X obj 323 330 mod 4;
#X obj 284 210 loadbang;
#X obj 234 313 + 1;
#X obj 219 352 *~;
#X obj 135 261 r~ 0-riv;
#X obj 223 487 throw~ 0-sum;
#X obj 370 138 0;
#X obj 323 297 + 0;
#X text 413 109 \$2;
#X obj 323 273 0;
#X text 382 111 \$1;
#X text 267 507 \$2;
#X obj 276 301 f;
#X obj 284 234 t b b b;
#X msg 439 375 set \$1-sum;
#X msg 179 211 set \$1-riv;
#X obj 493 71 inlet;
#X msg 410 143 \$1;
#X obj 275 378 t b f;
#X msg 275 402 1;
#X obj 275 426 /;
#X connect 0 0 1 0;
#X connect 1 0 8 0;
#X connect 2 0 21 0;
#X connect 3 0 2 1;
#X connect 4 0 16 0;
#X connect 5 0 6 1;
#X connect 6 0 0 0;
#X connect 7 0 6 0;
#X connect 9 0 5 0;
#X connect 9 0 15 1;
#X connect 9 0 10 1;
#X connect 10 0 3 0;
#X connect 12 0 10 0;
#X connect 15 0 2 0;
#X connect 16 0 15 0;
#X connect 16 1 12 0;
#X connect 16 2 9 0;
#X connect 17 0 8 0;
#X connect 18 0 7 0;
#X connect 19 0 20 0;
#X connect 20 0 17 0;
#X connect 20 0 18 0;
#X connect 21 0 22 0;
#X connect 21 1 23 1;
#X connect 22 0 23 0;
#X connect 23 0 1 1;
#X restore 151 279 pd r;
#N canvas 0 25 1127 738 r 0;
#X obj 219 397 osc~;
#X obj 219 438 *~;
#X obj 275 354 *;
#X obj 323 330 mod 4;
#X obj 284 210 loadbang;
#X obj 234 313 + 1;
#X obj 219 352 *~;
#X obj 135 261 r~ 0-riv;
#X obj 223 487 throw~ 0-sum;
#X obj 323 297 + 0;
#X text 413 109 \$2;
#X obj 323 273 0;
#X text 382 111 \$1;
#X text 267 507 \$2;
#X obj 276 301 f;
#X obj 284 234 t b b b;
#X msg 439 375 set \$1-sum;
#X msg 179 211 set \$1-riv;
#X obj 369 139 1;
#X msg 410 143 \$1;
#X obj 493 71 inlet;
#X obj 285 388 t b f;
#X msg 285 412 1;
#X obj 285 436 /;
#X connect 0 0 1 0;
#X connect 1 0 8 0;
#X connect 2 0 21 0;
#X connect 3 0 2 1;
#X connect 4 0 15 0;
#X connect 5 0 6 1;
#X connect 6 0 0 0;
#X connect 7 0 6 0;
#X connect 9 0 3 0;
#X connect 11 0 9 0;
#X connect 14 0 2 0;
#X connect 15 0 14 0;
#X connect 15 1 11 0;
#X connect 15 2 18 0;
#X connect 16 0 8 0;
#X connect 17 0 7 0;
#X connect 18 0 5 0;
#X connect 18 0 14 1;
#X connect 18 0 9 1;
#X connect 19 0 16 0;
#X connect 19 0 17 0;
#X connect 20 0 19 0;
#X connect 21 0 22 0;
#X connect 21 1 23 1;
#X connect 22 0 23 0;
#X connect 23 0 1 1;
#X restore 151 298 pd r;
#N canvas 0 25 1127 738 r 0;
#X obj 219 397 osc~;
#X obj 219 438 *~;
#X obj 275 354 *;
#X obj 323 330 mod 4;
#X obj 284 210 loadbang;
#X obj 234 313 + 1;
#X obj 219 352 *~;
#X obj 135 261 r~ 0-riv;
#X obj 223 487 throw~ 0-sum;
#X obj 323 297 + 0;
#X text 413 109 \$2;
#X obj 323 273 0;
#X text 382 111 \$1;
#X text 267 507 \$2;
#X obj 276 301 f;
#X obj 284 234 t b b b;
#X msg 439 375 set \$1-sum;
#X msg 179 211 set \$1-riv;
#X obj 370 138 2;
#X obj 493 71 inlet;
#X msg 410 143 \$1;
#X obj 285 388 t b f;
#X msg 285 412 1;
#X obj 285 436 /;
#X connect 0 0 1 0;
#X connect 1 0 8 0;
#X connect 2 0 21 0;
#X connect 3 0 2 1;
#X connect 4 0 15 0;
#X connect 5 0 6 1;
#X connect 6 0 0 0;
#X connect 7 0 6 0;
#X connect 9 0 3 0;
#X connect 11 0 9 0;
#X connect 14 0 2 0;
#X connect 15 0 14 0;
#X connect 15 1 11 0;
#X connect 15 2 18 0;
#X connect 16 0 8 0;
#X connect 17 0 7 0;
#X connect 18 0 5 0;
#X connect 18 0 14 1;
#X connect 18 0 9 1;
#X connect 19 0 20 0;
#X connect 20 0 16 0;
#X connect 20 0 17 0;
#X connect 21 0 22 0;
#X connect 21 1 23 1;
#X connect 22 0 23 0;
#X connect 23 0 1 1;
#X restore 151 317 pd r;
#N canvas 0 25 1127 738 r 0;
#X obj 219 397 osc~;
#X obj 219 438 *~;
#X obj 275 354 *;
#X obj 323 330 mod 4;
#X obj 284 210 loadbang;
#X obj 234 313 + 1;
#X obj 219 352 *~;
#X obj 135 261 r~ 0-riv;
#X obj 223 487 throw~ 0-sum;
#X obj 323 297 + 0;
#X text 413 109 \$2;
#X obj 323 273 0;
#X text 382 111 \$1;
#X text 267 507 \$2;
#X obj 276 301 f;
#X obj 284 234 t b b b;
#X msg 439 375 set \$1-sum;
#X msg 179 211 set \$1-riv;
#X obj 370 138 3;
#X msg 410 143 \$1;
#X obj 493 71 inlet;
#X obj 275 378 t b f;
#X msg 275 402 1;
#X obj 275 426 /;
#X connect 0 0 1 0;
#X connect 1 0 8 0;
#X connect 2 0 21 0;
#X connect 3 0 2 1;
#X connect 4 0 15 0;
#X connect 5 0 6 1;
#X connect 6 0 0 0;
#X connect 7 0 6 0;
#X connect 9 0 3 0;
#X connect 11 0 9 0;
#X connect 14 0 2 0;
#X connect 15 0 14 0;
#X connect 15 1 11 0;
#X connect 15 2 18 0;
#X connect 16 0 8 0;
#X connect 17 0 7 0;
#X connect 18 0 5 0;
#X connect 18 0 14 1;
#X connect 18 0 9 1;
#X connect 19 0 16 0;
#X connect 19 0 17 0;
#X connect 20 0 19 0;
#X connect 21 0 22 0;
#X connect 21 1 23 1;
#X connect 22 0 23 0;
#X connect 23 0 1 1;
#X restore 151 336 pd r;
#N canvas 0 25 1127 738 r 0;
#X obj 219 397 osc~;
#X obj 219 438 *~;
#X obj 275 354 *;
#X obj 323 330 mod 4;
#X obj 284 210 loadbang;
#X obj 234 313 + 1;
#X obj 219 352 *~;
#X obj 135 261 r~ 0-riv;
#X obj 223 487 throw~ 0-sum;
#X obj 323 297 + 0;
#X text 413 109 \$2;
#X obj 323 273 0;
#X text 382 111 \$1;
#X text 267 507 \$2;
#X obj 276 301 f;
#X obj 284 234 t b b b;
#X msg 439 375 set \$1-sum;
#X msg 179 211 set \$1-riv;
#X msg 410 143 \$1;
#X obj 493 71 inlet;
#X obj 370 138 4;
#X obj 275 378 t b f;
#X msg 275 402 1;
#X obj 275 426 /;
#X connect 0 0 1 0;
#X connect 1 0 8 0;
#X connect 2 0 21 0;
#X connect 3 0 2 1;
#X connect 4 0 15 0;
#X connect 5 0 6 1;
#X connect 6 0 0 0;
#X connect 7 0 6 0;
#X connect 9 0 3 0;
#X connect 11 0 9 0;
#X connect 14 0 2 0;
#X connect 15 0 14 0;
#X connect 15 1 11 0;
#X connect 15 2 20 0;
#X connect 16 0 8 0;
#X connect 17 0 7 0;
#X connect 18 0 16 0;
#X connect 18 0 17 0;
#X connect 19 0 18 0;
#X connect 20 0 5 0;
#X connect 20 0 14 1;
#X connect 20 0 9 1;
#X connect 21 0 22 0;
#X connect 21 1 23 1;
#X connect 22 0 23 0;
#X connect 23 0 1 1;
#X restore 151 355 pd r;
#N canvas 0 25 1127 738 r 0;
#X obj 219 397 osc~;
#X obj 219 438 *~;
#X obj 275 354 *;
#X obj 323 330 mod 4;
#X obj 284 210 loadbang;
#X obj 234 313 + 1;
#X obj 219 352 *~;
#X obj 135 261 r~ 0-riv;
#X obj 223 487 throw~ 0-sum;
#X obj 323 297 + 0;
#X text 413 109 \$2;
#X obj 323 273 0;
#X text 382 111 \$1;
#X text 267 507 \$2;
#X obj 276 301 f;
#X obj 284 234 t b b b;
#X msg 439 375 set \$1-sum;
#X msg 179 211 set \$1-riv;
#X msg 410 143 \$1;
#X obj 493 71 inlet;
#X obj 370 138 5;
#X obj 275 378 t b f;
#X msg 275 402 1;
#X obj 275 426 /;
#X connect 0 0 1 0;
#X connect 1 0 8 0;
#X connect 2 0 21 0;
#X connect 3 0 2 1;
#X connect 4 0 15 0;
#X connect 5 0 6 1;
#X connect 6 0 0 0;
#X connect 7 0 6 0;
#X connect 9 0 3 0;
#X connect 11 0 9 0;
#X connect 14 0 2 0;
#X connect 15 0 14 0;
#X connect 15 1 11 0;
#X connect 15 2 20 0;
#X connect 16 0 8 0;
#X connect 17 0 7 0;
#X connect 18 0 16 0;
#X connect 18 0 17 0;
#X connect 19 0 18 0;
#X connect 20 0 5 0;
#X connect 20 0 14 1;
#X connect 20 0 9 1;
#X connect 21 0 22 0;
#X connect 21 1 23 1;
#X connect 22 0 23 0;
#X connect 23 0 1 1;
#X restore 151 374 pd r;
#N canvas 178 146 1127 738 r 0;
#X obj 219 397 osc~;
#X obj 219 438 *~;
#X obj 275 354 *;
#X obj 323 330 mod 4;
#X obj 284 210 loadbang;
#X obj 234 313 + 1;
#X obj 219 352 *~;
#X obj 135 261 r~ 0-riv;
#X obj 223 487 throw~ 0-sum;
#X obj 323 297 + 0;
#X text 413 109 \$2;
#X obj 323 273 0;
#X text 382 111 \$1;
#X text 267 507 \$2;
#X obj 276 301 f;
#X obj 284 234 t b b b;
#X msg 439 375 set \$1-sum;
#X msg 179 211 set \$1-riv;
#X msg 410 143 \$1;
#X obj 493 71 inlet;
#X obj 369 138 6;
#X obj 275 378 t b f;
#X msg 275 402 1;
#X obj 275 426 /;
#X connect 0 0 1 0;
#X connect 1 0 8 0;
#X connect 2 0 21 0;
#X connect 3 0 2 1;
#X connect 4 0 15 0;
#X connect 5 0 6 1;
#X connect 6 0 0 0;
#X connect 7 0 6 0;
#X connect 9 0 3 0;
#X connect 11 0 9 0;
#X connect 14 0 2 0;
#X connect 15 0 14 0;
#X connect 15 1 11 0;
#X connect 15 2 20 0;
#X connect 16 0 8 0;
#X connect 17 0 7 0;
#X connect 18 0 16 0;
#X connect 18 0 17 0;
#X connect 19 0 18 0;
#X connect 20 0 5 0;
#X connect 20 0 14 1;
#X connect 20 0 9 1;
#X connect 21 0 22 0;
#X connect 21 1 23 1;
#X connect 22 0 23 0;
#X connect 23 0 1 1;
#X restore 151 393 pd r;
#N canvas 152 314 1127 738 r 0;
#X obj 219 397 osc~;
#X obj 219 438 *~;
#X obj 275 354 *;
#X obj 323 330 mod 4;
#X obj 284 210 loadbang;
#X obj 234 313 + 1;
#X obj 219 352 *~;
#X obj 135 261 r~ 0-riv;
#X obj 223 487 throw~ 0-sum;
#X obj 323 297 + 0;
#X text 413 109 \$2;
#X obj 323 273 0;
#X text 382 111 \$1;
#X text 267 507 \$2;
#X obj 276 301 f;
#X obj 284 234 t b b b;
#X msg 439 375 set \$1-sum;
#X msg 179 211 set \$1-riv;
#X obj 370 138 7;
#X obj 493 71 inlet;
#X msg 436 143 \$1;
#X obj 275 378 t b f;
#X msg 275 402 1;
#X obj 275 426 /;
#X connect 0 0 1 0;
#X connect 1 0 8 0;
#X connect 2 0 21 0;
#X connect 3 0 2 1;
#X connect 4 0 15 0;
#X connect 5 0 6 1;
#X connect 6 0 0 0;
#X connect 7 0 6 0;
#X connect 9 0 3 0;
#X connect 11 0 9 0;
#X connect 14 0 2 0;
#X connect 15 0 14 0;
#X connect 15 1 11 0;
#X connect 15 2 18 0;
#X connect 16 0 8 0;
#X connect 17 0 7 0;
#X connect 18 0 5 0;
#X connect 18 0 14 1;
#X connect 18 0 9 1;
#X connect 19 0 20 0;
#X connect 20 0 16 0;
#X connect 20 0 17 0;
#X connect 21 0 22 0;
#X connect 21 1 23 1;
#X connect 22 0 23 0;
#X connect 23 0 1 1;
#X restore 151 412 pd r;
#X obj 56 193 throw~ allsum2;
#X obj 56 157 *~ 0.05;
#X obj 692 89 r metro;
#X obj 692 113 unpack f f;
#X obj 56 133 catch~ 1-sum;
#X msg 151 131 1;
#X obj 190 133 s~ 1-riv;
#X connect 0 0 24 0;
#X connect 1 0 2 0;
#X connect 2 0 8 0;
#X connect 3 0 1 0;
#X connect 3 0 6 0;
#X connect 4 0 3 0;
#X connect 5 0 4 0;
#X connect 5 0 23 0;
#X connect 6 0 7 0;
#X connect 7 0 3 1;
#X connect 8 0 9 0;
#X connect 9 0 0 0;
#X connect 19 0 18 0;
#X connect 20 0 21 0;
#X connect 21 0 6 1;
#X connect 21 1 7 1;
#X connect 22 0 19 0;
#X connect 23 0 10 0;
#X connect 23 0 17 0;
#X connect 23 0 16 0;
#X connect 23 0 15 0;
#X connect 23 0 14 0;
#X connect 23 0 13 0;
#X connect 23 0 12 0;
#X connect 23 0 11 0;
#X restore 280 61 pd ri;
#N canvas 812 210 1108 765 ri 0;
#X obj 422 316 line~;
#X obj 518 203 random 8;
#X obj 518 227 tabread array1;
#X obj 511 139 metro 60;
#X obj 479 110 tgl 15 0 empty empty empty 17 7 0 10 -262144 -1 -1 1
1;
#X obj 151 91 loadbang;
#X obj 614 154 random 100;
#X obj 627 202 + 30;
#X obj 518 251 mtof;
#X msg 518 275 \$1 10;
#N canvas 0 25 1127 738 r 0;
#X obj 219 397 osc~;
#X obj 219 438 *~;
#X obj 275 354 *;
#X obj 323 330 mod 4;
#X obj 284 210 loadbang;
#X obj 234 313 + 1;
#X obj 219 352 *~;
#X obj 135 261 r~ 0-riv;
#X obj 223 487 throw~ 0-sum;
#X obj 370 138 0;
#X obj 323 297 + 0;
#X text 413 109 \$2;
#X obj 323 273 0;
#X text 382 111 \$1;
#X text 267 507 \$2;
#X obj 276 301 f;
#X obj 284 234 t b b b;
#X msg 439 375 set \$1-sum;
#X msg 179 211 set \$1-riv;
#X obj 493 71 inlet;
#X msg 410 143 \$1;
#X obj 275 378 t b f;
#X msg 275 402 1;
#X obj 275 426 /;
#X connect 0 0 1 0;
#X connect 1 0 8 0;
#X connect 2 0 21 0;
#X connect 3 0 2 1;
#X connect 4 0 16 0;
#X connect 5 0 6 1;
#X connect 6 0 0 0;
#X connect 7 0 6 0;
#X connect 9 0 5 0;
#X connect 9 0 15 1;
#X connect 9 0 10 1;
#X connect 10 0 3 0;
#X connect 12 0 10 0;
#X connect 15 0 2 0;
#X connect 16 0 15 0;
#X connect 16 1 12 0;
#X connect 16 2 9 0;
#X connect 17 0 8 0;
#X connect 18 0 7 0;
#X connect 19 0 20 0;
#X connect 20 0 17 0;
#X connect 20 0 18 0;
#X connect 21 0 22 0;
#X connect 21 1 23 1;
#X connect 22 0 23 0;
#X connect 23 0 1 1;
#X restore 151 279 pd r;
#N canvas 0 25 1127 738 r 0;
#X obj 219 397 osc~;
#X obj 219 438 *~;
#X obj 275 354 *;
#X obj 323 330 mod 4;
#X obj 284 210 loadbang;
#X obj 234 313 + 1;
#X obj 219 352 *~;
#X obj 135 261 r~ 0-riv;
#X obj 223 487 throw~ 0-sum;
#X obj 323 297 + 0;
#X text 413 109 \$2;
#X obj 323 273 0;
#X text 382 111 \$1;
#X text 267 507 \$2;
#X obj 276 301 f;
#X obj 284 234 t b b b;
#X msg 439 375 set \$1-sum;
#X msg 179 211 set \$1-riv;
#X obj 369 139 1;
#X msg 410 143 \$1;
#X obj 493 71 inlet;
#X obj 285 388 t b f;
#X msg 285 412 1;
#X obj 285 436 /;
#X connect 0 0 1 0;
#X connect 1 0 8 0;
#X connect 2 0 21 0;
#X connect 3 0 2 1;
#X connect 4 0 15 0;
#X connect 5 0 6 1;
#X connect 6 0 0 0;
#X connect 7 0 6 0;
#X connect 9 0 3 0;
#X connect 11 0 9 0;
#X connect 14 0 2 0;
#X connect 15 0 14 0;
#X connect 15 1 11 0;
#X connect 15 2 18 0;
#X connect 16 0 8 0;
#X connect 17 0 7 0;
#X connect 18 0 5 0;
#X connect 18 0 14 1;
#X connect 18 0 9 1;
#X connect 19 0 16 0;
#X connect 19 0 17 0;
#X connect 20 0 19 0;
#X connect 21 0 22 0;
#X connect 21 1 23 1;
#X connect 22 0 23 0;
#X connect 23 0 1 1;
#X restore 151 298 pd r;
#N canvas 0 25 1127 738 r 0;
#X obj 219 397 osc~;
#X obj 219 438 *~;
#X obj 275 354 *;
#X obj 323 330 mod 4;
#X obj 284 210 loadbang;
#X obj 234 313 + 1;
#X obj 219 352 *~;
#X obj 135 261 r~ 0-riv;
#X obj 223 487 throw~ 0-sum;
#X obj 323 297 + 0;
#X text 413 109 \$2;
#X obj 323 273 0;
#X text 382 111 \$1;
#X text 267 507 \$2;
#X obj 276 301 f;
#X obj 284 234 t b b b;
#X msg 439 375 set \$1-sum;
#X msg 179 211 set \$1-riv;
#X obj 370 138 2;
#X obj 493 71 inlet;
#X msg 410 143 \$1;
#X obj 285 388 t b f;
#X msg 285 412 1;
#X obj 285 436 /;
#X connect 0 0 1 0;
#X connect 1 0 8 0;
#X connect 2 0 21 0;
#X connect 3 0 2 1;
#X connect 4 0 15 0;
#X connect 5 0 6 1;
#X connect 6 0 0 0;
#X connect 7 0 6 0;
#X connect 9 0 3 0;
#X connect 11 0 9 0;
#X connect 14 0 2 0;
#X connect 15 0 14 0;
#X connect 15 1 11 0;
#X connect 15 2 18 0;
#X connect 16 0 8 0;
#X connect 17 0 7 0;
#X connect 18 0 5 0;
#X connect 18 0 14 1;
#X connect 18 0 9 1;
#X connect 19 0 20 0;
#X connect 20 0 16 0;
#X connect 20 0 17 0;
#X connect 21 0 22 0;
#X connect 21 1 23 1;
#X connect 22 0 23 0;
#X connect 23 0 1 1;
#X restore 151 317 pd r;
#N canvas 0 25 1127 738 r 0;
#X obj 219 397 osc~;
#X obj 219 438 *~;
#X obj 275 354 *;
#X obj 323 330 mod 4;
#X obj 284 210 loadbang;
#X obj 234 313 + 1;
#X obj 219 352 *~;
#X obj 135 261 r~ 0-riv;
#X obj 223 487 throw~ 0-sum;
#X obj 323 297 + 0;
#X text 413 109 \$2;
#X obj 323 273 0;
#X text 382 111 \$1;
#X text 267 507 \$2;
#X obj 276 301 f;
#X obj 284 234 t b b b;
#X msg 439 375 set \$1-sum;
#X msg 179 211 set \$1-riv;
#X obj 370 138 3;
#X msg 410 143 \$1;
#X obj 493 71 inlet;
#X obj 275 378 t b f;
#X msg 275 402 1;
#X obj 275 426 /;
#X connect 0 0 1 0;
#X connect 1 0 8 0;
#X connect 2 0 21 0;
#X connect 3 0 2 1;
#X connect 4 0 15 0;
#X connect 5 0 6 1;
#X connect 6 0 0 0;
#X connect 7 0 6 0;
#X connect 9 0 3 0;
#X connect 11 0 9 0;
#X connect 14 0 2 0;
#X connect 15 0 14 0;
#X connect 15 1 11 0;
#X connect 15 2 18 0;
#X connect 16 0 8 0;
#X connect 17 0 7 0;
#X connect 18 0 5 0;
#X connect 18 0 14 1;
#X connect 18 0 9 1;
#X connect 19 0 16 0;
#X connect 19 0 17 0;
#X connect 20 0 19 0;
#X connect 21 0 22 0;
#X connect 21 1 23 1;
#X connect 22 0 23 0;
#X connect 23 0 1 1;
#X restore 151 336 pd r;
#N canvas 0 25 1127 738 r 0;
#X obj 219 397 osc~;
#X obj 219 438 *~;
#X obj 275 354 *;
#X obj 323 330 mod 4;
#X obj 284 210 loadbang;
#X obj 234 313 + 1;
#X obj 219 352 *~;
#X obj 135 261 r~ 0-riv;
#X obj 223 487 throw~ 0-sum;
#X obj 323 297 + 0;
#X text 413 109 \$2;
#X obj 323 273 0;
#X text 382 111 \$1;
#X text 267 507 \$2;
#X obj 276 301 f;
#X obj 284 234 t b b b;
#X msg 439 375 set \$1-sum;
#X msg 179 211 set \$1-riv;
#X msg 410 143 \$1;
#X obj 493 71 inlet;
#X obj 370 138 4;
#X obj 275 378 t b f;
#X msg 275 402 1;
#X obj 275 426 /;
#X connect 0 0 1 0;
#X connect 1 0 8 0;
#X connect 2 0 21 0;
#X connect 3 0 2 1;
#X connect 4 0 15 0;
#X connect 5 0 6 1;
#X connect 6 0 0 0;
#X connect 7 0 6 0;
#X connect 9 0 3 0;
#X connect 11 0 9 0;
#X connect 14 0 2 0;
#X connect 15 0 14 0;
#X connect 15 1 11 0;
#X connect 15 2 20 0;
#X connect 16 0 8 0;
#X connect 17 0 7 0;
#X connect 18 0 16 0;
#X connect 18 0 17 0;
#X connect 19 0 18 0;
#X connect 20 0 5 0;
#X connect 20 0 14 1;
#X connect 20 0 9 1;
#X connect 21 0 22 0;
#X connect 21 1 23 1;
#X connect 22 0 23 0;
#X connect 23 0 1 1;
#X restore 151 355 pd r;
#N canvas 0 25 1127 738 r 0;
#X obj 219 397 osc~;
#X obj 219 438 *~;
#X obj 275 354 *;
#X obj 323 330 mod 4;
#X obj 284 210 loadbang;
#X obj 234 313 + 1;
#X obj 219 352 *~;
#X obj 135 261 r~ 0-riv;
#X obj 223 487 throw~ 0-sum;
#X obj 323 297 + 0;
#X text 413 109 \$2;
#X obj 323 273 0;
#X text 382 111 \$1;
#X text 267 507 \$2;
#X obj 276 301 f;
#X obj 284 234 t b b b;
#X msg 439 375 set \$1-sum;
#X msg 179 211 set \$1-riv;
#X msg 410 143 \$1;
#X obj 493 71 inlet;
#X obj 370 138 5;
#X obj 275 378 t b f;
#X msg 275 402 1;
#X obj 275 426 /;
#X connect 0 0 1 0;
#X connect 1 0 8 0;
#X connect 2 0 21 0;
#X connect 3 0 2 1;
#X connect 4 0 15 0;
#X connect 5 0 6 1;
#X connect 6 0 0 0;
#X connect 7 0 6 0;
#X connect 9 0 3 0;
#X connect 11 0 9 0;
#X connect 14 0 2 0;
#X connect 15 0 14 0;
#X connect 15 1 11 0;
#X connect 15 2 20 0;
#X connect 16 0 8 0;
#X connect 17 0 7 0;
#X connect 18 0 16 0;
#X connect 18 0 17 0;
#X connect 19 0 18 0;
#X connect 20 0 5 0;
#X connect 20 0 14 1;
#X connect 20 0 9 1;
#X connect 21 0 22 0;
#X connect 21 1 23 1;
#X connect 22 0 23 0;
#X connect 23 0 1 1;
#X restore 151 374 pd r;
#N canvas 178 146 1127 738 r 0;
#X obj 219 397 osc~;
#X obj 219 438 *~;
#X obj 275 354 *;
#X obj 323 330 mod 4;
#X obj 284 210 loadbang;
#X obj 234 313 + 1;
#X obj 219 352 *~;
#X obj 135 261 r~ 0-riv;
#X obj 223 487 throw~ 0-sum;
#X obj 323 297 + 0;
#X text 413 109 \$2;
#X obj 323 273 0;
#X text 382 111 \$1;
#X text 267 507 \$2;
#X obj 276 301 f;
#X obj 284 234 t b b b;
#X msg 439 375 set \$1-sum;
#X msg 179 211 set \$1-riv;
#X msg 410 143 \$1;
#X obj 493 71 inlet;
#X obj 369 138 6;
#X obj 275 378 t b f;
#X msg 275 402 1;
#X obj 275 426 /;
#X connect 0 0 1 0;
#X connect 1 0 8 0;
#X connect 2 0 21 0;
#X connect 3 0 2 1;
#X connect 4 0 15 0;
#X connect 5 0 6 1;
#X connect 6 0 0 0;
#X connect 7 0 6 0;
#X connect 9 0 3 0;
#X connect 11 0 9 0;
#X connect 14 0 2 0;
#X connect 15 0 14 0;
#X connect 15 1 11 0;
#X connect 15 2 20 0;
#X connect 16 0 8 0;
#X connect 17 0 7 0;
#X connect 18 0 16 0;
#X connect 18 0 17 0;
#X connect 19 0 18 0;
#X connect 20 0 5 0;
#X connect 20 0 14 1;
#X connect 20 0 9 1;
#X connect 21 0 22 0;
#X connect 21 1 23 1;
#X connect 22 0 23 0;
#X connect 23 0 1 1;
#X restore 151 393 pd r;
#N canvas 152 314 1127 738 r 0;
#X obj 219 397 osc~;
#X obj 219 438 *~;
#X obj 275 354 *;
#X obj 323 330 mod 4;
#X obj 284 210 loadbang;
#X obj 234 313 + 1;
#X obj 219 352 *~;
#X obj 135 261 r~ 0-riv;
#X obj 223 487 throw~ 0-sum;
#X obj 323 297 + 0;
#X text 413 109 \$2;
#X obj 323 273 0;
#X text 382 111 \$1;
#X text 267 507 \$2;
#X obj 276 301 f;
#X obj 284 234 t b b b;
#X msg 439 375 set \$1-sum;
#X msg 179 211 set \$1-riv;
#X obj 370 138 7;
#X obj 493 71 inlet;
#X msg 436 143 \$1;
#X obj 275 378 t b f;
#X msg 275 402 1;
#X obj 275 426 /;
#X connect 0 0 1 0;
#X connect 1 0 8 0;
#X connect 2 0 21 0;
#X connect 3 0 2 1;
#X connect 4 0 15 0;
#X connect 5 0 6 1;
#X connect 6 0 0 0;
#X connect 7 0 6 0;
#X connect 9 0 3 0;
#X connect 11 0 9 0;
#X connect 14 0 2 0;
#X connect 15 0 14 0;
#X connect 15 1 11 0;
#X connect 15 2 18 0;
#X connect 16 0 8 0;
#X connect 17 0 7 0;
#X connect 18 0 5 0;
#X connect 18 0 14 1;
#X connect 18 0 9 1;
#X connect 19 0 20 0;
#X connect 20 0 16 0;
#X connect 20 0 17 0;
#X connect 21 0 22 0;
#X connect 21 1 23 1;
#X connect 22 0 23 0;
#X connect 23 0 1 1;
#X restore 151 412 pd r;
#X obj 56 193 throw~ allsum2;
#X obj 56 157 *~ 0.05;
#X obj 692 89 r metro;
#X obj 692 113 unpack f f;
#X obj 56 133 catch~ 2-sum;
#X msg 151 131 2;
#X obj 191 133 s~ 2-riv;
#X connect 0 0 24 0;
#X connect 1 0 2 0;
#X connect 2 0 8 0;
#X connect 3 0 1 0;
#X connect 3 0 6 0;
#X connect 4 0 3 0;
#X connect 5 0 4 0;
#X connect 5 0 23 0;
#X connect 6 0 7 0;
#X connect 7 0 3 1;
#X connect 8 0 9 0;
#X connect 9 0 0 0;
#X connect 19 0 18 0;
#X connect 20 0 21 0;
#X connect 21 0 6 1;
#X connect 21 1 7 1;
#X connect 22 0 19 0;
#X connect 23 0 10 0;
#X connect 23 0 17 0;
#X connect 23 0 16 0;
#X connect 23 0 15 0;
#X connect 23 0 14 0;
#X connect 23 0 13 0;
#X connect 23 0 12 0;
#X connect 23 0 11 0;
#X restore 280 81 pd ri;
#N canvas 812 210 1108 765 ri 0;
#X obj 422 316 line~;
#X obj 518 203 random 8;
#X obj 518 227 tabread array1;
#X obj 511 139 metro 60;
#X obj 479 110 tgl 15 0 empty empty empty 17 7 0 10 -262144 -1 -1 1
1;
#X obj 151 91 loadbang;
#X obj 614 154 random 100;
#X obj 627 202 + 30;
#X obj 518 251 mtof;
#X msg 518 275 \$1 10;
#N canvas 0 25 1127 738 r 0;
#X obj 219 397 osc~;
#X obj 219 438 *~;
#X obj 275 354 *;
#X obj 323 330 mod 4;
#X obj 284 210 loadbang;
#X obj 234 313 + 1;
#X obj 219 352 *~;
#X obj 135 261 r~ 0-riv;
#X obj 223 487 throw~ 0-sum;
#X obj 370 138 0;
#X obj 323 297 + 0;
#X text 413 109 \$2;
#X obj 323 273 0;
#X text 382 111 \$1;
#X text 267 507 \$2;
#X obj 276 301 f;
#X obj 284 234 t b b b;
#X msg 439 375 set \$1-sum;
#X msg 179 211 set \$1-riv;
#X obj 493 71 inlet;
#X msg 410 143 \$1;
#X obj 275 378 t b f;
#X msg 275 402 1;
#X obj 275 426 /;
#X connect 0 0 1 0;
#X connect 1 0 8 0;
#X connect 2 0 21 0;
#X connect 3 0 2 1;
#X connect 4 0 16 0;
#X connect 5 0 6 1;
#X connect 6 0 0 0;
#X connect 7 0 6 0;
#X connect 9 0 5 0;
#X connect 9 0 15 1;
#X connect 9 0 10 1;
#X connect 10 0 3 0;
#X connect 12 0 10 0;
#X connect 15 0 2 0;
#X connect 16 0 15 0;
#X connect 16 1 12 0;
#X connect 16 2 9 0;
#X connect 17 0 8 0;
#X connect 18 0 7 0;
#X connect 19 0 20 0;
#X connect 20 0 17 0;
#X connect 20 0 18 0;
#X connect 21 0 22 0;
#X connect 21 1 23 1;
#X connect 22 0 23 0;
#X connect 23 0 1 1;
#X restore 151 279 pd r;
#N canvas 0 25 1127 738 r 0;
#X obj 219 397 osc~;
#X obj 219 438 *~;
#X obj 275 354 *;
#X obj 323 330 mod 4;
#X obj 284 210 loadbang;
#X obj 234 313 + 1;
#X obj 219 352 *~;
#X obj 135 261 r~ 0-riv;
#X obj 223 487 throw~ 0-sum;
#X obj 323 297 + 0;
#X text 413 109 \$2;
#X obj 323 273 0;
#X text 382 111 \$1;
#X text 267 507 \$2;
#X obj 276 301 f;
#X obj 284 234 t b b b;
#X msg 439 375 set \$1-sum;
#X msg 179 211 set \$1-riv;
#X obj 369 139 1;
#X msg 410 143 \$1;
#X obj 493 71 inlet;
#X obj 285 388 t b f;
#X msg 285 412 1;
#X obj 285 436 /;
#X connect 0 0 1 0;
#X connect 1 0 8 0;
#X connect 2 0 21 0;
#X connect 3 0 2 1;
#X connect 4 0 15 0;
#X connect 5 0 6 1;
#X connect 6 0 0 0;
#X connect 7 0 6 0;
#X connect 9 0 3 0;
#X connect 11 0 9 0;
#X connect 14 0 2 0;
#X connect 15 0 14 0;
#X connect 15 1 11 0;
#X connect 15 2 18 0;
#X connect 16 0 8 0;
#X connect 17 0 7 0;
#X connect 18 0 5 0;
#X connect 18 0 14 1;
#X connect 18 0 9 1;
#X connect 19 0 16 0;
#X connect 19 0 17 0;
#X connect 20 0 19 0;
#X connect 21 0 22 0;
#X connect 21 1 23 1;
#X connect 22 0 23 0;
#X connect 23 0 1 1;
#X restore 151 298 pd r;
#N canvas 0 25 1127 738 r 0;
#X obj 219 397 osc~;
#X obj 219 438 *~;
#X obj 275 354 *;
#X obj 323 330 mod 4;
#X obj 284 210 loadbang;
#X obj 234 313 + 1;
#X obj 219 352 *~;
#X obj 135 261 r~ 0-riv;
#X obj 223 487 throw~ 0-sum;
#X obj 323 297 + 0;
#X text 413 109 \$2;
#X obj 323 273 0;
#X text 382 111 \$1;
#X text 267 507 \$2;
#X obj 276 301 f;
#X obj 284 234 t b b b;
#X msg 439 375 set \$1-sum;
#X msg 179 211 set \$1-riv;
#X obj 370 138 2;
#X obj 493 71 inlet;
#X msg 410 143 \$1;
#X obj 285 388 t b f;
#X msg 285 412 1;
#X obj 285 436 /;
#X connect 0 0 1 0;
#X connect 1 0 8 0;
#X connect 2 0 21 0;
#X connect 3 0 2 1;
#X connect 4 0 15 0;
#X connect 5 0 6 1;
#X connect 6 0 0 0;
#X connect 7 0 6 0;
#X connect 9 0 3 0;
#X connect 11 0 9 0;
#X connect 14 0 2 0;
#X connect 15 0 14 0;
#X connect 15 1 11 0;
#X connect 15 2 18 0;
#X connect 16 0 8 0;
#X connect 17 0 7 0;
#X connect 18 0 5 0;
#X connect 18 0 14 1;
#X connect 18 0 9 1;
#X connect 19 0 20 0;
#X connect 20 0 16 0;
#X connect 20 0 17 0;
#X connect 21 0 22 0;
#X connect 21 1 23 1;
#X connect 22 0 23 0;
#X connect 23 0 1 1;
#X restore 151 317 pd r;
#N canvas 0 25 1127 738 r 0;
#X obj 219 397 osc~;
#X obj 219 438 *~;
#X obj 275 354 *;
#X obj 323 330 mod 4;
#X obj 284 210 loadbang;
#X obj 234 313 + 1;
#X obj 219 352 *~;
#X obj 135 261 r~ 0-riv;
#X obj 223 487 throw~ 0-sum;
#X obj 323 297 + 0;
#X text 413 109 \$2;
#X obj 323 273 0;
#X text 382 111 \$1;
#X text 267 507 \$2;
#X obj 276 301 f;
#X obj 284 234 t b b b;
#X msg 439 375 set \$1-sum;
#X msg 179 211 set \$1-riv;
#X obj 370 138 3;
#X msg 410 143 \$1;
#X obj 493 71 inlet;
#X obj 275 378 t b f;
#X msg 275 402 1;
#X obj 275 426 /;
#X connect 0 0 1 0;
#X connect 1 0 8 0;
#X connect 2 0 21 0;
#X connect 3 0 2 1;
#X connect 4 0 15 0;
#X connect 5 0 6 1;
#X connect 6 0 0 0;
#X connect 7 0 6 0;
#X connect 9 0 3 0;
#X connect 11 0 9 0;
#X connect 14 0 2 0;
#X connect 15 0 14 0;
#X connect 15 1 11 0;
#X connect 15 2 18 0;
#X connect 16 0 8 0;
#X connect 17 0 7 0;
#X connect 18 0 5 0;
#X connect 18 0 14 1;
#X connect 18 0 9 1;
#X connect 19 0 16 0;
#X connect 19 0 17 0;
#X connect 20 0 19 0;
#X connect 21 0 22 0;
#X connect 21 1 23 1;
#X connect 22 0 23 0;
#X connect 23 0 1 1;
#X restore 151 336 pd r;
#N canvas 0 25 1127 738 r 0;
#X obj 219 397 osc~;
#X obj 219 438 *~;
#X obj 275 354 *;
#X obj 323 330 mod 4;
#X obj 284 210 loadbang;
#X obj 234 313 + 1;
#X obj 219 352 *~;
#X obj 135 261 r~ 0-riv;
#X obj 223 487 throw~ 0-sum;
#X obj 323 297 + 0;
#X text 413 109 \$2;
#X obj 323 273 0;
#X text 382 111 \$1;
#X text 267 507 \$2;
#X obj 276 301 f;
#X obj 284 234 t b b b;
#X msg 439 375 set \$1-sum;
#X msg 179 211 set \$1-riv;
#X msg 410 143 \$1;
#X obj 493 71 inlet;
#X obj 370 138 4;
#X obj 275 378 t b f;
#X msg 275 402 1;
#X obj 275 426 /;
#X connect 0 0 1 0;
#X connect 1 0 8 0;
#X connect 2 0 21 0;
#X connect 3 0 2 1;
#X connect 4 0 15 0;
#X connect 5 0 6 1;
#X connect 6 0 0 0;
#X connect 7 0 6 0;
#X connect 9 0 3 0;
#X connect 11 0 9 0;
#X connect 14 0 2 0;
#X connect 15 0 14 0;
#X connect 15 1 11 0;
#X connect 15 2 20 0;
#X connect 16 0 8 0;
#X connect 17 0 7 0;
#X connect 18 0 16 0;
#X connect 18 0 17 0;
#X connect 19 0 18 0;
#X connect 20 0 5 0;
#X connect 20 0 14 1;
#X connect 20 0 9 1;
#X connect 21 0 22 0;
#X connect 21 1 23 1;
#X connect 22 0 23 0;
#X connect 23 0 1 1;
#X restore 151 355 pd r;
#N canvas 0 25 1127 738 r 0;
#X obj 219 397 osc~;
#X obj 219 438 *~;
#X obj 275 354 *;
#X obj 323 330 mod 4;
#X obj 284 210 loadbang;
#X obj 234 313 + 1;
#X obj 219 352 *~;
#X obj 135 261 r~ 0-riv;
#X obj 223 487 throw~ 0-sum;
#X obj 323 297 + 0;
#X text 413 109 \$2;
#X obj 323 273 0;
#X text 382 111 \$1;
#X text 267 507 \$2;
#X obj 276 301 f;
#X obj 284 234 t b b b;
#X msg 439 375 set \$1-sum;
#X msg 179 211 set \$1-riv;
#X msg 410 143 \$1;
#X obj 493 71 inlet;
#X obj 370 138 5;
#X obj 275 378 t b f;
#X msg 275 402 1;
#X obj 275 426 /;
#X connect 0 0 1 0;
#X connect 1 0 8 0;
#X connect 2 0 21 0;
#X connect 3 0 2 1;
#X connect 4 0 15 0;
#X connect 5 0 6 1;
#X connect 6 0 0 0;
#X connect 7 0 6 0;
#X connect 9 0 3 0;
#X connect 11 0 9 0;
#X connect 14 0 2 0;
#X connect 15 0 14 0;
#X connect 15 1 11 0;
#X connect 15 2 20 0;
#X connect 16 0 8 0;
#X connect 17 0 7 0;
#X connect 18 0 16 0;
#X connect 18 0 17 0;
#X connect 19 0 18 0;
#X connect 20 0 5 0;
#X connect 20 0 14 1;
#X connect 20 0 9 1;
#X connect 21 0 22 0;
#X connect 21 1 23 1;
#X connect 22 0 23 0;
#X connect 23 0 1 1;
#X restore 151 374 pd r;
#N canvas 178 146 1127 738 r 0;
#X obj 219 397 osc~;
#X obj 219 438 *~;
#X obj 275 354 *;
#X obj 323 330 mod 4;
#X obj 284 210 loadbang;
#X obj 234 313 + 1;
#X obj 219 352 *~;
#X obj 135 261 r~ 0-riv;
#X obj 223 487 throw~ 0-sum;
#X obj 323 297 + 0;
#X text 413 109 \$2;
#X obj 323 273 0;
#X text 382 111 \$1;
#X text 267 507 \$2;
#X obj 276 301 f;
#X obj 284 234 t b b b;
#X msg 439 375 set \$1-sum;
#X msg 179 211 set \$1-riv;
#X msg 410 143 \$1;
#X obj 493 71 inlet;
#X obj 369 138 6;
#X obj 275 378 t b f;
#X msg 275 402 1;
#X obj 275 426 /;
#X connect 0 0 1 0;
#X connect 1 0 8 0;
#X connect 2 0 21 0;
#X connect 3 0 2 1;
#X connect 4 0 15 0;
#X connect 5 0 6 1;
#X connect 6 0 0 0;
#X connect 7 0 6 0;
#X connect 9 0 3 0;
#X connect 11 0 9 0;
#X connect 14 0 2 0;
#X connect 15 0 14 0;
#X connect 15 1 11 0;
#X connect 15 2 20 0;
#X connect 16 0 8 0;
#X connect 17 0 7 0;
#X connect 18 0 16 0;
#X connect 18 0 17 0;
#X connect 19 0 18 0;
#X connect 20 0 5 0;
#X connect 20 0 14 1;
#X connect 20 0 9 1;
#X connect 21 0 22 0;
#X connect 21 1 23 1;
#X connect 22 0 23 0;
#X connect 23 0 1 1;
#X restore 151 393 pd r;
#N canvas 152 314 1127 738 r 0;
#X obj 219 397 osc~;
#X obj 219 438 *~;
#X obj 275 354 *;
#X obj 323 330 mod 4;
#X obj 284 210 loadbang;
#X obj 234 313 + 1;
#X obj 219 352 *~;
#X obj 135 261 r~ 0-riv;
#X obj 223 487 throw~ 0-sum;
#X obj 323 297 + 0;
#X text 413 109 \$2;
#X obj 323 273 0;
#X text 382 111 \$1;
#X text 267 507 \$2;
#X obj 276 301 f;
#X obj 284 234 t b b b;
#X msg 439 375 set \$1-sum;
#X msg 179 211 set \$1-riv;
#X obj 370 138 7;
#X obj 493 71 inlet;
#X msg 436 143 \$1;
#X obj 275 378 t b f;
#X msg 275 402 1;
#X obj 275 426 /;
#X connect 0 0 1 0;
#X connect 1 0 8 0;
#X connect 2 0 21 0;
#X connect 3 0 2 1;
#X connect 4 0 15 0;
#X connect 5 0 6 1;
#X connect 6 0 0 0;
#X connect 7 0 6 0;
#X connect 9 0 3 0;
#X connect 11 0 9 0;
#X connect 14 0 2 0;
#X connect 15 0 14 0;
#X connect 15 1 11 0;
#X connect 15 2 18 0;
#X connect 16 0 8 0;
#X connect 17 0 7 0;
#X connect 18 0 5 0;
#X connect 18 0 14 1;
#X connect 18 0 9 1;
#X connect 19 0 20 0;
#X connect 20 0 16 0;
#X connect 20 0 17 0;
#X connect 21 0 22 0;
#X connect 21 1 23 1;
#X connect 22 0 23 0;
#X connect 23 0 1 1;
#X restore 151 412 pd r;
#X obj 56 157 *~ 0.05;
#X obj 692 89 r metro;
#X obj 692 113 unpack f f;
#X obj 56 193 throw~ allsum;
#X obj 59 132 catch~ 3-sum;
#X msg 151 131 3;
#X obj 190 133 s~ 3-riv;
#X connect 0 0 24 0;
#X connect 1 0 2 0;
#X connect 2 0 8 0;
#X connect 3 0 1 0;
#X connect 3 0 6 0;
#X connect 4 0 3 0;
#X connect 5 0 4 0;
#X connect 5 0 23 0;
#X connect 6 0 7 0;
#X connect 7 0 3 1;
#X connect 8 0 9 0;
#X connect 9 0 0 0;
#X connect 18 0 21 0;
#X connect 19 0 20 0;
#X connect 20 0 6 1;
#X connect 20 1 7 1;
#X connect 22 0 18 0;
#X connect 23 0 10 0;
#X connect 23 0 17 0;
#X connect 23 0 16 0;
#X connect 23 0 15 0;
#X connect 23 0 14 0;
#X connect 23 0 13 0;
#X connect 23 0 12 0;
#X connect 23 0 11 0;
#X restore 280 101 pd ri;
#N canvas 812 210 1108 765 ri 0;
#X obj 422 316 line~;
#X obj 518 203 random 8;
#X obj 518 227 tabread array1;
#X obj 511 139 metro 60;
#X obj 479 110 tgl 15 0 empty empty empty 17 7 0 10 -262144 -1 -1 1
1;
#X obj 151 91 loadbang;
#X obj 614 154 random 100;
#X obj 627 202 + 30;
#X obj 518 251 mtof;
#X msg 518 275 \$1 10;
#N canvas 0 25 1127 738 r 0;
#X obj 219 397 osc~;
#X obj 219 438 *~;
#X obj 275 354 *;
#X obj 323 330 mod 4;
#X obj 284 210 loadbang;
#X obj 234 313 + 1;
#X obj 219 352 *~;
#X obj 135 261 r~ 0-riv;
#X obj 223 487 throw~ 0-sum;
#X obj 370 138 0;
#X obj 323 297 + 0;
#X text 413 109 \$2;
#X obj 323 273 0;
#X text 382 111 \$1;
#X text 267 507 \$2;
#X obj 276 301 f;
#X obj 284 234 t b b b;
#X msg 439 375 set \$1-sum;
#X msg 179 211 set \$1-riv;
#X obj 493 71 inlet;
#X msg 410 143 \$1;
#X obj 275 378 t b f;
#X msg 275 402 1;
#X obj 275 426 /;
#X connect 0 0 1 0;
#X connect 1 0 8 0;
#X connect 2 0 21 0;
#X connect 3 0 2 1;
#X connect 4 0 16 0;
#X connect 5 0 6 1;
#X connect 6 0 0 0;
#X connect 7 0 6 0;
#X connect 9 0 5 0;
#X connect 9 0 15 1;
#X connect 9 0 10 1;
#X connect 10 0 3 0;
#X connect 12 0 10 0;
#X connect 15 0 2 0;
#X connect 16 0 15 0;
#X connect 16 1 12 0;
#X connect 16 2 9 0;
#X connect 17 0 8 0;
#X connect 18 0 7 0;
#X connect 19 0 20 0;
#X connect 20 0 17 0;
#X connect 20 0 18 0;
#X connect 21 0 22 0;
#X connect 21 1 23 1;
#X connect 22 0 23 0;
#X connect 23 0 1 1;
#X restore 151 279 pd r;
#N canvas 0 25 1127 738 r 0;
#X obj 219 397 osc~;
#X obj 219 438 *~;
#X obj 275 354 *;
#X obj 323 330 mod 4;
#X obj 284 210 loadbang;
#X obj 234 313 + 1;
#X obj 219 352 *~;
#X obj 135 261 r~ 0-riv;
#X obj 223 487 throw~ 0-sum;
#X obj 323 297 + 0;
#X text 413 109 \$2;
#X obj 323 273 0;
#X text 382 111 \$1;
#X text 267 507 \$2;
#X obj 276 301 f;
#X obj 284 234 t b b b;
#X msg 439 375 set \$1-sum;
#X msg 179 211 set \$1-riv;
#X obj 369 139 1;
#X msg 410 143 \$1;
#X obj 493 71 inlet;
#X obj 285 388 t b f;
#X msg 285 412 1;
#X obj 285 436 /;
#X connect 0 0 1 0;
#X connect 1 0 8 0;
#X connect 2 0 21 0;
#X connect 3 0 2 1;
#X connect 4 0 15 0;
#X connect 5 0 6 1;
#X connect 6 0 0 0;
#X connect 7 0 6 0;
#X connect 9 0 3 0;
#X connect 11 0 9 0;
#X connect 14 0 2 0;
#X connect 15 0 14 0;
#X connect 15 1 11 0;
#X connect 15 2 18 0;
#X connect 16 0 8 0;
#X connect 17 0 7 0;
#X connect 18 0 5 0;
#X connect 18 0 14 1;
#X connect 18 0 9 1;
#X connect 19 0 16 0;
#X connect 19 0 17 0;
#X connect 20 0 19 0;
#X connect 21 0 22 0;
#X connect 21 1 23 1;
#X connect 22 0 23 0;
#X connect 23 0 1 1;
#X restore 151 298 pd r;
#N canvas 0 25 1127 738 r 0;
#X obj 219 397 osc~;
#X obj 219 438 *~;
#X obj 275 354 *;
#X obj 323 330 mod 4;
#X obj 284 210 loadbang;
#X obj 234 313 + 1;
#X obj 219 352 *~;
#X obj 135 261 r~ 0-riv;
#X obj 223 487 throw~ 0-sum;
#X obj 323 297 + 0;
#X text 413 109 \$2;
#X obj 323 273 0;
#X text 382 111 \$1;
#X text 267 507 \$2;
#X obj 276 301 f;
#X obj 284 234 t b b b;
#X msg 439 375 set \$1-sum;
#X msg 179 211 set \$1-riv;
#X obj 370 138 2;
#X obj 493 71 inlet;
#X msg 410 143 \$1;
#X obj 285 388 t b f;
#X msg 285 412 1;
#X obj 285 436 /;
#X connect 0 0 1 0;
#X connect 1 0 8 0;
#X connect 2 0 21 0;
#X connect 3 0 2 1;
#X connect 4 0 15 0;
#X connect 5 0 6 1;
#X connect 6 0 0 0;
#X connect 7 0 6 0;
#X connect 9 0 3 0;
#X connect 11 0 9 0;
#X connect 14 0 2 0;
#X connect 15 0 14 0;
#X connect 15 1 11 0;
#X connect 15 2 18 0;
#X connect 16 0 8 0;
#X connect 17 0 7 0;
#X connect 18 0 5 0;
#X connect 18 0 14 1;
#X connect 18 0 9 1;
#X connect 19 0 20 0;
#X connect 20 0 16 0;
#X connect 20 0 17 0;
#X connect 21 0 22 0;
#X connect 21 1 23 1;
#X connect 22 0 23 0;
#X connect 23 0 1 1;
#X restore 151 317 pd r;
#N canvas 0 25 1127 738 r 0;
#X obj 219 397 osc~;
#X obj 219 438 *~;
#X obj 275 354 *;
#X obj 323 330 mod 4;
#X obj 284 210 loadbang;
#X obj 234 313 + 1;
#X obj 219 352 *~;
#X obj 135 261 r~ 0-riv;
#X obj 223 487 throw~ 0-sum;
#X obj 323 297 + 0;
#X text 413 109 \$2;
#X obj 323 273 0;
#X text 382 111 \$1;
#X text 267 507 \$2;
#X obj 276 301 f;
#X obj 284 234 t b b b;
#X msg 439 375 set \$1-sum;
#X msg 179 211 set \$1-riv;
#X obj 370 138 3;
#X msg 410 143 \$1;
#X obj 493 71 inlet;
#X obj 275 378 t b f;
#X msg 275 402 1;
#X obj 275 426 /;
#X connect 0 0 1 0;
#X connect 1 0 8 0;
#X connect 2 0 21 0;
#X connect 3 0 2 1;
#X connect 4 0 15 0;
#X connect 5 0 6 1;
#X connect 6 0 0 0;
#X connect 7 0 6 0;
#X connect 9 0 3 0;
#X connect 11 0 9 0;
#X connect 14 0 2 0;
#X connect 15 0 14 0;
#X connect 15 1 11 0;
#X connect 15 2 18 0;
#X connect 16 0 8 0;
#X connect 17 0 7 0;
#X connect 18 0 5 0;
#X connect 18 0 14 1;
#X connect 18 0 9 1;
#X connect 19 0 16 0;
#X connect 19 0 17 0;
#X connect 20 0 19 0;
#X connect 21 0 22 0;
#X connect 21 1 23 1;
#X connect 22 0 23 0;
#X connect 23 0 1 1;
#X restore 151 336 pd r;
#N canvas 0 25 1127 738 r 0;
#X obj 219 397 osc~;
#X obj 219 438 *~;
#X obj 275 354 *;
#X obj 323 330 mod 4;
#X obj 284 210 loadbang;
#X obj 234 313 + 1;
#X obj 219 352 *~;
#X obj 135 261 r~ 0-riv;
#X obj 223 487 throw~ 0-sum;
#X obj 323 297 + 0;
#X text 413 109 \$2;
#X obj 323 273 0;
#X text 382 111 \$1;
#X text 267 507 \$2;
#X obj 276 301 f;
#X obj 284 234 t b b b;
#X msg 439 375 set \$1-sum;
#X msg 179 211 set \$1-riv;
#X msg 410 143 \$1;
#X obj 493 71 inlet;
#X obj 370 138 4;
#X obj 275 378 t b f;
#X msg 275 402 1;
#X obj 275 426 /;
#X connect 0 0 1 0;
#X connect 1 0 8 0;
#X connect 2 0 21 0;
#X connect 3 0 2 1;
#X connect 4 0 15 0;
#X connect 5 0 6 1;
#X connect 6 0 0 0;
#X connect 7 0 6 0;
#X connect 9 0 3 0;
#X connect 11 0 9 0;
#X connect 14 0 2 0;
#X connect 15 0 14 0;
#X connect 15 1 11 0;
#X connect 15 2 20 0;
#X connect 16 0 8 0;
#X connect 17 0 7 0;
#X connect 18 0 16 0;
#X connect 18 0 17 0;
#X connect 19 0 18 0;
#X connect 20 0 5 0;
#X connect 20 0 14 1;
#X connect 20 0 9 1;
#X connect 21 0 22 0;
#X connect 21 1 23 1;
#X connect 22 0 23 0;
#X connect 23 0 1 1;
#X restore 151 355 pd r;
#N canvas 0 25 1127 738 r 0;
#X obj 219 397 osc~;
#X obj 219 438 *~;
#X obj 275 354 *;
#X obj 323 330 mod 4;
#X obj 284 210 loadbang;
#X obj 234 313 + 1;
#X obj 219 352 *~;
#X obj 135 261 r~ 0-riv;
#X obj 223 487 throw~ 0-sum;
#X obj 323 297 + 0;
#X text 413 109 \$2;
#X obj 323 273 0;
#X text 382 111 \$1;
#X text 267 507 \$2;
#X obj 276 301 f;
#X obj 284 234 t b b b;
#X msg 439 375 set \$1-sum;
#X msg 179 211 set \$1-riv;
#X msg 410 143 \$1;
#X obj 493 71 inlet;
#X obj 370 138 5;
#X obj 275 378 t b f;
#X msg 275 402 1;
#X obj 275 426 /;
#X connect 0 0 1 0;
#X connect 1 0 8 0;
#X connect 2 0 21 0;
#X connect 3 0 2 1;
#X connect 4 0 15 0;
#X connect 5 0 6 1;
#X connect 6 0 0 0;
#X connect 7 0 6 0;
#X connect 9 0 3 0;
#X connect 11 0 9 0;
#X connect 14 0 2 0;
#X connect 15 0 14 0;
#X connect 15 1 11 0;
#X connect 15 2 20 0;
#X connect 16 0 8 0;
#X connect 17 0 7 0;
#X connect 18 0 16 0;
#X connect 18 0 17 0;
#X connect 19 0 18 0;
#X connect 20 0 5 0;
#X connect 20 0 14 1;
#X connect 20 0 9 1;
#X connect 21 0 22 0;
#X connect 21 1 23 1;
#X connect 22 0 23 0;
#X connect 23 0 1 1;
#X restore 151 374 pd r;
#N canvas 178 146 1127 738 r 0;
#X obj 219 397 osc~;
#X obj 219 438 *~;
#X obj 275 354 *;
#X obj 323 330 mod 4;
#X obj 284 210 loadbang;
#X obj 234 313 + 1;
#X obj 219 352 *~;
#X obj 135 261 r~ 0-riv;
#X obj 223 487 throw~ 0-sum;
#X obj 323 297 + 0;
#X text 413 109 \$2;
#X obj 323 273 0;
#X text 382 111 \$1;
#X text 267 507 \$2;
#X obj 276 301 f;
#X obj 284 234 t b b b;
#X msg 439 375 set \$1-sum;
#X msg 179 211 set \$1-riv;
#X msg 410 143 \$1;
#X obj 493 71 inlet;
#X obj 369 138 6;
#X obj 275 378 t b f;
#X msg 275 402 1;
#X obj 275 426 /;
#X connect 0 0 1 0;
#X connect 1 0 8 0;
#X connect 2 0 21 0;
#X connect 3 0 2 1;
#X connect 4 0 15 0;
#X connect 5 0 6 1;
#X connect 6 0 0 0;
#X connect 7 0 6 0;
#X connect 9 0 3 0;
#X connect 11 0 9 0;
#X connect 14 0 2 0;
#X connect 15 0 14 0;
#X connect 15 1 11 0;
#X connect 15 2 20 0;
#X connect 16 0 8 0;
#X connect 17 0 7 0;
#X connect 18 0 16 0;
#X connect 18 0 17 0;
#X connect 19 0 18 0;
#X connect 20 0 5 0;
#X connect 20 0 14 1;
#X connect 20 0 9 1;
#X connect 21 0 22 0;
#X connect 21 1 23 1;
#X connect 22 0 23 0;
#X connect 23 0 1 1;
#X restore 151 393 pd r;
#N canvas 152 314 1127 738 r 0;
#X obj 219 397 osc~;
#X obj 219 438 *~;
#X obj 275 354 *;
#X obj 323 330 mod 4;
#X obj 284 210 loadbang;
#X obj 234 313 + 1;
#X obj 219 352 *~;
#X obj 135 261 r~ 0-riv;
#X obj 223 487 throw~ 0-sum;
#X obj 323 297 + 0;
#X text 413 109 \$2;
#X obj 323 273 0;
#X text 382 111 \$1;
#X text 267 507 \$2;
#X obj 276 301 f;
#X obj 284 234 t b b b;
#X msg 439 375 set \$1-sum;
#X msg 179 211 set \$1-riv;
#X obj 370 138 7;
#X obj 493 71 inlet;
#X msg 436 143 \$1;
#X obj 275 378 t b f;
#X msg 275 402 1;
#X obj 275 426 /;
#X connect 0 0 1 0;
#X connect 1 0 8 0;
#X connect 2 0 21 0;
#X connect 3 0 2 1;
#X connect 4 0 15 0;
#X connect 5 0 6 1;
#X connect 6 0 0 0;
#X connect 7 0 6 0;
#X connect 9 0 3 0;
#X connect 11 0 9 0;
#X connect 14 0 2 0;
#X connect 15 0 14 0;
#X connect 15 1 11 0;
#X connect 15 2 18 0;
#X connect 16 0 8 0;
#X connect 17 0 7 0;
#X connect 18 0 5 0;
#X connect 18 0 14 1;
#X connect 18 0 9 1;
#X connect 19 0 20 0;
#X connect 20 0 16 0;
#X connect 20 0 17 0;
#X connect 21 0 22 0;
#X connect 21 1 23 1;
#X connect 22 0 23 0;
#X connect 23 0 1 1;
#X restore 151 412 pd r;
#X obj 56 157 *~ 0.05;
#X obj 692 89 r metro;
#X obj 692 113 unpack f f;
#X obj 56 133 catch~ 4-sum;
#X obj 56 193 throw~ allsum;
#X msg 151 131 4;
#X obj 190 133 s~ 4-riv;
#X connect 0 0 24 0;
#X connect 1 0 2 0;
#X connect 2 0 8 0;
#X connect 3 0 1 0;
#X connect 3 0 6 0;
#X connect 4 0 3 0;
#X connect 5 0 4 0;
#X connect 5 0 23 0;
#X connect 6 0 7 0;
#X connect 7 0 3 1;
#X connect 8 0 9 0;
#X connect 9 0 0 0;
#X connect 18 0 22 0;
#X connect 19 0 20 0;
#X connect 20 0 6 1;
#X connect 20 1 7 1;
#X connect 21 0 18 0;
#X connect 23 0 10 0;
#X connect 23 0 17 0;
#X connect 23 0 16 0;
#X connect 23 0 15 0;
#X connect 23 0 14 0;
#X connect 23 0 13 0;
#X connect 23 0 12 0;
#X connect 23 0 11 0;
#X restore 280 121 pd ri;
#N canvas 812 210 1108 765 ri 0;
#X obj 422 316 line~;
#X obj 518 203 random 8;
#X obj 518 227 tabread array1;
#X obj 511 139 metro 60;
#X obj 479 110 tgl 15 0 empty empty empty 17 7 0 10 -262144 -1 -1 1
1;
#X obj 151 91 loadbang;
#X obj 614 154 random 100;
#X obj 627 202 + 30;
#X obj 518 251 mtof;
#X msg 518 275 \$1 10;
#N canvas 0 25 1127 738 r 0;
#X obj 219 397 osc~;
#X obj 219 438 *~;
#X obj 275 354 *;
#X obj 323 330 mod 4;
#X obj 284 210 loadbang;
#X obj 234 313 + 1;
#X obj 219 352 *~;
#X obj 135 261 r~ 0-riv;
#X obj 223 487 throw~ 0-sum;
#X obj 370 138 0;
#X obj 323 297 + 0;
#X text 413 109 \$2;
#X obj 323 273 0;
#X text 382 111 \$1;
#X text 267 507 \$2;
#X obj 276 301 f;
#X obj 284 234 t b b b;
#X msg 439 375 set \$1-sum;
#X msg 179 211 set \$1-riv;
#X obj 493 71 inlet;
#X msg 410 143 \$1;
#X obj 275 378 t b f;
#X msg 275 402 1;
#X obj 275 426 /;
#X connect 0 0 1 0;
#X connect 1 0 8 0;
#X connect 2 0 21 0;
#X connect 3 0 2 1;
#X connect 4 0 16 0;
#X connect 5 0 6 1;
#X connect 6 0 0 0;
#X connect 7 0 6 0;
#X connect 9 0 5 0;
#X connect 9 0 15 1;
#X connect 9 0 10 1;
#X connect 10 0 3 0;
#X connect 12 0 10 0;
#X connect 15 0 2 0;
#X connect 16 0 15 0;
#X connect 16 1 12 0;
#X connect 16 2 9 0;
#X connect 17 0 8 0;
#X connect 18 0 7 0;
#X connect 19 0 20 0;
#X connect 20 0 17 0;
#X connect 20 0 18 0;
#X connect 21 0 22 0;
#X connect 21 1 23 1;
#X connect 22 0 23 0;
#X connect 23 0 1 1;
#X restore 151 279 pd r;
#N canvas 0 25 1127 738 r 0;
#X obj 219 397 osc~;
#X obj 219 438 *~;
#X obj 275 354 *;
#X obj 323 330 mod 4;
#X obj 284 210 loadbang;
#X obj 234 313 + 1;
#X obj 219 352 *~;
#X obj 135 261 r~ 0-riv;
#X obj 223 487 throw~ 0-sum;
#X obj 323 297 + 0;
#X text 413 109 \$2;
#X obj 323 273 0;
#X text 382 111 \$1;
#X text 267 507 \$2;
#X obj 276 301 f;
#X obj 284 234 t b b b;
#X msg 439 375 set \$1-sum;
#X msg 179 211 set \$1-riv;
#X obj 369 139 1;
#X msg 410 143 \$1;
#X obj 493 71 inlet;
#X obj 285 388 t b f;
#X msg 285 412 1;
#X obj 285 436 /;
#X connect 0 0 1 0;
#X connect 1 0 8 0;
#X connect 2 0 21 0;
#X connect 3 0 2 1;
#X connect 4 0 15 0;
#X connect 5 0 6 1;
#X connect 6 0 0 0;
#X connect 7 0 6 0;
#X connect 9 0 3 0;
#X connect 11 0 9 0;
#X connect 14 0 2 0;
#X connect 15 0 14 0;
#X connect 15 1 11 0;
#X connect 15 2 18 0;
#X connect 16 0 8 0;
#X connect 17 0 7 0;
#X connect 18 0 5 0;
#X connect 18 0 14 1;
#X connect 18 0 9 1;
#X connect 19 0 16 0;
#X connect 19 0 17 0;
#X connect 20 0 19 0;
#X connect 21 0 22 0;
#X connect 21 1 23 1;
#X connect 22 0 23 0;
#X connect 23 0 1 1;
#X restore 151 298 pd r;
#N canvas 0 25 1127 738 r 0;
#X obj 219 397 osc~;
#X obj 219 438 *~;
#X obj 275 354 *;
#X obj 323 330 mod 4;
#X obj 284 210 loadbang;
#X obj 234 313 + 1;
#X obj 219 352 *~;
#X obj 135 261 r~ 0-riv;
#X obj 223 487 throw~ 0-sum;
#X obj 323 297 + 0;
#X text 413 109 \$2;
#X obj 323 273 0;
#X text 382 111 \$1;
#X text 267 507 \$2;
#X obj 276 301 f;
#X obj 284 234 t b b b;
#X msg 439 375 set \$1-sum;
#X msg 179 211 set \$1-riv;
#X obj 370 138 2;
#X obj 493 71 inlet;
#X msg 410 143 \$1;
#X obj 285 388 t b f;
#X msg 285 412 1;
#X obj 285 436 /;
#X connect 0 0 1 0;
#X connect 1 0 8 0;
#X connect 2 0 21 0;
#X connect 3 0 2 1;
#X connect 4 0 15 0;
#X connect 5 0 6 1;
#X connect 6 0 0 0;
#X connect 7 0 6 0;
#X connect 9 0 3 0;
#X connect 11 0 9 0;
#X connect 14 0 2 0;
#X connect 15 0 14 0;
#X connect 15 1 11 0;
#X connect 15 2 18 0;
#X connect 16 0 8 0;
#X connect 17 0 7 0;
#X connect 18 0 5 0;
#X connect 18 0 14 1;
#X connect 18 0 9 1;
#X connect 19 0 20 0;
#X connect 20 0 16 0;
#X connect 20 0 17 0;
#X connect 21 0 22 0;
#X connect 21 1 23 1;
#X connect 22 0 23 0;
#X connect 23 0 1 1;
#X restore 151 317 pd r;
#N canvas 0 25 1127 738 r 0;
#X obj 219 397 osc~;
#X obj 219 438 *~;
#X obj 275 354 *;
#X obj 323 330 mod 4;
#X obj 284 210 loadbang;
#X obj 234 313 + 1;
#X obj 219 352 *~;
#X obj 135 261 r~ 0-riv;
#X obj 223 487 throw~ 0-sum;
#X obj 323 297 + 0;
#X text 413 109 \$2;
#X obj 323 273 0;
#X text 382 111 \$1;
#X text 267 507 \$2;
#X obj 276 301 f;
#X obj 284 234 t b b b;
#X msg 439 375 set \$1-sum;
#X msg 179 211 set \$1-riv;
#X obj 370 138 3;
#X msg 410 143 \$1;
#X obj 493 71 inlet;
#X obj 275 378 t b f;
#X msg 275 402 1;
#X obj 275 426 /;
#X connect 0 0 1 0;
#X connect 1 0 8 0;
#X connect 2 0 21 0;
#X connect 3 0 2 1;
#X connect 4 0 15 0;
#X connect 5 0 6 1;
#X connect 6 0 0 0;
#X connect 7 0 6 0;
#X connect 9 0 3 0;
#X connect 11 0 9 0;
#X connect 14 0 2 0;
#X connect 15 0 14 0;
#X connect 15 1 11 0;
#X connect 15 2 18 0;
#X connect 16 0 8 0;
#X connect 17 0 7 0;
#X connect 18 0 5 0;
#X connect 18 0 14 1;
#X connect 18 0 9 1;
#X connect 19 0 16 0;
#X connect 19 0 17 0;
#X connect 20 0 19 0;
#X connect 21 0 22 0;
#X connect 21 1 23 1;
#X connect 22 0 23 0;
#X connect 23 0 1 1;
#X restore 151 336 pd r;
#N canvas 0 25 1127 738 r 0;
#X obj 219 397 osc~;
#X obj 219 438 *~;
#X obj 275 354 *;
#X obj 323 330 mod 4;
#X obj 284 210 loadbang;
#X obj 234 313 + 1;
#X obj 219 352 *~;
#X obj 135 261 r~ 0-riv;
#X obj 223 487 throw~ 0-sum;
#X obj 323 297 + 0;
#X text 413 109 \$2;
#X obj 323 273 0;
#X text 382 111 \$1;
#X text 267 507 \$2;
#X obj 276 301 f;
#X obj 284 234 t b b b;
#X msg 439 375 set \$1-sum;
#X msg 179 211 set \$1-riv;
#X msg 410 143 \$1;
#X obj 493 71 inlet;
#X obj 370 138 4;
#X obj 275 378 t b f;
#X msg 275 402 1;
#X obj 275 426 /;
#X connect 0 0 1 0;
#X connect 1 0 8 0;
#X connect 2 0 21 0;
#X connect 3 0 2 1;
#X connect 4 0 15 0;
#X connect 5 0 6 1;
#X connect 6 0 0 0;
#X connect 7 0 6 0;
#X connect 9 0 3 0;
#X connect 11 0 9 0;
#X connect 14 0 2 0;
#X connect 15 0 14 0;
#X connect 15 1 11 0;
#X connect 15 2 20 0;
#X connect 16 0 8 0;
#X connect 17 0 7 0;
#X connect 18 0 16 0;
#X connect 18 0 17 0;
#X connect 19 0 18 0;
#X connect 20 0 5 0;
#X connect 20 0 14 1;
#X connect 20 0 9 1;
#X connect 21 0 22 0;
#X connect 21 1 23 1;
#X connect 22 0 23 0;
#X connect 23 0 1 1;
#X restore 151 355 pd r;
#N canvas 0 25 1127 738 r 0;
#X obj 219 397 osc~;
#X obj 219 438 *~;
#X obj 275 354 *;
#X obj 323 330 mod 4;
#X obj 284 210 loadbang;
#X obj 234 313 + 1;
#X obj 219 352 *~;
#X obj 135 261 r~ 0-riv;
#X obj 223 487 throw~ 0-sum;
#X obj 323 297 + 0;
#X text 413 109 \$2;
#X obj 323 273 0;
#X text 382 111 \$1;
#X text 267 507 \$2;
#X obj 276 301 f;
#X obj 284 234 t b b b;
#X msg 439 375 set \$1-sum;
#X msg 179 211 set \$1-riv;
#X msg 410 143 \$1;
#X obj 493 71 inlet;
#X obj 370 138 5;
#X obj 275 378 t b f;
#X msg 275 402 1;
#X obj 275 426 /;
#X connect 0 0 1 0;
#X connect 1 0 8 0;
#X connect 2 0 21 0;
#X connect 3 0 2 1;
#X connect 4 0 15 0;
#X connect 5 0 6 1;
#X connect 6 0 0 0;
#X connect 7 0 6 0;
#X connect 9 0 3 0;
#X connect 11 0 9 0;
#X connect 14 0 2 0;
#X connect 15 0 14 0;
#X connect 15 1 11 0;
#X connect 15 2 20 0;
#X connect 16 0 8 0;
#X connect 17 0 7 0;
#X connect 18 0 16 0;
#X connect 18 0 17 0;
#X connect 19 0 18 0;
#X connect 20 0 5 0;
#X connect 20 0 14 1;
#X connect 20 0 9 1;
#X connect 21 0 22 0;
#X connect 21 1 23 1;
#X connect 22 0 23 0;
#X connect 23 0 1 1;
#X restore 151 374 pd r;
#N canvas 178 146 1127 738 r 0;
#X obj 219 397 osc~;
#X obj 219 438 *~;
#X obj 275 354 *;
#X obj 323 330 mod 4;
#X obj 284 210 loadbang;
#X obj 234 313 + 1;
#X obj 219 352 *~;
#X obj 135 261 r~ 0-riv;
#X obj 223 487 throw~ 0-sum;
#X obj 323 297 + 0;
#X text 413 109 \$2;
#X obj 323 273 0;
#X text 382 111 \$1;
#X text 267 507 \$2;
#X obj 276 301 f;
#X obj 284 234 t b b b;
#X msg 439 375 set \$1-sum;
#X msg 179 211 set \$1-riv;
#X msg 410 143 \$1;
#X obj 493 71 inlet;
#X obj 369 138 6;
#X obj 275 378 t b f;
#X msg 275 402 1;
#X obj 275 426 /;
#X connect 0 0 1 0;
#X connect 1 0 8 0;
#X connect 2 0 21 0;
#X connect 3 0 2 1;
#X connect 4 0 15 0;
#X connect 5 0 6 1;
#X connect 6 0 0 0;
#X connect 7 0 6 0;
#X connect 9 0 3 0;
#X connect 11 0 9 0;
#X connect 14 0 2 0;
#X connect 15 0 14 0;
#X connect 15 1 11 0;
#X connect 15 2 20 0;
#X connect 16 0 8 0;
#X connect 17 0 7 0;
#X connect 18 0 16 0;
#X connect 18 0 17 0;
#X connect 19 0 18 0;
#X connect 20 0 5 0;
#X connect 20 0 14 1;
#X connect 20 0 9 1;
#X connect 21 0 22 0;
#X connect 21 1 23 1;
#X connect 22 0 23 0;
#X connect 23 0 1 1;
#X restore 151 393 pd r;
#N canvas 152 314 1127 738 r 0;
#X obj 219 397 osc~;
#X obj 219 438 *~;
#X obj 275 354 *;
#X obj 323 330 mod 4;
#X obj 284 210 loadbang;
#X obj 234 313 + 1;
#X obj 219 352 *~;
#X obj 135 261 r~ 0-riv;
#X obj 223 487 throw~ 0-sum;
#X obj 323 297 + 0;
#X text 413 109 \$2;
#X obj 323 273 0;
#X text 382 111 \$1;
#X text 267 507 \$2;
#X obj 276 301 f;
#X obj 284 234 t b b b;
#X msg 439 375 set \$1-sum;
#X msg 179 211 set \$1-riv;
#X obj 370 138 7;
#X obj 493 71 inlet;
#X msg 436 143 \$1;
#X obj 275 378 t b f;
#X msg 275 402 1;
#X obj 275 426 /;
#X connect 0 0 1 0;
#X connect 1 0 8 0;
#X connect 2 0 21 0;
#X connect 3 0 2 1;
#X connect 4 0 15 0;
#X connect 5 0 6 1;
#X connect 6 0 0 0;
#X connect 7 0 6 0;
#X connect 9 0 3 0;
#X connect 11 0 9 0;
#X connect 14 0 2 0;
#X connect 15 0 14 0;
#X connect 15 1 11 0;
#X connect 15 2 18 0;
#X connect 16 0 8 0;
#X connect 17 0 7 0;
#X connect 18 0 5 0;
#X connect 18 0 14 1;
#X connect 18 0 9 1;
#X connect 19 0 20 0;
#X connect 20 0 16 0;
#X connect 20 0 17 0;
#X connect 21 0 22 0;
#X connect 21 1 23 1;
#X connect 22 0 23 0;
#X connect 23 0 1 1;
#X restore 151 412 pd r;
#X obj 56 193 throw~ allsum2;
#X obj 56 157 *~ 0.05;
#X obj 692 89 r metro;
#X obj 692 113 unpack f f;
#X obj 56 133 catch~ 5-sum;
#X msg 151 131 5;
#X obj 190 133 s~ 5-riv;
#X connect 0 0 24 0;
#X connect 1 0 2 0;
#X connect 2 0 8 0;
#X connect 3 0 1 0;
#X connect 3 0 6 0;
#X connect 4 0 3 0;
#X connect 5 0 4 0;
#X connect 5 0 23 0;
#X connect 6 0 7 0;
#X connect 7 0 3 1;
#X connect 8 0 9 0;
#X connect 9 0 0 0;
#X connect 19 0 18 0;
#X connect 20 0 21 0;
#X connect 21 0 6 1;
#X connect 21 1 7 1;
#X connect 22 0 19 0;
#X connect 23 0 10 0;
#X connect 23 0 17 0;
#X connect 23 0 16 0;
#X connect 23 0 15 0;
#X connect 23 0 14 0;
#X connect 23 0 13 0;
#X connect 23 0 12 0;
#X connect 23 0 11 0;
#X restore 280 141 pd ri;
#N canvas 812 210 1108 765 ri 0;
#X obj 422 316 line~;
#X obj 518 203 random 8;
#X obj 518 227 tabread array1;
#X obj 511 139 metro 60;
#X obj 479 110 tgl 15 0 empty empty empty 17 7 0 10 -262144 -1 -1 1
1;
#X obj 151 91 loadbang;
#X obj 614 154 random 100;
#X obj 627 202 + 30;
#X obj 518 251 mtof;
#X msg 518 275 \$1 10;
#N canvas 0 25 1127 738 r 0;
#X obj 219 397 osc~;
#X obj 219 438 *~;
#X obj 275 354 *;
#X obj 323 330 mod 4;
#X obj 284 210 loadbang;
#X obj 234 313 + 1;
#X obj 219 352 *~;
#X obj 135 261 r~ 0-riv;
#X obj 223 487 throw~ 0-sum;
#X obj 370 138 0;
#X obj 323 297 + 0;
#X text 413 109 \$2;
#X obj 323 273 0;
#X text 382 111 \$1;
#X text 267 507 \$2;
#X obj 276 301 f;
#X obj 284 234 t b b b;
#X msg 439 375 set \$1-sum;
#X msg 179 211 set \$1-riv;
#X obj 493 71 inlet;
#X msg 410 143 \$1;
#X obj 275 378 t b f;
#X msg 275 402 1;
#X obj 275 426 /;
#X connect 0 0 1 0;
#X connect 1 0 8 0;
#X connect 2 0 21 0;
#X connect 3 0 2 1;
#X connect 4 0 16 0;
#X connect 5 0 6 1;
#X connect 6 0 0 0;
#X connect 7 0 6 0;
#X connect 9 0 5 0;
#X connect 9 0 15 1;
#X connect 9 0 10 1;
#X connect 10 0 3 0;
#X connect 12 0 10 0;
#X connect 15 0 2 0;
#X connect 16 0 15 0;
#X connect 16 1 12 0;
#X connect 16 2 9 0;
#X connect 17 0 8 0;
#X connect 18 0 7 0;
#X connect 19 0 20 0;
#X connect 20 0 17 0;
#X connect 20 0 18 0;
#X connect 21 0 22 0;
#X connect 21 1 23 1;
#X connect 22 0 23 0;
#X connect 23 0 1 1;
#X restore 151 279 pd r;
#N canvas 0 25 1127 738 r 0;
#X obj 219 397 osc~;
#X obj 219 438 *~;
#X obj 275 354 *;
#X obj 323 330 mod 4;
#X obj 284 210 loadbang;
#X obj 234 313 + 1;
#X obj 219 352 *~;
#X obj 135 261 r~ 0-riv;
#X obj 223 487 throw~ 0-sum;
#X obj 323 297 + 0;
#X text 413 109 \$2;
#X obj 323 273 0;
#X text 382 111 \$1;
#X text 267 507 \$2;
#X obj 276 301 f;
#X obj 284 234 t b b b;
#X msg 439 375 set \$1-sum;
#X msg 179 211 set \$1-riv;
#X obj 369 139 1;
#X msg 410 143 \$1;
#X obj 493 71 inlet;
#X obj 285 388 t b f;
#X msg 285 412 1;
#X obj 285 436 /;
#X connect 0 0 1 0;
#X connect 1 0 8 0;
#X connect 2 0 21 0;
#X connect 3 0 2 1;
#X connect 4 0 15 0;
#X connect 5 0 6 1;
#X connect 6 0 0 0;
#X connect 7 0 6 0;
#X connect 9 0 3 0;
#X connect 11 0 9 0;
#X connect 14 0 2 0;
#X connect 15 0 14 0;
#X connect 15 1 11 0;
#X connect 15 2 18 0;
#X connect 16 0 8 0;
#X connect 17 0 7 0;
#X connect 18 0 5 0;
#X connect 18 0 14 1;
#X connect 18 0 9 1;
#X connect 19 0 16 0;
#X connect 19 0 17 0;
#X connect 20 0 19 0;
#X connect 21 0 22 0;
#X connect 21 1 23 1;
#X connect 22 0 23 0;
#X connect 23 0 1 1;
#X restore 151 298 pd r;
#N canvas 0 25 1127 738 r 0;
#X obj 219 397 osc~;
#X obj 219 438 *~;
#X obj 275 354 *;
#X obj 323 330 mod 4;
#X obj 284 210 loadbang;
#X obj 234 313 + 1;
#X obj 219 352 *~;
#X obj 135 261 r~ 0-riv;
#X obj 223 487 throw~ 0-sum;
#X obj 323 297 + 0;
#X text 413 109 \$2;
#X obj 323 273 0;
#X text 382 111 \$1;
#X text 267 507 \$2;
#X obj 276 301 f;
#X obj 284 234 t b b b;
#X msg 439 375 set \$1-sum;
#X msg 179 211 set \$1-riv;
#X obj 370 138 2;
#X obj 493 71 inlet;
#X msg 410 143 \$1;
#X obj 285 388 t b f;
#X msg 285 412 1;
#X obj 285 436 /;
#X connect 0 0 1 0;
#X connect 1 0 8 0;
#X connect 2 0 21 0;
#X connect 3 0 2 1;
#X connect 4 0 15 0;
#X connect 5 0 6 1;
#X connect 6 0 0 0;
#X connect 7 0 6 0;
#X connect 9 0 3 0;
#X connect 11 0 9 0;
#X connect 14 0 2 0;
#X connect 15 0 14 0;
#X connect 15 1 11 0;
#X connect 15 2 18 0;
#X connect 16 0 8 0;
#X connect 17 0 7 0;
#X connect 18 0 5 0;
#X connect 18 0 14 1;
#X connect 18 0 9 1;
#X connect 19 0 20 0;
#X connect 20 0 16 0;
#X connect 20 0 17 0;
#X connect 21 0 22 0;
#X connect 21 1 23 1;
#X connect 22 0 23 0;
#X connect 23 0 1 1;
#X restore 151 317 pd r;
#N canvas 0 25 1127 738 r 0;
#X obj 219 397 osc~;
#X obj 219 438 *~;
#X obj 275 354 *;
#X obj 323 330 mod 4;
#X obj 284 210 loadbang;
#X obj 234 313 + 1;
#X obj 219 352 *~;
#X obj 135 261 r~ 0-riv;
#X obj 223 487 throw~ 0-sum;
#X obj 323 297 + 0;
#X text 413 109 \$2;
#X obj 323 273 0;
#X text 382 111 \$1;
#X text 267 507 \$2;
#X obj 276 301 f;
#X obj 284 234 t b b b;
#X msg 439 375 set \$1-sum;
#X msg 179 211 set \$1-riv;
#X obj 370 138 3;
#X msg 410 143 \$1;
#X obj 493 71 inlet;
#X obj 275 378 t b f;
#X msg 275 402 1;
#X obj 275 426 /;
#X connect 0 0 1 0;
#X connect 1 0 8 0;
#X connect 2 0 21 0;
#X connect 3 0 2 1;
#X connect 4 0 15 0;
#X connect 5 0 6 1;
#X connect 6 0 0 0;
#X connect 7 0 6 0;
#X connect 9 0 3 0;
#X connect 11 0 9 0;
#X connect 14 0 2 0;
#X connect 15 0 14 0;
#X connect 15 1 11 0;
#X connect 15 2 18 0;
#X connect 16 0 8 0;
#X connect 17 0 7 0;
#X connect 18 0 5 0;
#X connect 18 0 14 1;
#X connect 18 0 9 1;
#X connect 19 0 16 0;
#X connect 19 0 17 0;
#X connect 20 0 19 0;
#X connect 21 0 22 0;
#X connect 21 1 23 1;
#X connect 22 0 23 0;
#X connect 23 0 1 1;
#X restore 151 336 pd r;
#N canvas 0 25 1127 738 r 0;
#X obj 219 397 osc~;
#X obj 219 438 *~;
#X obj 275 354 *;
#X obj 323 330 mod 4;
#X obj 284 210 loadbang;
#X obj 234 313 + 1;
#X obj 219 352 *~;
#X obj 135 261 r~ 0-riv;
#X obj 223 487 throw~ 0-sum;
#X obj 323 297 + 0;
#X text 413 109 \$2;
#X obj 323 273 0;
#X text 382 111 \$1;
#X text 267 507 \$2;
#X obj 276 301 f;
#X obj 284 234 t b b b;
#X msg 439 375 set \$1-sum;
#X msg 179 211 set \$1-riv;
#X msg 410 143 \$1;
#X obj 493 71 inlet;
#X obj 370 138 4;
#X obj 275 378 t b f;
#X msg 275 402 1;
#X obj 275 426 /;
#X connect 0 0 1 0;
#X connect 1 0 8 0;
#X connect 2 0 21 0;
#X connect 3 0 2 1;
#X connect 4 0 15 0;
#X connect 5 0 6 1;
#X connect 6 0 0 0;
#X connect 7 0 6 0;
#X connect 9 0 3 0;
#X connect 11 0 9 0;
#X connect 14 0 2 0;
#X connect 15 0 14 0;
#X connect 15 1 11 0;
#X connect 15 2 20 0;
#X connect 16 0 8 0;
#X connect 17 0 7 0;
#X connect 18 0 16 0;
#X connect 18 0 17 0;
#X connect 19 0 18 0;
#X connect 20 0 5 0;
#X connect 20 0 14 1;
#X connect 20 0 9 1;
#X connect 21 0 22 0;
#X connect 21 1 23 1;
#X connect 22 0 23 0;
#X connect 23 0 1 1;
#X restore 151 355 pd r;
#N canvas 0 25 1127 738 r 0;
#X obj 219 397 osc~;
#X obj 219 438 *~;
#X obj 275 354 *;
#X obj 323 330 mod 4;
#X obj 284 210 loadbang;
#X obj 234 313 + 1;
#X obj 219 352 *~;
#X obj 135 261 r~ 0-riv;
#X obj 223 487 throw~ 0-sum;
#X obj 323 297 + 0;
#X text 413 109 \$2;
#X obj 323 273 0;
#X text 382 111 \$1;
#X text 267 507 \$2;
#X obj 276 301 f;
#X obj 284 234 t b b b;
#X msg 439 375 set \$1-sum;
#X msg 179 211 set \$1-riv;
#X msg 410 143 \$1;
#X obj 493 71 inlet;
#X obj 370 138 5;
#X obj 275 378 t b f;
#X msg 275 402 1;
#X obj 275 426 /;
#X connect 0 0 1 0;
#X connect 1 0 8 0;
#X connect 2 0 21 0;
#X connect 3 0 2 1;
#X connect 4 0 15 0;
#X connect 5 0 6 1;
#X connect 6 0 0 0;
#X connect 7 0 6 0;
#X connect 9 0 3 0;
#X connect 11 0 9 0;
#X connect 14 0 2 0;
#X connect 15 0 14 0;
#X connect 15 1 11 0;
#X connect 15 2 20 0;
#X connect 16 0 8 0;
#X connect 17 0 7 0;
#X connect 18 0 16 0;
#X connect 18 0 17 0;
#X connect 19 0 18 0;
#X connect 20 0 5 0;
#X connect 20 0 14 1;
#X connect 20 0 9 1;
#X connect 21 0 22 0;
#X connect 21 1 23 1;
#X connect 22 0 23 0;
#X connect 23 0 1 1;
#X restore 151 374 pd r;
#N canvas 178 146 1127 738 r 0;
#X obj 219 397 osc~;
#X obj 219 438 *~;
#X obj 275 354 *;
#X obj 323 330 mod 4;
#X obj 284 210 loadbang;
#X obj 234 313 + 1;
#X obj 219 352 *~;
#X obj 135 261 r~ 0-riv;
#X obj 223 487 throw~ 0-sum;
#X obj 323 297 + 0;
#X text 413 109 \$2;
#X obj 323 273 0;
#X text 382 111 \$1;
#X text 267 507 \$2;
#X obj 276 301 f;
#X obj 284 234 t b b b;
#X msg 439 375 set \$1-sum;
#X msg 179 211 set \$1-riv;
#X msg 410 143 \$1;
#X obj 493 71 inlet;
#X obj 369 138 6;
#X obj 275 378 t b f;
#X msg 275 402 1;
#X obj 275 426 /;
#X connect 0 0 1 0;
#X connect 1 0 8 0;
#X connect 2 0 21 0;
#X connect 3 0 2 1;
#X connect 4 0 15 0;
#X connect 5 0 6 1;
#X connect 6 0 0 0;
#X connect 7 0 6 0;
#X connect 9 0 3 0;
#X connect 11 0 9 0;
#X connect 14 0 2 0;
#X connect 15 0 14 0;
#X connect 15 1 11 0;
#X connect 15 2 20 0;
#X connect 16 0 8 0;
#X connect 17 0 7 0;
#X connect 18 0 16 0;
#X connect 18 0 17 0;
#X connect 19 0 18 0;
#X connect 20 0 5 0;
#X connect 20 0 14 1;
#X connect 20 0 9 1;
#X connect 21 0 22 0;
#X connect 21 1 23 1;
#X connect 22 0 23 0;
#X connect 23 0 1 1;
#X restore 151 393 pd r;
#N canvas 152 314 1127 738 r 0;
#X obj 219 397 osc~;
#X obj 219 438 *~;
#X obj 275 354 *;
#X obj 323 330 mod 4;
#X obj 284 210 loadbang;
#X obj 234 313 + 1;
#X obj 219 352 *~;
#X obj 135 261 r~ 0-riv;
#X obj 223 487 throw~ 0-sum;
#X obj 323 297 + 0;
#X text 413 109 \$2;
#X obj 323 273 0;
#X text 382 111 \$1;
#X text 267 507 \$2;
#X obj 276 301 f;
#X obj 284 234 t b b b;
#X msg 439 375 set \$1-sum;
#X msg 179 211 set \$1-riv;
#X obj 370 138 7;
#X obj 493 71 inlet;
#X msg 436 143 \$1;
#X obj 275 378 t b f;
#X msg 275 402 1;
#X obj 275 426 /;
#X connect 0 0 1 0;
#X connect 1 0 8 0;
#X connect 2 0 21 0;
#X connect 3 0 2 1;
#X connect 4 0 15 0;
#X connect 5 0 6 1;
#X connect 6 0 0 0;
#X connect 7 0 6 0;
#X connect 9 0 3 0;
#X connect 11 0 9 0;
#X connect 14 0 2 0;
#X connect 15 0 14 0;
#X connect 15 1 11 0;
#X connect 15 2 18 0;
#X connect 16 0 8 0;
#X connect 17 0 7 0;
#X connect 18 0 5 0;
#X connect 18 0 14 1;
#X connect 18 0 9 1;
#X connect 19 0 20 0;
#X connect 20 0 16 0;
#X connect 20 0 17 0;
#X connect 21 0 22 0;
#X connect 21 1 23 1;
#X connect 22 0 23 0;
#X connect 23 0 1 1;
#X restore 151 412 pd r;
#X obj 56 193 throw~ allsum2;
#X obj 56 157 *~ 0.05;
#X obj 692 89 r metro;
#X obj 692 113 unpack f f;
#X obj 56 133 catch~ 6-sum;
#X msg 151 131 6;
#X obj 189 133 s~ 6-riv;
#X connect 0 0 24 0;
#X connect 1 0 2 0;
#X connect 2 0 8 0;
#X connect 3 0 1 0;
#X connect 3 0 6 0;
#X connect 4 0 3 0;
#X connect 5 0 4 0;
#X connect 5 0 23 0;
#X connect 6 0 7 0;
#X connect 7 0 3 1;
#X connect 8 0 9 0;
#X connect 9 0 0 0;
#X connect 19 0 18 0;
#X connect 20 0 21 0;
#X connect 21 0 6 1;
#X connect 21 1 7 1;
#X connect 22 0 19 0;
#X connect 23 0 10 0;
#X connect 23 0 17 0;
#X connect 23 0 16 0;
#X connect 23 0 15 0;
#X connect 23 0 14 0;
#X connect 23 0 13 0;
#X connect 23 0 12 0;
#X connect 23 0 11 0;
#X restore 280 161 pd ri;
#N canvas 812 210 1108 765 ri 0;
#X obj 422 316 line~;
#X obj 518 203 random 8;
#X obj 518 227 tabread array1;
#X obj 511 139 metro 60;
#X obj 479 110 tgl 15 0 empty empty empty 17 7 0 10 -262144 -1 -1 1
1;
#X obj 151 91 loadbang;
#X obj 614 154 random 100;
#X obj 627 202 + 30;
#X obj 518 251 mtof;
#X msg 518 275 \$1 10;
#N canvas 0 25 1127 738 r 0;
#X obj 219 397 osc~;
#X obj 219 438 *~;
#X obj 275 354 *;
#X obj 323 330 mod 4;
#X obj 284 210 loadbang;
#X obj 234 313 + 1;
#X obj 219 352 *~;
#X obj 135 261 r~ 0-riv;
#X obj 223 487 throw~ 0-sum;
#X obj 370 138 0;
#X obj 323 297 + 0;
#X text 413 109 \$2;
#X obj 323 273 0;
#X text 382 111 \$1;
#X text 267 507 \$2;
#X obj 276 301 f;
#X obj 284 234 t b b b;
#X msg 439 375 set \$1-sum;
#X msg 179 211 set \$1-riv;
#X obj 493 71 inlet;
#X msg 410 143 \$1;
#X obj 275 378 t b f;
#X msg 275 402 1;
#X obj 275 426 /;
#X connect 0 0 1 0;
#X connect 1 0 8 0;
#X connect 2 0 21 0;
#X connect 3 0 2 1;
#X connect 4 0 16 0;
#X connect 5 0 6 1;
#X connect 6 0 0 0;
#X connect 7 0 6 0;
#X connect 9 0 5 0;
#X connect 9 0 15 1;
#X connect 9 0 10 1;
#X connect 10 0 3 0;
#X connect 12 0 10 0;
#X connect 15 0 2 0;
#X connect 16 0 15 0;
#X connect 16 1 12 0;
#X connect 16 2 9 0;
#X connect 17 0 8 0;
#X connect 18 0 7 0;
#X connect 19 0 20 0;
#X connect 20 0 17 0;
#X connect 20 0 18 0;
#X connect 21 0 22 0;
#X connect 21 1 23 1;
#X connect 22 0 23 0;
#X connect 23 0 1 1;
#X restore 151 279 pd r;
#N canvas 0 25 1127 738 r 0;
#X obj 219 397 osc~;
#X obj 219 438 *~;
#X obj 275 354 *;
#X obj 323 330 mod 4;
#X obj 284 210 loadbang;
#X obj 234 313 + 1;
#X obj 219 352 *~;
#X obj 135 261 r~ 0-riv;
#X obj 223 487 throw~ 0-sum;
#X obj 323 297 + 0;
#X text 413 109 \$2;
#X obj 323 273 0;
#X text 382 111 \$1;
#X text 267 507 \$2;
#X obj 276 301 f;
#X obj 284 234 t b b b;
#X msg 439 375 set \$1-sum;
#X msg 179 211 set \$1-riv;
#X obj 369 139 1;
#X msg 410 143 \$1;
#X obj 493 71 inlet;
#X obj 285 388 t b f;
#X msg 285 412 1;
#X obj 285 436 /;
#X connect 0 0 1 0;
#X connect 1 0 8 0;
#X connect 2 0 21 0;
#X connect 3 0 2 1;
#X connect 4 0 15 0;
#X connect 5 0 6 1;
#X connect 6 0 0 0;
#X connect 7 0 6 0;
#X connect 9 0 3 0;
#X connect 11 0 9 0;
#X connect 14 0 2 0;
#X connect 15 0 14 0;
#X connect 15 1 11 0;
#X connect 15 2 18 0;
#X connect 16 0 8 0;
#X connect 17 0 7 0;
#X connect 18 0 5 0;
#X connect 18 0 14 1;
#X connect 18 0 9 1;
#X connect 19 0 16 0;
#X connect 19 0 17 0;
#X connect 20 0 19 0;
#X connect 21 0 22 0;
#X connect 21 1 23 1;
#X connect 22 0 23 0;
#X connect 23 0 1 1;
#X restore 151 298 pd r;
#N canvas 0 25 1127 738 r 0;
#X obj 219 397 osc~;
#X obj 219 438 *~;
#X obj 275 354 *;
#X obj 323 330 mod 4;
#X obj 284 210 loadbang;
#X obj 234 313 + 1;
#X obj 219 352 *~;
#X obj 135 261 r~ 0-riv;
#X obj 223 487 throw~ 0-sum;
#X obj 323 297 + 0;
#X text 413 109 \$2;
#X obj 323 273 0;
#X text 382 111 \$1;
#X text 267 507 \$2;
#X obj 276 301 f;
#X obj 284 234 t b b b;
#X msg 439 375 set \$1-sum;
#X msg 179 211 set \$1-riv;
#X obj 370 138 2;
#X obj 493 71 inlet;
#X msg 410 143 \$1;
#X obj 285 388 t b f;
#X msg 285 412 1;
#X obj 285 436 /;
#X connect 0 0 1 0;
#X connect 1 0 8 0;
#X connect 2 0 21 0;
#X connect 3 0 2 1;
#X connect 4 0 15 0;
#X connect 5 0 6 1;
#X connect 6 0 0 0;
#X connect 7 0 6 0;
#X connect 9 0 3 0;
#X connect 11 0 9 0;
#X connect 14 0 2 0;
#X connect 15 0 14 0;
#X connect 15 1 11 0;
#X connect 15 2 18 0;
#X connect 16 0 8 0;
#X connect 17 0 7 0;
#X connect 18 0 5 0;
#X connect 18 0 14 1;
#X connect 18 0 9 1;
#X connect 19 0 20 0;
#X connect 20 0 16 0;
#X connect 20 0 17 0;
#X connect 21 0 22 0;
#X connect 21 1 23 1;
#X connect 22 0 23 0;
#X connect 23 0 1 1;
#X restore 151 317 pd r;
#N canvas 0 25 1127 738 r 0;
#X obj 219 397 osc~;
#X obj 219 438 *~;
#X obj 275 354 *;
#X obj 323 330 mod 4;
#X obj 284 210 loadbang;
#X obj 234 313 + 1;
#X obj 219 352 *~;
#X obj 135 261 r~ 0-riv;
#X obj 223 487 throw~ 0-sum;
#X obj 323 297 + 0;
#X text 413 109 \$2;
#X obj 323 273 0;
#X text 382 111 \$1;
#X text 267 507 \$2;
#X obj 276 301 f;
#X obj 284 234 t b b b;
#X msg 439 375 set \$1-sum;
#X msg 179 211 set \$1-riv;
#X obj 370 138 3;
#X msg 410 143 \$1;
#X obj 493 71 inlet;
#X obj 275 378 t b f;
#X msg 275 402 1;
#X obj 275 426 /;
#X connect 0 0 1 0;
#X connect 1 0 8 0;
#X connect 2 0 21 0;
#X connect 3 0 2 1;
#X connect 4 0 15 0;
#X connect 5 0 6 1;
#X connect 6 0 0 0;
#X connect 7 0 6 0;
#X connect 9 0 3 0;
#X connect 11 0 9 0;
#X connect 14 0 2 0;
#X connect 15 0 14 0;
#X connect 15 1 11 0;
#X connect 15 2 18 0;
#X connect 16 0 8 0;
#X connect 17 0 7 0;
#X connect 18 0 5 0;
#X connect 18 0 14 1;
#X connect 18 0 9 1;
#X connect 19 0 16 0;
#X connect 19 0 17 0;
#X connect 20 0 19 0;
#X connect 21 0 22 0;
#X connect 21 1 23 1;
#X connect 22 0 23 0;
#X connect 23 0 1 1;
#X restore 151 336 pd r;
#N canvas 0 25 1127 738 r 0;
#X obj 219 397 osc~;
#X obj 219 438 *~;
#X obj 275 354 *;
#X obj 323 330 mod 4;
#X obj 284 210 loadbang;
#X obj 234 313 + 1;
#X obj 219 352 *~;
#X obj 135 261 r~ 0-riv;
#X obj 223 487 throw~ 0-sum;
#X obj 323 297 + 0;
#X text 413 109 \$2;
#X obj 323 273 0;
#X text 382 111 \$1;
#X text 267 507 \$2;
#X obj 276 301 f;
#X obj 284 234 t b b b;
#X msg 439 375 set \$1-sum;
#X msg 179 211 set \$1-riv;
#X msg 410 143 \$1;
#X obj 493 71 inlet;
#X obj 370 138 4;
#X obj 275 378 t b f;
#X msg 275 402 1;
#X obj 275 426 /;
#X connect 0 0 1 0;
#X connect 1 0 8 0;
#X connect 2 0 21 0;
#X connect 3 0 2 1;
#X connect 4 0 15 0;
#X connect 5 0 6 1;
#X connect 6 0 0 0;
#X connect 7 0 6 0;
#X connect 9 0 3 0;
#X connect 11 0 9 0;
#X connect 14 0 2 0;
#X connect 15 0 14 0;
#X connect 15 1 11 0;
#X connect 15 2 20 0;
#X connect 16 0 8 0;
#X connect 17 0 7 0;
#X connect 18 0 16 0;
#X connect 18 0 17 0;
#X connect 19 0 18 0;
#X connect 20 0 5 0;
#X connect 20 0 14 1;
#X connect 20 0 9 1;
#X connect 21 0 22 0;
#X connect 21 1 23 1;
#X connect 22 0 23 0;
#X connect 23 0 1 1;
#X restore 151 355 pd r;
#N canvas 0 25 1127 738 r 0;
#X obj 219 397 osc~;
#X obj 219 438 *~;
#X obj 275 354 *;
#X obj 323 330 mod 4;
#X obj 284 210 loadbang;
#X obj 234 313 + 1;
#X obj 219 352 *~;
#X obj 135 261 r~ 0-riv;
#X obj 223 487 throw~ 0-sum;
#X obj 323 297 + 0;
#X text 413 109 \$2;
#X obj 323 273 0;
#X text 382 111 \$1;
#X text 267 507 \$2;
#X obj 276 301 f;
#X obj 284 234 t b b b;
#X msg 439 375 set \$1-sum;
#X msg 179 211 set \$1-riv;
#X msg 410 143 \$1;
#X obj 493 71 inlet;
#X obj 370 138 5;
#X obj 275 378 t b f;
#X msg 275 402 1;
#X obj 275 426 /;
#X connect 0 0 1 0;
#X connect 1 0 8 0;
#X connect 2 0 21 0;
#X connect 3 0 2 1;
#X connect 4 0 15 0;
#X connect 5 0 6 1;
#X connect 6 0 0 0;
#X connect 7 0 6 0;
#X connect 9 0 3 0;
#X connect 11 0 9 0;
#X connect 14 0 2 0;
#X connect 15 0 14 0;
#X connect 15 1 11 0;
#X connect 15 2 20 0;
#X connect 16 0 8 0;
#X connect 17 0 7 0;
#X connect 18 0 16 0;
#X connect 18 0 17 0;
#X connect 19 0 18 0;
#X connect 20 0 5 0;
#X connect 20 0 14 1;
#X connect 20 0 9 1;
#X connect 21 0 22 0;
#X connect 21 1 23 1;
#X connect 22 0 23 0;
#X connect 23 0 1 1;
#X restore 151 374 pd r;
#N canvas 178 146 1127 738 r 0;
#X obj 219 397 osc~;
#X obj 219 438 *~;
#X obj 275 354 *;
#X obj 323 330 mod 4;
#X obj 284 210 loadbang;
#X obj 234 313 + 1;
#X obj 219 352 *~;
#X obj 135 261 r~ 0-riv;
#X obj 223 487 throw~ 0-sum;
#X obj 323 297 + 0;
#X text 413 109 \$2;
#X obj 323 273 0;
#X text 382 111 \$1;
#X text 267 507 \$2;
#X obj 276 301 f;
#X obj 284 234 t b b b;
#X msg 439 375 set \$1-sum;
#X msg 179 211 set \$1-riv;
#X msg 410 143 \$1;
#X obj 493 71 inlet;
#X obj 369 138 6;
#X obj 275 378 t b f;
#X msg 275 402 1;
#X obj 275 426 /;
#X connect 0 0 1 0;
#X connect 1 0 8 0;
#X connect 2 0 21 0;
#X connect 3 0 2 1;
#X connect 4 0 15 0;
#X connect 5 0 6 1;
#X connect 6 0 0 0;
#X connect 7 0 6 0;
#X connect 9 0 3 0;
#X connect 11 0 9 0;
#X connect 14 0 2 0;
#X connect 15 0 14 0;
#X connect 15 1 11 0;
#X connect 15 2 20 0;
#X connect 16 0 8 0;
#X connect 17 0 7 0;
#X connect 18 0 16 0;
#X connect 18 0 17 0;
#X connect 19 0 18 0;
#X connect 20 0 5 0;
#X connect 20 0 14 1;
#X connect 20 0 9 1;
#X connect 21 0 22 0;
#X connect 21 1 23 1;
#X connect 22 0 23 0;
#X connect 23 0 1 1;
#X restore 151 393 pd r;
#N canvas 152 314 1127 738 r 0;
#X obj 219 397 osc~;
#X obj 219 438 *~;
#X obj 275 354 *;
#X obj 323 330 mod 4;
#X obj 284 210 loadbang;
#X obj 234 313 + 1;
#X obj 219 352 *~;
#X obj 135 261 r~ 0-riv;
#X obj 223 487 throw~ 0-sum;
#X obj 323 297 + 0;
#X text 413 109 \$2;
#X obj 323 273 0;
#X text 382 111 \$1;
#X text 267 507 \$2;
#X obj 276 301 f;
#X obj 284 234 t b b b;
#X msg 439 375 set \$1-sum;
#X msg 179 211 set \$1-riv;
#X obj 370 138 7;
#X obj 493 71 inlet;
#X msg 436 143 \$1;
#X obj 275 378 t b f;
#X msg 275 402 1;
#X obj 275 426 /;
#X connect 0 0 1 0;
#X connect 1 0 8 0;
#X connect 2 0 21 0;
#X connect 3 0 2 1;
#X connect 4 0 15 0;
#X connect 5 0 6 1;
#X connect 6 0 0 0;
#X connect 7 0 6 0;
#X connect 9 0 3 0;
#X connect 11 0 9 0;
#X connect 14 0 2 0;
#X connect 15 0 14 0;
#X connect 15 1 11 0;
#X connect 15 2 18 0;
#X connect 16 0 8 0;
#X connect 17 0 7 0;
#X connect 18 0 5 0;
#X connect 18 0 14 1;
#X connect 18 0 9 1;
#X connect 19 0 20 0;
#X connect 20 0 16 0;
#X connect 20 0 17 0;
#X connect 21 0 22 0;
#X connect 21 1 23 1;
#X connect 22 0 23 0;
#X connect 23 0 1 1;
#X restore 151 412 pd r;
#X obj 56 193 throw~ allsum2;
#X obj 56 157 *~ 0.05;
#X obj 692 89 r metro;
#X obj 692 113 unpack f f;
#X obj 56 133 catch~ 7-sum;
#X msg 151 131 7;
#X obj 190 133 s~ 7-riv;
#X connect 0 0 24 0;
#X connect 1 0 2 0;
#X connect 2 0 8 0;
#X connect 3 0 1 0;
#X connect 3 0 6 0;
#X connect 4 0 3 0;
#X connect 5 0 4 0;
#X connect 5 0 23 0;
#X connect 6 0 7 0;
#X connect 7 0 3 1;
#X connect 8 0 9 0;
#X connect 9 0 0 0;
#X connect 19 0 18 0;
#X connect 20 0 21 0;
#X connect 21 0 6 1;
#X connect 21 1 7 1;
#X connect 22 0 19 0;
#X connect 23 0 10 0;
#X connect 23 0 17 0;
#X connect 23 0 16 0;
#X connect 23 0 15 0;
#X connect 23 0 14 0;
#X connect 23 0 13 0;
#X connect 23 0 12 0;
#X connect 23 0 11 0;
#X restore 280 181 pd ri;
#X obj 553 430 f;
#X obj 589 430 + 1;
#X obj 556 589 tabwrite array1;
#X obj 556 523 t b f;
#X obj 556 554 f;
#X obj 638 391 t b f;
#X floatatom 642 350 5 0 0 0 - - -;
#X obj 725 366 random 30;
#X obj 725 390 + 50;
#X obj 770 323 metro 1000;
#X obj 812 271 tgl 15 0 empty empty empty 17 7 0 10 -262144 -1 -1 0
1;
#X obj 556 486 mod 8;
#X obj 252 359 env~;
#X floatatom 252 383 5 0 0 0 - - -;
#X obj 138 284 *~ 1.5;
#X obj 223 313 *~ 1.5;
#X obj 129 65 bng 50 250 50 0 go empty empty 17 7 0 10 -130594 -20417
-1;
#X obj 815 163 bng 50 250 50 0 empty go empty 17 7 0 10 -130594 -4160
-1;
#X obj 896 262 tgl 15 0 empty empty empty 17 7 0 10 -262144 -1 -1 0
1;
#X obj 889 305 metro 1;
#X obj 913 200 loadbang;
#X msg 913 224 1;
#X obj 889 329 random 100;
#X msg 855 239 0;
#X connect 0 0 26 0;
#X connect 3 0 27 0;
#X connect 12 0 13 0;
#X connect 12 0 23 0;
#X connect 13 0 12 1;
#X connect 13 0 23 0;
#X connect 15 0 16 0;
#X connect 15 1 14 1;
#X connect 16 0 14 0;
#X connect 17 0 12 0;
#X connect 17 1 16 1;
#X connect 18 0 17 0;
#X connect 19 0 20 0;
#X connect 20 0 18 0;
#X connect 21 0 19 0;
#X connect 22 0 21 0;
#X connect 23 0 15 0;
#X connect 24 0 25 0;
#X connect 26 0 1 0;
#X connect 27 0 1 1;
#X connect 27 0 24 0;
#X connect 29 0 22 0;
#X connect 29 0 35 0;
#X connect 30 0 31 0;
#X connect 31 0 34 0;
#X connect 32 0 33 0;
#X connect 33 0 30 0;
#X connect 35 0 30 0;
