#N canvas 533 364 643 627 12;
#X msg 202 336 \$2 \$1;
#X obj 241 245 route 0 1 2 3;
#X obj 241 140 f;
#X obj 241 164 + 1;
#X obj 241 188 % 4;
#X obj 241 215 pack f f f;
#X msg 279 159 500;
#X floatatom 329 164 5 0 0 0 - - -;
#X obj 273 55 bng 15 250 50 0 empty empty empty 17 7 0 10 -262144 -1
-1;
#X obj 273 75 t b b;
#X obj 323 103 random 30;
#X obj 323 127 + 46;
#X msg 254 339 \$2 \$1;
#X msg 303 337 \$2 \$1;
#X msg 356 340 \$2 \$1;
#X obj 229 15 metro 500;
#X obj 137 31 loadbang;
#X obj 200 64 tgl 15 0 empty empty empty 17 7 0 10 -262144 -1 -1 1
1;
#N canvas 0 25 950 615 sl1 0;
#X floatatom 289 84 5 0 200 0 - - -;
#X obj 289 106 / 25;
#X floatatom 172 70 5 0 150 0 - - -;
#X obj 172 92 mtof;
#X obj 173 137 pack 0 50;
#X obj 173 162 line~;
#X floatatom 172 115 7 0 0 0 - - -;
#X obj 289 33 loadbang;
#X msg 289 58 10;
#X obj 172 21 loadbang;
#X msg 172 46 69;
#X obj 170 317 *~;
#X obj 781 291 line~;
#X obj 545 107 mtof;
#X obj 545 131 t f f, f 22;
#X obj 531 254 pack f f, f 10;
#X obj 545 197 pipe;
#X obj 612 188 * 5;
#X msg 696 162 \$1 10;
#X obj 823 178 del;
#X obj 545 83 unpack f f;
#X msg 823 202 0;
#X obj 823 226 pack f f;
#X msg 547 34 60 600;
#X msg 774 139 0.2 10;
#X obj 684 264 pack f f;
#X obj 594 155 * 1.3;
#X obj 621 36 inlet;
#X obj 545 173 / 1.04;
#X obj 62 131 adc~;
#X obj 174 235 vcf~;
#X obj 289 139 line;
#X obj 52 189 *~ 6;
#X msg 684 240 3;
#X obj 113 143 noise~;
#X obj 101 214 +~;
#X obj 113 167 *~ 0.4;
#X msg 419 107 77 10;
#X obj 181 400 outlet~;
#X connect 0 0 1 0;
#X connect 1 0 31 0;
#X connect 2 0 3 0;
#X connect 3 0 6 0;
#X connect 4 0 5 0;
#X connect 5 0 30 1;
#X connect 6 0 4 0;
#X connect 7 0 8 0;
#X connect 8 0 0 0;
#X connect 9 0 10 0;
#X connect 10 0 2 0;
#X connect 11 0 38 0;
#X connect 12 0 11 1;
#X connect 13 0 14 0;
#X connect 14 0 28 0;
#X connect 14 1 18 0;
#X connect 15 0 5 0;
#X connect 16 0 15 0;
#X connect 17 0 15 1;
#X connect 17 0 22 1;
#X connect 17 0 25 1;
#X connect 18 0 5 0;
#X connect 19 0 21 0;
#X connect 19 0 33 0;
#X connect 20 0 13 0;
#X connect 20 1 17 0;
#X connect 20 1 24 0;
#X connect 20 1 19 0;
#X connect 20 1 37 0;
#X connect 20 1 26 0;
#X connect 21 0 22 0;
#X connect 22 0 12 0;
#X connect 23 0 20 0;
#X connect 24 0 12 0;
#X connect 25 0 31 0;
#X connect 26 0 16 1;
#X connect 27 0 20 0;
#X connect 28 0 16 0;
#X connect 29 0 32 0;
#X connect 30 0 11 0;
#X connect 31 0 30 2;
#X connect 32 0 35 0;
#X connect 33 0 25 0;
#X connect 34 0 36 0;
#X connect 35 0 30 0;
#X connect 36 0 35 1;
#X connect 37 0 31 0;
#X restore 199 375 pd sl1;
#N canvas 0 25 950 615 sl1 0;
#X floatatom 289 84 5 0 200 0 - - -;
#X obj 289 106 / 25;
#X floatatom 172 70 5 0 150 0 - - -;
#X obj 172 92 mtof;
#X obj 173 137 pack 0 50;
#X obj 173 162 line~;
#X floatatom 172 115 7 0 0 0 - - -;
#X obj 289 33 loadbang;
#X msg 289 58 10;
#X obj 172 21 loadbang;
#X msg 172 46 69;
#X obj 170 317 *~;
#X obj 781 291 line~;
#X obj 545 107 mtof;
#X obj 545 131 t f f, f 22;
#X obj 531 254 pack f f, f 10;
#X obj 545 197 pipe;
#X obj 612 188 * 5;
#X msg 696 162 \$1 10;
#X obj 823 178 del;
#X obj 545 83 unpack f f;
#X msg 823 202 0;
#X obj 823 226 pack f f;
#X msg 547 34 60 600;
#X msg 774 139 0.2 10;
#X obj 684 264 pack f f;
#X obj 594 155 * 1.3;
#X obj 621 36 inlet;
#X obj 545 173 / 1.04;
#X obj 62 131 adc~;
#X obj 174 235 vcf~;
#X obj 289 139 line;
#X obj 52 189 *~ 6;
#X msg 684 240 3;
#X obj 113 143 noise~;
#X obj 101 214 +~;
#X obj 113 167 *~ 0.4;
#X msg 419 107 77 10;
#X obj 181 400 outlet~;
#X connect 0 0 1 0;
#X connect 1 0 31 0;
#X connect 2 0 3 0;
#X connect 3 0 6 0;
#X connect 4 0 5 0;
#X connect 5 0 30 1;
#X connect 6 0 4 0;
#X connect 7 0 8 0;
#X connect 8 0 0 0;
#X connect 9 0 10 0;
#X connect 10 0 2 0;
#X connect 11 0 38 0;
#X connect 12 0 11 1;
#X connect 13 0 14 0;
#X connect 14 0 28 0;
#X connect 14 1 18 0;
#X connect 15 0 5 0;
#X connect 16 0 15 0;
#X connect 17 0 15 1;
#X connect 17 0 22 1;
#X connect 17 0 25 1;
#X connect 18 0 5 0;
#X connect 19 0 21 0;
#X connect 19 0 33 0;
#X connect 20 0 13 0;
#X connect 20 1 17 0;
#X connect 20 1 24 0;
#X connect 20 1 19 0;
#X connect 20 1 37 0;
#X connect 20 1 26 0;
#X connect 21 0 22 0;
#X connect 22 0 12 0;
#X connect 23 0 20 0;
#X connect 24 0 12 0;
#X connect 25 0 31 0;
#X connect 26 0 16 1;
#X connect 27 0 20 0;
#X connect 28 0 16 0;
#X connect 29 0 32 0;
#X connect 30 0 11 0;
#X connect 31 0 30 2;
#X connect 32 0 35 0;
#X connect 33 0 25 0;
#X connect 34 0 36 0;
#X connect 35 0 30 0;
#X connect 36 0 35 1;
#X connect 37 0 31 0;
#X restore 245 375 pd sl1;
#N canvas 0 25 950 615 sl1 0;
#X floatatom 289 84 5 0 200 0 - - -;
#X obj 289 106 / 25;
#X floatatom 172 70 5 0 150 0 - - -;
#X obj 172 92 mtof;
#X obj 173 137 pack 0 50;
#X obj 173 162 line~;
#X floatatom 172 115 7 0 0 0 - - -;
#X obj 289 33 loadbang;
#X msg 289 58 10;
#X obj 172 21 loadbang;
#X msg 172 46 69;
#X obj 170 317 *~;
#X obj 781 291 line~;
#X obj 545 107 mtof;
#X obj 545 131 t f f, f 22;
#X obj 531 254 pack f f, f 10;
#X obj 545 197 pipe;
#X obj 612 188 * 5;
#X msg 696 162 \$1 10;
#X obj 823 178 del;
#X obj 545 83 unpack f f;
#X msg 823 202 0;
#X obj 823 226 pack f f;
#X msg 547 34 60 600;
#X msg 774 139 0.2 10;
#X obj 684 264 pack f f;
#X obj 594 155 * 1.3;
#X obj 621 36 inlet;
#X obj 545 173 / 1.04;
#X obj 62 131 adc~;
#X obj 174 235 vcf~;
#X obj 289 139 line;
#X obj 52 189 *~ 6;
#X msg 684 240 3;
#X obj 113 143 noise~;
#X obj 101 214 +~;
#X obj 113 167 *~ 0.4;
#X msg 419 107 77 10;
#X obj 181 400 outlet~;
#X connect 0 0 1 0;
#X connect 1 0 31 0;
#X connect 2 0 3 0;
#X connect 3 0 6 0;
#X connect 4 0 5 0;
#X connect 5 0 30 1;
#X connect 6 0 4 0;
#X connect 7 0 8 0;
#X connect 8 0 0 0;
#X connect 9 0 10 0;
#X connect 10 0 2 0;
#X connect 11 0 38 0;
#X connect 12 0 11 1;
#X connect 13 0 14 0;
#X connect 14 0 28 0;
#X connect 14 1 18 0;
#X connect 15 0 5 0;
#X connect 16 0 15 0;
#X connect 17 0 15 1;
#X connect 17 0 22 1;
#X connect 17 0 25 1;
#X connect 18 0 5 0;
#X connect 19 0 21 0;
#X connect 19 0 33 0;
#X connect 20 0 13 0;
#X connect 20 1 17 0;
#X connect 20 1 24 0;
#X connect 20 1 19 0;
#X connect 20 1 37 0;
#X connect 20 1 26 0;
#X connect 21 0 22 0;
#X connect 22 0 12 0;
#X connect 23 0 20 0;
#X connect 24 0 12 0;
#X connect 25 0 31 0;
#X connect 26 0 16 1;
#X connect 27 0 20 0;
#X connect 28 0 16 0;
#X connect 29 0 32 0;
#X connect 30 0 11 0;
#X connect 31 0 30 2;
#X connect 32 0 35 0;
#X connect 33 0 25 0;
#X connect 34 0 36 0;
#X connect 35 0 30 0;
#X connect 36 0 35 1;
#X connect 37 0 31 0;
#X restore 291 375 pd sl1;
#N canvas 0 25 950 615 sl1 0;
#X floatatom 289 84 5 0 200 0 - - -;
#X obj 289 106 / 25;
#X floatatom 172 70 5 0 150 0 - - -;
#X obj 172 92 mtof;
#X obj 173 137 pack 0 50;
#X obj 173 162 line~;
#X floatatom 172 115 7 0 0 0 - - -;
#X obj 289 33 loadbang;
#X msg 289 58 10;
#X obj 172 21 loadbang;
#X msg 172 46 69;
#X obj 170 317 *~;
#X obj 781 291 line~;
#X obj 545 107 mtof;
#X obj 545 131 t f f, f 22;
#X obj 531 254 pack f f, f 10;
#X obj 545 197 pipe;
#X obj 612 188 * 5;
#X msg 696 162 \$1 10;
#X obj 823 178 del;
#X obj 545 83 unpack f f;
#X msg 823 202 0;
#X obj 823 226 pack f f;
#X msg 547 34 60 600;
#X msg 774 139 0.2 10;
#X obj 684 264 pack f f;
#X obj 594 155 * 1.3;
#X obj 621 36 inlet;
#X obj 545 173 / 1.04;
#X obj 62 131 adc~;
#X obj 174 235 vcf~;
#X obj 289 139 line;
#X obj 52 189 *~ 6;
#X msg 684 240 3;
#X obj 113 143 noise~;
#X obj 101 214 +~;
#X obj 113 167 *~ 0.4;
#X msg 419 107 77 10;
#X obj 181 400 outlet~;
#X connect 0 0 1 0;
#X connect 1 0 31 0;
#X connect 2 0 3 0;
#X connect 3 0 6 0;
#X connect 4 0 5 0;
#X connect 5 0 30 1;
#X connect 6 0 4 0;
#X connect 7 0 8 0;
#X connect 8 0 0 0;
#X connect 9 0 10 0;
#X connect 10 0 2 0;
#X connect 11 0 38 0;
#X connect 12 0 11 1;
#X connect 13 0 14 0;
#X connect 14 0 28 0;
#X connect 14 1 18 0;
#X connect 15 0 5 0;
#X connect 16 0 15 0;
#X connect 17 0 15 1;
#X connect 17 0 22 1;
#X connect 17 0 25 1;
#X connect 18 0 5 0;
#X connect 19 0 21 0;
#X connect 19 0 33 0;
#X connect 20 0 13 0;
#X connect 20 1 17 0;
#X connect 20 1 24 0;
#X connect 20 1 19 0;
#X connect 20 1 37 0;
#X connect 20 1 26 0;
#X connect 21 0 22 0;
#X connect 22 0 12 0;
#X connect 23 0 20 0;
#X connect 24 0 12 0;
#X connect 25 0 31 0;
#X connect 26 0 16 1;
#X connect 27 0 20 0;
#X connect 28 0 16 0;
#X connect 29 0 32 0;
#X connect 30 0 11 0;
#X connect 31 0 30 2;
#X connect 32 0 35 0;
#X connect 33 0 25 0;
#X connect 34 0 36 0;
#X connect 35 0 30 0;
#X connect 36 0 35 1;
#X connect 37 0 31 0;
#X restore 337 375 pd sl1;
#X obj 249 521 dac~;
#X obj 254 432 *~ 0.76;
#X connect 0 0 18 0;
#X connect 1 0 0 0;
#X connect 1 1 12 0;
#X connect 1 2 13 0;
#X connect 1 3 14 0;
#X connect 2 0 3 0;
#X connect 3 0 2 1;
#X connect 3 0 4 0;
#X connect 4 0 5 0;
#X connect 5 0 1 0;
#X connect 6 0 5 1;
#X connect 7 0 5 2;
#X connect 8 0 9 0;
#X connect 9 0 2 0;
#X connect 9 1 10 0;
#X connect 10 0 11 0;
#X connect 11 0 7 0;
#X connect 12 0 19 0;
#X connect 13 0 20 0;
#X connect 14 0 21 0;
#X connect 15 0 8 0;
#X connect 16 0 6 0;
#X connect 16 0 17 0;
#X connect 17 0 15 0;
#X connect 18 0 22 0;
#X connect 19 0 23 0;
#X connect 20 0 23 0;
#X connect 21 0 22 1;
#X connect 23 0 22 0;
#X connect 23 0 22 1;
