#N canvas 1018 199 1542 1149 10;
#N canvas 0 22 450 278 (subpatch) 0;
#X array bank-audio 32 float 3;
#A 0 -0.7165 0.312438 0.361063 -0.96175 0.775813 -0.144875 0.399063
-0.36625 -0.149437 -0.378062 -0.0485625 0.162688 -0.543125 -0.807125
0.071125 -0.476188 -0.256562 -0.0975625 -0.755 0.8545 -0.972438 0.308187
-0.637187 -0.000249982 0.763687 -0.340312 -0.314 -0.01925 0.51225 -0.633
0.816125 -0.536125;
#X coords 0 278 1 277 200 140 0;
#X restore 1270 319 graph;
#N canvas 0 22 450 278 (subpatch) 0;
#X array bank-times 32 float 3;
#A 0 2.00784 0.984656 2.88919 0.987469 2.50434 0.491156 2.21316 2.79009
0.801844 0.175219 2.42794 0.792 0.998437 2.14294 0.556781 2.77866 0.478313
1.32066 2.14359 1.70438 0.763875 2.847 1.59047 0.349406 0.932156 1.68375
0.276281 1.10334 2.65472 2.91403 1.42566 1.56009;
#X coords 0 278 1 277 200 140 0;
#X restore 1271 482 graph;
#N canvas 0 25 408 270 load_initial_set 0;
#X obj 119 126 random 32000;
#X obj 119 147 / 16000;
#X floatatom 119 189 5 0 0 0 - - -;
#X obj 119 168 - 1;
#X obj 38 105 t b b, f 14;
#X obj 67 127 + 1;
#X floatatom 38 171 5 0 0 0 - - -;
#X obj 38 207 swap, f 14;
#X msg 38 62 32;
#X obj 38 149 % 32;
#X obj 38 127 f;
#X obj 38 84 until;
#X text 69 62 make departure set;
#X obj 38 43 bng 15 250 50 0 empty empty empty 17 7 0 10 -262144 -1
-1;
#X obj 212 104 t b b, f 14;
#X obj 241 126 + 1;
#X floatatom 212 170 5 0 0 0 - - -;
#X obj 212 225 swap, f 14;
#X msg 212 61 32;
#X obj 212 148 % 32;
#X obj 212 126 f;
#X obj 212 83 until;
#X text 243 61 make departure set;
#X obj 212 42 bng 15 250 50 0 empty empty empty 17 7 0 10 -262144 -1
-1;
#X obj 38 229 tabwrite bank-audio;
#X obj 212 246 tabwrite bank-times;
#X obj 293 165 / 32000;
#X obj 293 186 * 3;
#X obj 293 125 random 31000;
#X floatatom 293 207 5 0 0 0 - - -;
#X floatatom 337 84 5 0 0 0 - - -;
#X obj 129 5 inlet;
#X obj 129 27 t b b;
#X obj 293 145 + 1000;
#X connect 0 0 1 0;
#X connect 1 0 3 0;
#X connect 2 0 7 1;
#X connect 3 0 2 0;
#X connect 4 0 10 0;
#X connect 4 1 0 0;
#X connect 5 0 10 1;
#X connect 6 0 7 0;
#X connect 7 0 24 0;
#X connect 7 1 24 1;
#X connect 8 0 11 0;
#X connect 9 0 6 0;
#X connect 10 0 5 0;
#X connect 10 0 9 0;
#X connect 11 0 4 0;
#X connect 13 0 8 0;
#X connect 14 0 20 0;
#X connect 14 1 28 0;
#X connect 15 0 20 1;
#X connect 16 0 17 0;
#X connect 17 0 25 0;
#X connect 17 1 25 1;
#X connect 18 0 21 0;
#X connect 19 0 16 0;
#X connect 20 0 15 0;
#X connect 20 0 19 0;
#X connect 21 0 14 0;
#X connect 23 0 18 0;
#X connect 26 0 27 0;
#X connect 27 0 29 0;
#X connect 28 0 33 0;
#X connect 29 0 17 1;
#X connect 30 0 27 1;
#X connect 31 0 32 0;
#X connect 32 0 13 0;
#X connect 32 1 23 0;
#X connect 33 0 26 0;
#X restore 205 180 pd load_initial_set;
#X obj 179 389 tgl 15 0 f red empty 17 7 0 10 -262144 -1 -1 0 1;
#X obj 360 647 catch~ out;
#X obj 205 160 bng 15 250 50 0 empty empty empty 17 7 0 10 -262144
-1 -1;
#X floatatom 226 381 5 0 0 0 - - -;
#X floatatom 369 382 5 0 0 0 - - -;
#X obj 369 401 / 1000;
#X floatatom 321 381 5 0 0 0 - - -;
#X obj 321 400 / 1000;
#X floatatom 274 381 5 0 0 0 - - -;
#X obj 274 400 / 1000;
#X floatatom 274 422 5 0 0 0 - - -;
#X floatatom 321 422 5 0 0 0 - - -;
#X floatatom 369 423 5 0 0 0 - - -;
#X text 231 362 n;
#X text 275 360 a step;
#X text 323 360 t step;
#X text 370 361 t min;
#X floatatom 416 382 5 0 0 0 - - -;
#X obj 416 401 / 1000;
#X floatatom 416 423 5 0 0 0 - - -;
#X text 416 363 t max;
#X floatatom 464 382 5 0 0 0 - - -;
#X text 461 363 t factor;
#X obj 229 317 unpack f f f f f f, f 32;
#N canvas 1232 438 940 683 A_and_t 0;
#X obj 51 234 t b b, f 22;
#X obj 80 257 + 1;
#X floatatom 51 301 5 0 0 0 - - -;
#X obj 51 506 swap, f 9;
#X obj 51 279 % 32;
#X floatatom 102 397 5 0 0 0 - - -;
#X floatatom 183 356 7 0 0 0 - - -;
#X obj 102 439 +, f 14;
#X obj 51 320 t f f, f 9;
#X floatatom 240 221 5 0 0 0 - - -;
#X text 237 204 step size;
#X obj 51 200 bng 15 250 50 0 empty empty empty 17 7 0 10 -262144 -1
-1;
#X obj 102 375 tabread bank-audio;
#X obj 51 528 tabwrite bank-audio;
#X obj 51 159 bng 15 250 50 0 empty empty empty 17 7 0 10 -262144 -1
-1;
#X obj 51 179 t b b, f 49;
#X obj 342 201 bng 15 250 50 0 empty empty empty 17 7 0 10 -262144
-1 -1;
#X obj 102 416 t f f, f 28;
#X floatatom 292 537 5 0 0 0 - - -;
#X obj 342 222 t b b, f 31;
#X obj 371 245 + 1;
#X floatatom 342 289 5 0 0 0 - - -;
#X obj 342 487 swap, f 9;
#X obj 342 267 % 32;
#X floatatom 393 354 5 0 0 0 - - -;
#X obj 393 431 +, f 14;
#X obj 342 308 t f f, f 9;
#X text 607 232 step size;
#X floatatom 537 507 5 0 0 0 - - -;
#X floatatom 524 336 5 0 0 0 - - -;
#X floatatom 611 250 5 0 0 0 - - -;
#X obj 393 333 tabread bank-times;
#X obj 342 509 tabwrite bank-times;
#X obj 292 556 pack f f, f 34;
#X obj 524 291 - 1;
#X obj 524 314 * 0.05, f 15;
#X obj 292 578 vline~;
#X obj 576 532 s \$0-redo;
#X obj 25 76 r \$0-redo;
#X obj 51 136 spigot;
#X obj 99 137 tgl 15 0 empty empty empty 17 7 0 10 -262144 -1 -1 0
1;
#X obj 90 76 inlet;
#X obj 90 98 t b f;
#X obj 292 600 *~, f 10;
#X obj 292 622 throw~ out;
#X obj 231 94 inlet;
#X obj 369 39 loadbang;
#X obj 337 116 f \$1;
#X obj 368 116 f \$2;
#X obj 567 93 inlet;
#X obj 712 99 inlet;
#X floatatom 704 286 5 0 0 0 - - -;
#X obj 401 116 f \$3;
#X obj 576 509 del;
#X obj 168 95 inlet;
#X obj 183 266 random 2;
#X obj 204 235 bng 15 250 50 0 empty empty empty 17 7 0 10 -262144
-1 -1;
#X floatatom 102 461 5 0 0 0 - - -;
#X obj 524 248 random 2;
#X obj 524 269 * 2;
#X obj 183 287 * 2;
#X obj 183 311 - 1, f 4;
#X obj 183 334 *, f 10;
#X obj 753 99 inlet;
#X floatatom 745 286 5 0 0 0 - - -;
#X obj 794 99 inlet;
#X floatatom 786 286 5 0 0 0 - - -;
#X obj 537 485 t f f, f 7;
#X obj 393 393 t f f, f 20;
#X obj 538 461 * 1;
#X msg 112 290 0;
#X obj 110 269 sel 2e+06;
#X obj 51 257 f;
#X obj 342 245 f;
#X obj 434 116 f \$4;
#X obj 465 116 f \$5;
#X obj 498 116 f \$6;
#X obj 369 61 t b b b b b b, f 19;
#X floatatom 168 117 48 0 0 0 - - -;
#N canvas 0 25 949 1208 mirror 0;
#X obj 40 182 inlet;
#X obj 89 275 tgl 15 0 empty empty empty 17 7 0 10 -262144 -1 -1 0
1;
#X obj 89 295 t f f;
#X obj 240 546 outlet;
#X obj 89 252 > -1;
#X obj 111 326 sel 0;
#X obj 40 327 spigot;
#X obj 40 229 t f f f, f 17;
#X obj 111 348 f, f 8;
#X floatatom 111 370 5 0 0 0 - - -;
#X obj 111 389 + 1;
#X floatatom 111 411 5 0 0 0 - - -;
#X obj 111 430 * -1;
#X obj 111 459 - 1, f 8;
#X floatatom 111 481 5 0 0 0 - - -;
#X floatatom 40 527 5 0 0 0 - - -;
#X obj 289 275 tgl 15 0 empty empty empty 17 7 0 10 -262144 -1 -1 0
1;
#X obj 289 295 t f f;
#X obj 311 326 sel 0;
#X obj 240 327 spigot;
#X obj 240 229 t f f f, f 17;
#X obj 311 348 f, f 8;
#X floatatom 311 370 5 0 0 0 - - -;
#X floatatom 311 411 5 0 0 0 - - -;
#X obj 311 430 * -1;
#X floatatom 311 474 5 0 0 0 - - -;
#X floatatom 240 522 5 0 0 0 - - -;
#X obj 289 252 < 1;
#X obj 311 389 - 1;
#X obj 311 452 + 1, f 8;
#X obj 88 35 loadbang;
#X floatatom 115 129 5 0 0 0 - - -;
#X floatatom 178 129 5 0 0 0 - - -;
#X obj 156 392 * -1;
#X obj 177 85 inlet;
#X obj 220 85 inlet;
#X obj 88 57 t b b, f 9;
#X obj 165 34 bng 15 250 50 0 empty empty empty 17 7 0 10 -262144 -1
-1;
#X msg 22 126 -1.03;
#X msg 32 148 1.03;
#X obj 88 83 f 0;
#X obj 139 85 f 1;
#X obj 51 204 r 11-feed-neg;
#X obj 240 180 r 11-neg-ok;
#X obj 250 202 r 11-feed-pos;
#X obj 319 252 r 11-ul;
#X obj 356 389 r 11-ul;
#X obj 115 148 s 11-ll;
#X obj 178 148 s 11-ul;
#X obj 111 500 s 11-feed-neg;
#X obj 311 493 s 11-feed-pos;
#X obj 156 371 r 11-ll;
#X obj 124 252 r 11-ll;
#X obj 40 546 s 11-neg-ok;
#X connect 0 0 7 0;
#X connect 1 0 2 0;
#X connect 2 0 6 1;
#X connect 2 1 5 0;
#X connect 4 0 1 0;
#X connect 5 0 8 0;
#X connect 6 0 15 0;
#X connect 7 0 6 0;
#X connect 7 1 4 0;
#X connect 7 2 8 1;
#X connect 8 0 9 0;
#X connect 9 0 10 0;
#X connect 10 0 11 0;
#X connect 11 0 12 0;
#X connect 12 0 13 0;
#X connect 13 0 14 0;
#X connect 14 0 49 0;
#X connect 15 0 53 0;
#X connect 16 0 17 0;
#X connect 17 0 19 1;
#X connect 17 1 18 0;
#X connect 18 0 21 0;
#X connect 19 0 26 0;
#X connect 20 0 19 0;
#X connect 20 1 27 0;
#X connect 20 2 21 1;
#X connect 21 0 22 0;
#X connect 22 0 28 0;
#X connect 23 0 24 0;
#X connect 24 0 29 0;
#X connect 25 0 50 0;
#X connect 26 0 3 0;
#X connect 27 0 16 0;
#X connect 28 0 23 0;
#X connect 29 0 25 0;
#X connect 30 0 36 0;
#X connect 31 0 47 0;
#X connect 32 0 48 0;
#X connect 33 0 10 1;
#X connect 33 0 13 1;
#X connect 34 0 31 0;
#X connect 35 0 32 0;
#X connect 36 0 40 0;
#X connect 36 1 41 0;
#X connect 37 0 36 0;
#X connect 38 0 7 0;
#X connect 39 0 7 0;
#X connect 40 0 31 0;
#X connect 41 0 32 0;
#X connect 42 0 7 0;
#X connect 43 0 20 0;
#X connect 44 0 20 0;
#X connect 45 0 27 1;
#X connect 46 0 28 1;
#X connect 46 0 29 1;
#X connect 51 0 33 0;
#X connect 52 0 4 1;
#X restore 725 425 pd mirror;
#N canvas 0 25 949 1208 mirror2 0;
#X obj 40 182 inlet;
#X obj 89 275 tgl 15 0 empty empty empty 17 7 0 10 -262144 -1 -1 0
1;
#X obj 89 295 t f f;
#X obj 240 546 outlet;
#X obj 89 252 > -1;
#X obj 111 326 sel 0;
#X obj 40 327 spigot;
#X obj 40 229 t f f f, f 17;
#X obj 111 348 f, f 8;
#X floatatom 111 370 5 0 0 0 - - -;
#X obj 111 389 + 1;
#X floatatom 111 411 5 0 0 0 - - -;
#X obj 111 430 * -1;
#X obj 111 459 - 1, f 8;
#X floatatom 111 481 5 0 0 0 - - -;
#X floatatom 40 527 5 0 0 0 - - -;
#X obj 289 275 tgl 15 0 empty empty empty 17 7 0 10 -262144 -1 -1 0
1;
#X obj 289 295 t f f;
#X obj 311 326 sel 0;
#X obj 240 327 spigot;
#X obj 240 229 t f f f, f 17;
#X obj 311 348 f, f 8;
#X floatatom 311 370 5 0 0 0 - - -;
#X floatatom 311 411 5 0 0 0 - - -;
#X obj 311 430 * -1;
#X floatatom 311 474 5 0 0 0 - - -;
#X floatatom 240 522 5 0 0 0 - - -;
#X obj 289 252 < 1;
#X obj 311 389 - 1;
#X obj 311 452 + 1, f 8;
#X obj 88 35 loadbang;
#X floatatom 115 129 5 0 0 0 - - -;
#X floatatom 178 129 5 0 0 0 - - -;
#X obj 156 392 * -1;
#X obj 177 85 inlet;
#X obj 220 85 inlet;
#X obj 88 57 t b b, f 9;
#X obj 165 34 bng 15 250 50 0 empty empty empty 17 7 0 10 -262144 -1
-1;
#X msg 22 126 -1.03;
#X msg 32 148 1.03;
#X obj 139 85 f 1;
#X obj 88 83 f -1;
#X obj 115 148 s 111-ll;
#X obj 178 148 s 111-ul;
#X obj 319 253 r 111-ul;
#X obj 356 389 r 111-ul;
#X obj 311 493 s 111-feed-pos;
#X obj 111 500 s 111-feed-neg;
#X obj 40 546 s 111-neg-ok;
#X obj 156 371 r 111-ll;
#X obj 124 252 r 111-ll;
#X obj 51 204 r 111-feed-neg;
#X obj 241 179 r 111-neg-ok;
#X obj 250 202 r 111-feed-pos;
#X connect 0 0 7 0;
#X connect 1 0 2 0;
#X connect 2 0 6 1;
#X connect 2 1 5 0;
#X connect 4 0 1 0;
#X connect 5 0 8 0;
#X connect 6 0 15 0;
#X connect 7 0 6 0;
#X connect 7 1 4 0;
#X connect 7 2 8 1;
#X connect 8 0 9 0;
#X connect 9 0 10 0;
#X connect 10 0 11 0;
#X connect 11 0 12 0;
#X connect 12 0 13 0;
#X connect 13 0 14 0;
#X connect 14 0 47 0;
#X connect 15 0 48 0;
#X connect 16 0 17 0;
#X connect 17 0 19 1;
#X connect 17 1 18 0;
#X connect 18 0 21 0;
#X connect 19 0 26 0;
#X connect 20 0 19 0;
#X connect 20 1 27 0;
#X connect 20 2 21 1;
#X connect 21 0 22 0;
#X connect 22 0 28 0;
#X connect 23 0 24 0;
#X connect 24 0 29 0;
#X connect 25 0 46 0;
#X connect 26 0 3 0;
#X connect 27 0 16 0;
#X connect 28 0 23 0;
#X connect 29 0 25 0;
#X connect 30 0 36 0;
#X connect 31 0 42 0;
#X connect 32 0 43 0;
#X connect 33 0 10 1;
#X connect 33 0 13 1;
#X connect 34 0 31 0;
#X connect 35 0 32 0;
#X connect 36 0 41 0;
#X connect 36 1 40 0;
#X connect 37 0 36 0;
#X connect 38 0 7 0;
#X connect 39 0 7 0;
#X connect 40 0 32 0;
#X connect 41 0 31 0;
#X connect 44 0 27 1;
#X connect 45 0 28 1;
#X connect 45 0 29 1;
#X connect 49 0 33 0;
#X connect 50 0 4 1;
#X connect 51 0 7 0;
#X connect 52 0 20 0;
#X connect 53 0 20 0;
#X restore 200 533 pd mirror2;
#X connect 0 0 72 0;
#X connect 0 1 55 0;
#X connect 1 0 72 1;
#X connect 2 0 8 0;
#X connect 3 0 13 0;
#X connect 3 1 13 1;
#X connect 4 0 2 0;
#X connect 5 0 17 0;
#X connect 6 0 7 1;
#X connect 7 0 57 0;
#X connect 8 0 3 0;
#X connect 8 1 12 0;
#X connect 8 1 71 0;
#X connect 9 0 62 1;
#X connect 11 0 0 0;
#X connect 12 0 5 0;
#X connect 14 0 15 0;
#X connect 15 0 11 0;
#X connect 15 1 16 0;
#X connect 16 0 19 0;
#X connect 17 0 7 0;
#X connect 17 1 18 0;
#X connect 18 0 33 0;
#X connect 19 0 73 0;
#X connect 19 1 58 0;
#X connect 20 0 73 1;
#X connect 21 0 26 0;
#X connect 22 0 32 0;
#X connect 22 1 32 1;
#X connect 23 0 21 0;
#X connect 24 0 68 0;
#X connect 25 0 79 0;
#X connect 26 0 22 0;
#X connect 26 1 31 0;
#X connect 28 0 33 1;
#X connect 29 0 25 1;
#X connect 30 0 35 1;
#X connect 31 0 24 0;
#X connect 33 0 36 0;
#X connect 34 0 35 0;
#X connect 35 0 29 0;
#X connect 36 0 43 0;
#X connect 38 0 39 0;
#X connect 39 0 14 0;
#X connect 40 0 39 1;
#X connect 40 0 43 1;
#X connect 41 0 42 0;
#X connect 42 0 39 0;
#X connect 42 1 40 0;
#X connect 43 0 44 0;
#X connect 45 0 9 0;
#X connect 46 0 77 0;
#X connect 47 0 78 0;
#X connect 48 0 9 0;
#X connect 49 0 30 0;
#X connect 50 0 51 0;
#X connect 51 0 79 1;
#X connect 52 0 30 0;
#X connect 53 0 37 0;
#X connect 54 0 78 0;
#X connect 55 0 60 0;
#X connect 56 0 55 0;
#X connect 57 0 80 0;
#X connect 58 0 59 0;
#X connect 59 0 34 0;
#X connect 60 0 61 0;
#X connect 61 0 62 0;
#X connect 62 0 6 0;
#X connect 63 0 64 0;
#X connect 64 0 79 2;
#X connect 65 0 66 0;
#X connect 66 0 69 1;
#X connect 67 0 28 0;
#X connect 67 1 53 0;
#X connect 68 0 25 0;
#X connect 68 1 69 0;
#X connect 69 0 67 0;
#X connect 70 0 23 1;
#X connect 70 0 72 1;
#X connect 71 0 70 0;
#X connect 72 0 1 0;
#X connect 72 0 4 0;
#X connect 73 0 20 0;
#X connect 73 0 23 0;
#X connect 74 0 51 0;
#X connect 75 0 64 0;
#X connect 76 0 66 0;
#X connect 77 0 47 0;
#X connect 77 1 48 0;
#X connect 77 2 52 0;
#X connect 77 3 74 0;
#X connect 77 4 75 0;
#X connect 77 5 76 0;
#X connect 78 0 4 1;
#X connect 78 0 23 1;
#X connect 79 0 22 1;
#X connect 80 0 3 1;
#X restore 179 465 pd A_and_t 12 0.009 0.052 1.01 1.113 0.46;
#X obj 507 729 *~;
#X obj 522 708 tgl 15 0 empty empty empty 17 7 0 10 -262144 -1 -1 0
1;
#X text 540 707 reverb;
#X text 170 370 ON/OFF;
#X obj 347 967 *~, f 6;
#X obj 526 989 *~;
#X floatatom 446 901 5 0 0 0 - - -;
#X obj 446 921 / 100;
#X obj 425 1021 dac~;
#X obj 510 250 / 62.5;
#X obj 510 271 pow -1;
#X floatatom 510 292 5 0 0 0 - - -;
#X floatatom 516 193 5 0 0 0 - - -;
#X obj 526 139 mtof;
#X floatatom 531 85 5 0 0 0 - - -;
#X obj 243 96 t b b b;
#X obj 242 60 loadbang;
#X obj 76 88 tgl 100 0 red fa empty 17 7 0 10 -257985 -1 -1 0 1;
#X msg 264 296 20 24 52 975 1125 0.5;
#X obj 531 107 + 13;
#X obj 562 824 rev1~;
#X floatatom 577 772 5 0 0 0 - - -;
#X msg 453 129 60;
#X msg 376 200 5;
#X obj 687 624 tgl 15 0 f red empty 17 7 0 10 -262144 -1 -1 0 1;
#X obj 713 395 bng 15 250 50 0 empty empty empty 17 7 0 10 -262144
-1 -1;
#X floatatom 734 616 5 0 0 0 - - -;
#X floatatom 877 617 5 0 0 0 - - -;
#X obj 877 636 / 1000;
#X floatatom 829 616 5 0 0 0 - - -;
#X obj 829 635 / 1000;
#X floatatom 782 616 5 0 0 0 - - -;
#X obj 782 635 / 1000;
#X floatatom 782 657 5 0 0 0 - - -;
#X floatatom 829 657 5 0 0 0 - - -;
#X floatatom 877 658 5 0 0 0 - - -;
#X text 739 597 n;
#X text 783 595 a step;
#X text 831 595 t step;
#X text 878 596 t min;
#X floatatom 924 617 5 0 0 0 - - -;
#X obj 924 636 / 1000;
#X floatatom 924 658 5 0 0 0 - - -;
#X text 924 598 t max;
#X floatatom 972 617 5 0 0 0 - - -;
#X text 969 598 t factor;
#X obj 737 552 unpack f f f f f f, f 32;
#N canvas 384 426 940 683 A_and_t 0;
#X obj 51 234 t b b, f 22;
#X obj 80 257 + 1;
#X floatatom 51 301 5 0 0 0 - - -;
#X obj 51 506 swap, f 9;
#X obj 51 279 % 32;
#X floatatom 102 397 5 0 0 0 - - -;
#X floatatom 183 356 7 0 0 0 - - -;
#X obj 102 439 +, f 14;
#X obj 51 320 t f f, f 9;
#X floatatom 240 221 5 0 0 0 - - -;
#X text 237 204 step size;
#X obj 51 200 bng 15 250 50 0 empty empty empty 17 7 0 10 -262144 -1
-1;
#X obj 51 159 bng 15 250 50 0 empty empty empty 17 7 0 10 -262144 -1
-1;
#X obj 51 179 t b b, f 49;
#X obj 342 201 bng 15 250 50 0 empty empty empty 17 7 0 10 -262144
-1 -1;
#X obj 102 416 t f f, f 28;
#X floatatom 292 537 5 0 0 0 - - -;
#X obj 342 222 t b b, f 31;
#X obj 371 245 + 1;
#X floatatom 342 289 5 0 0 0 - - -;
#X obj 342 487 swap, f 9;
#X obj 342 267 % 32;
#X floatatom 393 354 5 0 0 0 - - -;
#X obj 393 431 +, f 14;
#X obj 342 308 t f f, f 9;
#X text 607 232 step size;
#X floatatom 537 507 5 0 0 0 - - -;
#X floatatom 524 336 5 0 0 0 - - -;
#X floatatom 611 250 5 0 0 0 - - -;
#X obj 292 556 pack f f, f 34;
#X obj 524 291 - 1;
#X obj 524 314 * 0.05, f 15;
#X obj 292 578 vline~;
#X obj 51 136 spigot;
#X obj 99 137 tgl 15 0 empty empty empty 17 7 0 10 -262144 -1 -1 0
1;
#X obj 90 76 inlet;
#X obj 90 98 t b f;
#X obj 292 600 *~, f 10;
#X obj 292 622 throw~ out;
#X obj 231 94 inlet;
#X obj 369 39 loadbang;
#X obj 337 116 f \$1;
#X obj 368 116 f \$2;
#X obj 567 93 inlet;
#X obj 712 99 inlet;
#X floatatom 704 286 5 0 0 0 - - -;
#X obj 401 116 f \$3;
#X obj 576 509 del;
#X obj 168 95 inlet;
#X obj 183 266 random 2;
#X obj 204 235 bng 15 250 50 0 empty empty empty 17 7 0 10 -262144
-1 -1;
#X floatatom 102 461 5 0 0 0 - - -;
#X obj 524 248 random 2;
#X obj 524 269 * 2;
#X obj 183 287 * 2;
#X obj 183 311 - 1, f 4;
#X obj 183 334 *, f 10;
#X obj 753 99 inlet;
#X floatatom 745 286 5 0 0 0 - - -;
#X obj 794 99 inlet;
#X floatatom 786 286 5 0 0 0 - - -;
#X obj 537 485 t f f, f 7;
#X obj 393 393 t f f, f 20;
#X obj 538 461 * 1;
#X msg 112 290 0;
#X obj 110 269 sel 2e+06;
#X obj 51 257 f;
#X obj 342 245 f;
#X obj 434 116 f \$4;
#X obj 465 116 f \$5;
#X obj 498 116 f \$6;
#X obj 369 61 t b b b b b b, f 19;
#X floatatom 168 117 48 0 0 0 - - -;
#N canvas 0 25 949 1208 mirror 0;
#X obj 40 182 inlet;
#X obj 89 275 tgl 15 0 empty empty empty 17 7 0 10 -262144 -1 -1 0
1;
#X obj 89 295 t f f;
#X obj 240 546 outlet;
#X obj 89 252 > -1;
#X obj 111 326 sel 0;
#X obj 40 327 spigot;
#X obj 40 229 t f f f, f 17;
#X obj 111 348 f, f 8;
#X floatatom 111 370 5 0 0 0 - - -;
#X obj 111 389 + 1;
#X floatatom 111 411 5 0 0 0 - - -;
#X obj 111 430 * -1;
#X obj 111 459 - 1, f 8;
#X floatatom 111 481 5 0 0 0 - - -;
#X floatatom 40 527 5 0 0 0 - - -;
#X obj 289 275 tgl 15 0 empty empty empty 17 7 0 10 -262144 -1 -1 0
1;
#X obj 289 295 t f f;
#X obj 311 326 sel 0;
#X obj 240 327 spigot;
#X obj 240 229 t f f f, f 17;
#X obj 311 348 f, f 8;
#X floatatom 311 370 5 0 0 0 - - -;
#X floatatom 311 411 5 0 0 0 - - -;
#X obj 311 430 * -1;
#X floatatom 311 474 5 0 0 0 - - -;
#X floatatom 240 522 5 0 0 0 - - -;
#X obj 289 252 < 1;
#X obj 311 389 - 1;
#X obj 311 452 + 1, f 8;
#X obj 88 35 loadbang;
#X floatatom 115 129 5 0 0 0 - - -;
#X floatatom 178 129 5 0 0 0 - - -;
#X obj 156 392 * -1;
#X obj 177 85 inlet;
#X obj 220 85 inlet;
#X obj 88 57 t b b, f 9;
#X obj 165 34 bng 15 250 50 0 empty empty empty 17 7 0 10 -262144 -1
-1;
#X msg 22 126 -1.03;
#X msg 32 148 1.03;
#X obj 88 83 f 0;
#X obj 139 85 f 1;
#X obj 115 148 s 112-ll;
#X obj 178 148 s 112-ul;
#X obj 51 204 r 112-feed-neg;
#X obj 124 252 r 112-ll;
#X obj 156 371 r 112-ll;
#X obj 111 500 s 112-feed-neg;
#X obj 40 546 s 112-neg-ok;
#X obj 311 493 s 112-feed-pos;
#X obj 356 389 r 112-ul;
#X obj 319 252 r 112-ul;
#X obj 240 180 r 112-neg-ok;
#X obj 251 202 r 112-feed-pos;
#X connect 0 0 7 0;
#X connect 1 0 2 0;
#X connect 2 0 6 1;
#X connect 2 1 5 0;
#X connect 4 0 1 0;
#X connect 5 0 8 0;
#X connect 6 0 15 0;
#X connect 7 0 6 0;
#X connect 7 1 4 0;
#X connect 7 2 8 1;
#X connect 8 0 9 0;
#X connect 9 0 10 0;
#X connect 10 0 11 0;
#X connect 11 0 12 0;
#X connect 12 0 13 0;
#X connect 13 0 14 0;
#X connect 14 0 47 0;
#X connect 15 0 48 0;
#X connect 16 0 17 0;
#X connect 17 0 19 1;
#X connect 17 1 18 0;
#X connect 18 0 21 0;
#X connect 19 0 26 0;
#X connect 20 0 19 0;
#X connect 20 1 27 0;
#X connect 20 2 21 1;
#X connect 21 0 22 0;
#X connect 22 0 28 0;
#X connect 23 0 24 0;
#X connect 24 0 29 0;
#X connect 25 0 49 0;
#X connect 26 0 3 0;
#X connect 27 0 16 0;
#X connect 28 0 23 0;
#X connect 29 0 25 0;
#X connect 30 0 36 0;
#X connect 31 0 42 0;
#X connect 32 0 43 0;
#X connect 33 0 10 1;
#X connect 33 0 13 1;
#X connect 34 0 31 0;
#X connect 35 0 32 0;
#X connect 36 0 40 0;
#X connect 36 1 41 0;
#X connect 37 0 36 0;
#X connect 38 0 7 0;
#X connect 39 0 7 0;
#X connect 40 0 31 0;
#X connect 41 0 32 0;
#X connect 44 0 7 0;
#X connect 45 0 4 1;
#X connect 46 0 33 0;
#X connect 50 0 28 1;
#X connect 50 0 29 1;
#X connect 51 0 27 1;
#X connect 52 0 20 0;
#X connect 53 0 20 0;
#X restore 725 425 pd mirror;
#N canvas 300 100 949 1208 mirror2 0;
#X obj 40 182 inlet;
#X obj 89 275 tgl 15 0 empty empty empty 17 7 0 10 -262144 -1 -1 0
1;
#X obj 89 295 t f f;
#X obj 240 546 outlet;
#X obj 89 252 > -1;
#X obj 111 326 sel 0;
#X obj 40 327 spigot;
#X obj 40 229 t f f f, f 17;
#X obj 111 348 f, f 8;
#X floatatom 111 370 5 0 0 0 - - -;
#X obj 111 389 + 1;
#X floatatom 111 411 5 0 0 0 - - -;
#X obj 111 430 * -1;
#X obj 111 459 - 1, f 8;
#X floatatom 111 481 5 0 0 0 - - -;
#X floatatom 40 527 5 0 0 0 - - -;
#X obj 289 275 tgl 15 0 empty empty empty 17 7 0 10 -262144 -1 -1 0
1;
#X obj 289 295 t f f;
#X obj 311 326 sel 0;
#X obj 240 327 spigot;
#X obj 240 229 t f f f, f 17;
#X obj 311 348 f, f 8;
#X floatatom 311 370 5 0 0 0 - - -;
#X floatatom 311 411 5 0 0 0 - - -;
#X obj 311 430 * -1;
#X floatatom 311 474 5 0 0 0 - - -;
#X floatatom 240 522 5 0 0 0 - - -;
#X obj 289 252 < 1;
#X obj 311 389 - 1;
#X obj 311 452 + 1, f 8;
#X obj 88 35 loadbang;
#X floatatom 115 129 5 0 0 0 - - -;
#X floatatom 178 129 5 0 0 0 - - -;
#X obj 156 392 * -1;
#X obj 177 85 inlet;
#X obj 220 85 inlet;
#X obj 88 57 t b b, f 9;
#X obj 165 34 bng 15 250 50 0 empty empty empty 17 7 0 10 -262144 -1
-1;
#X msg 22 126 -1.03;
#X msg 32 148 1.03;
#X obj 139 85 f 1;
#X obj 88 83 f -1;
#X obj 115 148 s 1111-ll;
#X obj 178 148 s 1111-ul;
#X obj 51 204 r 1111-feed-neg;
#X obj 124 252 r 1111-ll;
#X obj 157 372 r 1111-ll;
#X obj 111 500 s 1111-feed-neg;
#X obj 40 546 s 1111-neg-ok;
#X obj 311 493 s 1111-feed-pos;
#X obj 357 389 r 1111-ul;
#X obj 319 253 r 1111-ul;
#X obj 250 203 r 1111-feed-pos;
#X obj 241 179 r 1111-neg-ok;
#X connect 0 0 7 0;
#X connect 1 0 2 0;
#X connect 2 0 6 1;
#X connect 2 1 5 0;
#X connect 4 0 1 0;
#X connect 5 0 8 0;
#X connect 6 0 15 0;
#X connect 7 0 6 0;
#X connect 7 1 4 0;
#X connect 7 2 8 1;
#X connect 8 0 9 0;
#X connect 9 0 10 0;
#X connect 10 0 11 0;
#X connect 11 0 12 0;
#X connect 12 0 13 0;
#X connect 13 0 14 0;
#X connect 14 0 47 0;
#X connect 15 0 48 0;
#X connect 16 0 17 0;
#X connect 17 0 19 1;
#X connect 17 1 18 0;
#X connect 18 0 21 0;
#X connect 19 0 26 0;
#X connect 20 0 19 0;
#X connect 20 1 27 0;
#X connect 20 2 21 1;
#X connect 21 0 22 0;
#X connect 22 0 28 0;
#X connect 23 0 24 0;
#X connect 24 0 29 0;
#X connect 25 0 49 0;
#X connect 26 0 3 0;
#X connect 27 0 16 0;
#X connect 28 0 23 0;
#X connect 29 0 25 0;
#X connect 30 0 36 0;
#X connect 31 0 42 0;
#X connect 32 0 43 0;
#X connect 33 0 10 1;
#X connect 33 0 13 1;
#X connect 34 0 31 0;
#X connect 35 0 32 0;
#X connect 36 0 41 0;
#X connect 36 1 40 0;
#X connect 37 0 36 0;
#X connect 38 0 7 0;
#X connect 39 0 7 0;
#X connect 40 0 32 0;
#X connect 41 0 31 0;
#X connect 44 0 7 0;
#X connect 45 0 4 1;
#X connect 46 0 33 0;
#X connect 50 0 28 1;
#X connect 50 0 29 1;
#X connect 51 0 27 1;
#X connect 52 0 20 0;
#X connect 53 0 20 0;
#X restore 200 533 pd mirror2;
#X obj 25 76 r 143-redo;
#X obj 342 509 tabwrite bank-times2;
#X obj 576 532 s 143-redo;
#X obj 393 333 tabread bank-times2;
#X obj 51 528 tabwrite bank-audio2;
#X obj 102 375 tabread bank-audio2;
#X connect 0 0 66 0;
#X connect 0 1 49 0;
#X connect 1 0 66 1;
#X connect 2 0 8 0;
#X connect 3 0 79 0;
#X connect 3 1 79 1;
#X connect 4 0 2 0;
#X connect 5 0 15 0;
#X connect 6 0 7 1;
#X connect 7 0 51 0;
#X connect 8 0 3 0;
#X connect 8 1 65 0;
#X connect 8 1 80 0;
#X connect 9 0 56 1;
#X connect 11 0 0 0;
#X connect 12 0 13 0;
#X connect 13 0 11 0;
#X connect 13 1 14 0;
#X connect 14 0 17 0;
#X connect 15 0 7 0;
#X connect 15 1 16 0;
#X connect 16 0 29 0;
#X connect 17 0 67 0;
#X connect 17 1 52 0;
#X connect 18 0 67 1;
#X connect 19 0 24 0;
#X connect 20 0 76 0;
#X connect 20 1 76 1;
#X connect 21 0 19 0;
#X connect 22 0 62 0;
#X connect 23 0 73 0;
#X connect 24 0 20 0;
#X connect 24 1 78 0;
#X connect 26 0 29 1;
#X connect 27 0 23 1;
#X connect 28 0 31 1;
#X connect 29 0 32 0;
#X connect 30 0 31 0;
#X connect 31 0 27 0;
#X connect 32 0 37 0;
#X connect 33 0 12 0;
#X connect 34 0 33 1;
#X connect 34 0 37 1;
#X connect 35 0 36 0;
#X connect 36 0 33 0;
#X connect 36 1 34 0;
#X connect 37 0 38 0;
#X connect 39 0 9 0;
#X connect 40 0 71 0;
#X connect 41 0 72 0;
#X connect 42 0 9 0;
#X connect 43 0 28 0;
#X connect 44 0 45 0;
#X connect 45 0 73 1;
#X connect 46 0 28 0;
#X connect 47 0 77 0;
#X connect 48 0 72 0;
#X connect 49 0 54 0;
#X connect 50 0 49 0;
#X connect 51 0 74 0;
#X connect 52 0 53 0;
#X connect 53 0 30 0;
#X connect 54 0 55 0;
#X connect 55 0 56 0;
#X connect 56 0 6 0;
#X connect 57 0 58 0;
#X connect 58 0 73 2;
#X connect 59 0 60 0;
#X connect 60 0 63 1;
#X connect 61 0 26 0;
#X connect 61 1 47 0;
#X connect 62 0 23 0;
#X connect 62 1 63 0;
#X connect 63 0 61 0;
#X connect 64 0 21 1;
#X connect 64 0 66 1;
#X connect 65 0 64 0;
#X connect 66 0 1 0;
#X connect 66 0 4 0;
#X connect 67 0 18 0;
#X connect 67 0 21 0;
#X connect 68 0 45 0;
#X connect 69 0 58 0;
#X connect 70 0 60 0;
#X connect 71 0 41 0;
#X connect 71 1 42 0;
#X connect 71 2 46 0;
#X connect 71 3 68 0;
#X connect 71 4 69 0;
#X connect 71 5 70 0;
#X connect 72 0 4 1;
#X connect 72 0 21 1;
#X connect 73 0 20 1;
#X connect 74 0 3 1;
#X connect 75 0 33 0;
#X connect 78 0 22 0;
#X connect 80 0 5 0;
#X restore 687 700 pd A_and_t 12 0.009 0.052 1.01 1.113 0.46;
#X text 678 605 ON/OFF;
#X obj 1018 485 / 62.5;
#X obj 1018 506 pow -1;
#X floatatom 1018 527 5 0 0 0 - - -;
#X floatatom 1024 428 5 0 0 0 - - -;
#X obj 1034 374 mtof;
#X floatatom 1039 320 5 0 0 0 - - -;
#X obj 751 331 t b b b;
#X obj 750 295 loadbang;
#X msg 772 531 20 24 52 975 1125 0.5;
#X obj 1039 342 + 13;
#X msg 961 364 60;
#X msg 884 435 5;
#N canvas 0 22 450 278 (subpatch) 0;
#X array bank-audio2 32 float 3;
#A 0 -0.282188 0.0128125 -0.803813 -0.617875 0.212 -0.013375 0.076125
-0.08775 0.993 -0.545875 -0.112688 0.209437 0.512875 -0.0485625 0.841812
0.284688 0.735813 0.0815625 0.898125 -0.299875 0.107062 0.983125 -0.269687
0.0381875 0.521438 -0.200688 0.696375 -0.630188 0.292313 -0.853813
0.807125 0.7235;
#X coords 0 278 1 277 200 140 0;
#X restore 1176 373 graph;
#N canvas 0 22 450 278 (subpatch) 0;
#X array bank-times2 32 float 3;
#A 0 1.37578 0.90975 2.52534 1.60031 0.60375 0.201 0.65025 2.49056
2.96738 0.808875 0.349875 1.82372 1.15134 0.941063 1.17441 0.717094
1.74225 2.07009 2.74913 1.71347 1.20656 0.168844 2.54831 1.47 2.55619
0.196406 2.38941 0.884812 2.95172 1.52138 0.395344 0.692062;
#X coords 0 278 1 277 200 140 0;
#X restore 1177 536 graph;
#N canvas 0 25 408 270 load_initial_set2 0;
#X obj 119 126 random 32000;
#X obj 119 147 / 16000;
#X floatatom 119 189 5 0 0 0 - - -;
#X obj 119 168 - 1;
#X obj 38 105 t b b, f 14;
#X obj 67 127 + 1;
#X floatatom 38 171 5 0 0 0 - - -;
#X obj 38 207 swap, f 14;
#X msg 38 62 32;
#X obj 38 149 % 32;
#X obj 38 127 f;
#X obj 38 84 until;
#X text 69 62 make departure set;
#X obj 38 43 bng 15 250 50 0 empty empty empty 17 7 0 10 -262144 -1
-1;
#X obj 212 104 t b b, f 14;
#X obj 241 126 + 1;
#X floatatom 212 170 5 0 0 0 - - -;
#X obj 212 225 swap, f 14;
#X msg 212 61 32;
#X obj 212 148 % 32;
#X obj 212 126 f;
#X obj 212 83 until;
#X text 243 61 make departure set;
#X obj 212 42 bng 15 250 50 0 empty empty empty 17 7 0 10 -262144 -1
-1;
#X obj 293 165 / 32000;
#X obj 293 186 * 3;
#X obj 293 125 random 31000;
#X floatatom 293 207 5 0 0 0 - - -;
#X floatatom 337 84 5 0 0 0 - - -;
#X obj 129 5 inlet;
#X obj 129 27 t b b;
#X obj 293 145 + 1000;
#X obj 38 229 tabwrite bank-audio2;
#X obj 212 246 tabwrite bank-times2;
#X connect 0 0 1 0;
#X connect 1 0 3 0;
#X connect 2 0 7 1;
#X connect 3 0 2 0;
#X connect 4 0 10 0;
#X connect 4 1 0 0;
#X connect 5 0 10 1;
#X connect 6 0 7 0;
#X connect 7 0 32 0;
#X connect 7 1 32 1;
#X connect 8 0 11 0;
#X connect 9 0 6 0;
#X connect 10 0 5 0;
#X connect 10 0 9 0;
#X connect 11 0 4 0;
#X connect 13 0 8 0;
#X connect 14 0 20 0;
#X connect 14 1 26 0;
#X connect 15 0 20 1;
#X connect 16 0 17 0;
#X connect 17 0 33 0;
#X connect 17 1 33 1;
#X connect 18 0 21 0;
#X connect 19 0 16 0;
#X connect 20 0 15 0;
#X connect 20 0 19 0;
#X connect 21 0 14 0;
#X connect 23 0 18 0;
#X connect 24 0 25 0;
#X connect 25 0 27 0;
#X connect 26 0 31 0;
#X connect 27 0 17 1;
#X connect 28 0 25 1;
#X connect 29 0 30 0;
#X connect 30 0 13 0;
#X connect 30 1 23 0;
#X connect 31 0 24 0;
#X restore 713 415 pd load_initial_set2;
#X obj 613 27 random 12;
#X obj 613 48 + 54;
#X obj 607 76 spigot;
#X obj 670 77 spigot;
#X obj 712 30 tgl 15 0 empty empty empty 17 7 0 10 -262144 -1 -1 0
1;
#X obj 487 29 metro 1000;
#X obj 712 50 - 1;
#X obj 487 50 t b b;
#X connect 3 0 27 0;
#X connect 3 0 29 0;
#X connect 3 0 97 0;
#X connect 4 0 28 0;
#X connect 5 0 2 0;
#X connect 5 0 51 0;
#X connect 6 0 27 1;
#X connect 7 0 8 0;
#X connect 8 0 15 0;
#X connect 9 0 10 0;
#X connect 10 0 14 0;
#X connect 11 0 12 0;
#X connect 12 0 13 0;
#X connect 13 0 27 2;
#X connect 14 0 27 3;
#X connect 15 0 27 4;
#X connect 20 0 21 0;
#X connect 21 0 22 0;
#X connect 22 0 27 5;
#X connect 24 0 27 6;
#X connect 26 0 6 0;
#X connect 26 1 11 0;
#X connect 26 2 9 0;
#X connect 26 3 7 0;
#X connect 26 4 20 0;
#X connect 26 5 24 0;
#X connect 28 0 48 0;
#X connect 28 0 32 0;
#X connect 28 0 33 0;
#X connect 29 0 28 1;
#X connect 32 0 36 0;
#X connect 33 0 36 1;
#X connect 34 0 35 0;
#X connect 35 0 32 1;
#X connect 35 0 33 1;
#X connect 37 0 38 0;
#X connect 38 0 39 0;
#X connect 39 0 24 0;
#X connect 40 0 37 0;
#X connect 41 0 40 0;
#X connect 42 0 47 0;
#X connect 43 0 51 0;
#X connect 43 0 50 0;
#X connect 43 1 46 0;
#X connect 43 2 5 0;
#X connect 44 0 43 0;
#X connect 46 0 26 0;
#X connect 47 0 41 0;
#X connect 48 0 32 0;
#X connect 48 0 33 0;
#X connect 49 0 48 1;
#X connect 50 0 42 0;
#X connect 50 0 49 0;
#X connect 51 0 34 0;
#X connect 52 0 75 0;
#X connect 53 0 91 0;
#X connect 53 0 88 0;
#X connect 54 0 75 1;
#X connect 55 0 56 0;
#X connect 56 0 63 0;
#X connect 57 0 58 0;
#X connect 58 0 62 0;
#X connect 59 0 60 0;
#X connect 60 0 61 0;
#X connect 61 0 75 2;
#X connect 62 0 75 3;
#X connect 63 0 75 4;
#X connect 68 0 69 0;
#X connect 69 0 70 0;
#X connect 70 0 75 5;
#X connect 72 0 75 6;
#X connect 74 0 54 0;
#X connect 74 1 59 0;
#X connect 74 2 57 0;
#X connect 74 3 55 0;
#X connect 74 4 68 0;
#X connect 74 5 72 0;
#X connect 77 0 78 0;
#X connect 78 0 79 0;
#X connect 79 0 72 0;
#X connect 80 0 77 0;
#X connect 81 0 80 0;
#X connect 82 0 86 0;
#X connect 83 0 88 0;
#X connect 83 0 87 0;
#X connect 83 1 85 0;
#X connect 83 2 53 0;
#X connect 84 0 83 0;
#X connect 85 0 74 0;
#X connect 86 0 81 0;
#X connect 87 0 82 0;
#X connect 92 0 93 0;
#X connect 93 0 94 0;
#X connect 93 0 95 0;
#X connect 94 0 42 0;
#X connect 95 0 82 0;
#X connect 96 0 94 1;
#X connect 96 0 98 0;
#X connect 97 0 99 0;
#X connect 98 0 95 1;
#X connect 99 0 92 0;
#X connect 99 1 96 0;
