#N canvas 1746 233 723 651 12;
#N canvas 357 168 872 627 all 0;
#X obj 235 32 loadbang;
#X obj 350 194 t b b;
#X obj 480 432 mtof;
#X obj 490 486 osc~;
#X obj 194 156 bng 15 250 50 0 empty empty empty 17 7 0 10 -262144
-1 -1;
#X obj 474 540 dac~;
#X obj 339 394 +;
#X floatatom 342 436 5 0 0 0 - - -;
#X obj 287 206 del 99;
#X obj 290 256 metro 99;
#X obj 272 234 tgl 15 0 empty empty empty 17 7 0 10 -262144 -1 -1 0
1;
#X obj 213 297 f;
#X obj 233 327 + 1;
#X obj 233 364 % 20;
#X obj 238 407 sel 19;
#X obj 382 300 random 60;
#X obj 382 324 + 110;
#X obj 444 372 / 2;
#X obj 298 310 random 18;
#X obj 297 333 - 9;
#X msg 270 472 0;
#X obj 255 442 del 99;
#X obj 192 95 metro 6000;
#X obj 236 129 random 10000;
#X obj 595 143 + 2500;
#X obj 53 110 bng 15 250 50 0 empty go empty 17 7 0 10 -262144 -1 -1
;
#X connect 0 0 22 0;
#X connect 1 0 8 0;
#X connect 1 1 15 0;
#X connect 2 0 3 0;
#X connect 3 0 5 0;
#X connect 3 0 5 1;
#X connect 4 0 1 0;
#X connect 6 0 7 0;
#X connect 7 0 6 1;
#X connect 7 0 17 0;
#X connect 8 0 10 0;
#X connect 9 0 11 0;
#X connect 9 0 18 0;
#X connect 10 0 9 0;
#X connect 11 0 12 0;
#X connect 12 0 11 1;
#X connect 12 0 13 0;
#X connect 13 0 14 0;
#X connect 14 0 10 0;
#X connect 14 0 21 0;
#X connect 15 0 16 0;
#X connect 16 0 6 1;
#X connect 16 0 17 0;
#X connect 17 0 2 0;
#X connect 18 0 19 0;
#X connect 19 0 6 0;
#X connect 20 0 3 0;
#X connect 21 0 20 0;
#X connect 22 0 4 0;
#X connect 22 0 23 0;
#X connect 23 0 24 0;
#X connect 24 0 22 1;
#X connect 25 0 22 0;
#X restore 39 132 pd all;
#X obj 27 55 bng 25 250 50 0 go na go 17 7 0 10 -258113 -1 -1;
